<?xml version="1.0" encoding="UTF-8"?>
<svg xmlns="http://www.w3.org/2000/svg" id="Ebene_1" data-name="Ebene 1" viewBox="0 0 542.07 150.85">
  <defs>
    <style>.cls-1{fill:#bbbbbc;}.cls-2{fill:#ec6608;}.cls-3{fill:#222221;}.cls-4{fill:#fff;}</style>
  </defs>
  <title>HeliWorks_logo</title>
  <path class="cls-1" d="M362.27,139.41l-5-2.93,6.32-9.58a27.8,27.8,0,0,1-3.74-2.27l-5.3,10.25-5-2.94a.91.91,0,0,0-1.24.33l-1.15,1.95a.91.91,0,0,0,.32,1.25l5.18,3.05-4.28,8.28c-.12.24.37.7.53.79l1.81,1a.94.94,0,0,0,.43.13l-3.2,5.44a.88.88,0,0,0,.32,1.2.86.86,0,0,0,1.19-.31l7.21-12.27a.87.87,0,1,0-1.51-.88l-3.2,5.44a1,1,0,0,0-.32-.32l-1-.56,4.33-6.55,5.18,3.05a.91.91,0,0,0,1.25-.33l1.15-2A.92.92,0,0,0,362.27,139.41Z" transform="translate(-5.38 -4.62)"></path>
  <path class="cls-1" d="M396.08,81.61a35.28,35.28,0,0,0,2.68-10.39v-.28c.09-2.51-.51-4.27-1.85-5.06s-3.17-.45-5.32.85l-.24.14a36.2,36.2,0,0,0-7.92,7.59A28.13,28.13,0,0,1,396.08,81.61Z" transform="translate(-5.38 -4.62)"></path>
  <polygon class="cls-1" points="317.94 128.87 302.06 70.5 301.56 70.5 285.5 128.33 280.24 128.33 264.06 70.24 262.43 70.24 278.26 127.77 275.35 128.57 258.47 67.22 266.35 67.22 282.53 125.31 283.21 125.31 299.28 67.48 304.37 67.48 320.24 125.85 321.44 125.85 339.07 67.67 341.96 68.55 323.68 128.87 317.94 128.87"></polygon>
  <path class="cls-1" d="M376.32,132.79a30.13,30.13,0,1,1,30.11-30.13,29.73,29.73,0,0,1-3.05,13.14l-.11.25-1.11,2.13-8-4.18.68-1.33a26.41,26.41,0,0,0,2.39-10.16,20.28,20.28,0,0,0-3-10.33l-.36-.53,2.48-1.71.37.54a23,23,0,0,1,3.51,12.07,29,29,0,0,1-2.11,10.12l2.71,1.42a26.61,26.61,0,0,0,2.56-11.43,27.11,27.11,0,1,0-27.1,27.11,26.83,26.83,0,0,0,19.57-8.42l.25-.26.41.08c.63.34,1.14.63,1.67.93l.71.39-.55.61a30.19,30.19,0,0,1-9.82,7.07A29.66,29.66,0,0,1,376.32,132.79Z" transform="translate(-5.38 -4.62)"></path>
  <path class="cls-1" d="M433.58,107l3.05,0c.32,0,7.84-.06,12.56-4.76,2.54-2.54,3.84-6,3.83-10.38,0-15.71-15.55-16.26-16.21-16.28H416.74v54.53h3.14V78.66h3v54.5h-9.16V72.6h23.11c.21,0,19.18.7,19.19,19.28,0,5.19-1.58,9.41-4.73,12.54-3.73,3.72-8.73,5-11.82,5.41L456.13,132l-2.4,1.82Z" transform="translate(-5.38 -4.62)"></path>
  <polygon class="cls-1" points="469.99 96.74 494.37 70.81 491.06 70.81 462.84 101.92 462.84 70.81 460.73 70.81 460.73 128.97 457.71 128.97 457.71 67.79 465.85 67.79 465.85 94.11 489.73 67.79 501.36 67.79 474.08 96.79 501.34 127.25 499.1 129.28 469.99 96.74"></polygon>
  <path class="cls-1" d="M529.07,134.42c-.71,0-1.42,0-2.12-.11-5.26-.55-10.35-3.23-13-6.82a18.7,18.7,0,0,1-3.65-11.95l.14-1.36h8.42v1.51a12.14,12.14,0,0,0,2.5,6.83,10.49,10.49,0,0,0,6.47,3.27l.65.06-.24,3-.64,0a13.33,13.33,0,0,1-8.55-4.35A14.55,14.55,0,0,1,516,117.2h-2.66a16.35,16.35,0,0,0,3.07,8.5c2.15,2.94,6.42,5.13,10.87,5.6a17,17,0,0,0,1.81.1,16.11,16.11,0,0,0,11-4.32,12.85,12.85,0,0,0,4.26-10.76,13.26,13.26,0,0,0-6.29-10.15c-2.63-1.64-6.06-2.23-9.37-2.81-5.33-.92-10.83-1.88-14.2-6.93a15.16,15.16,0,0,1-.61-15.11,17,17,0,0,1,14.52-9.44c.49,0,1,0,1.44,0,11.63,0,15.4,8.43,16.28,11a25,25,0,0,1,1.19,5.54l.13,1.63-8.37,0,0-1.47a10.38,10.38,0,0,0-2.68-6.35A9.57,9.57,0,0,0,530,79.73l-.41,0-.32-.43-.11-2.54.87,0A12.44,12.44,0,0,1,538.49,80a12.73,12.73,0,0,1,3.41,7h2.18a22.25,22.25,0,0,0-.8-3.17c-.71-2.1-3.8-9-13.48-9l-1.22,0a14.06,14.06,0,0,0-12,7.77A12.14,12.14,0,0,0,517,94.75c2.65,4,7.3,4.78,12.21,5.64,3.61.62,7.32,1.27,10.44,3.21a16.25,16.25,0,0,1,7.71,12.46,15.84,15.84,0,0,1-5.25,13.27A19.05,19.05,0,0,1,529.07,134.42Z" transform="translate(-5.38 -4.62)"></path>
  <path class="cls-2" d="M391.56,93.87a16.45,16.45,0,0,1,2,6.33c.83,5.18-1.63,10.38-1.63,10.38l-2-1.2a17.68,17.68,0,0,0,1.3-8.81,20.58,20.58,0,0,0-2.4-6.63Z" transform="translate(-5.38 -4.62)"></path>
  <path class="cls-2" d="M386.47,96.32a16.67,16.67,0,0,1,1.29,3.57,14.66,14.66,0,0,1-.59,7.83l-1.64-1a12,12,0,0,0,.41-6.42,15.13,15.13,0,0,0-1.06-3Z" transform="translate(-5.38 -4.62)"></path>
  <path class="cls-1" d="M383.26,99.71A4.35,4.35,0,0,0,381.88,97L396.48,90l1.31,2.71Z" transform="translate(-5.38 -4.62)"></path>
  <circle class="cls-2" cx="370.93" cy="97.12" r="4.7"></circle>
  <path class="cls-2" d="M375.75,126.37c-3.25,0-8.86-1.82-12.58-4.28-5.56-3.67-8.24-10.29-8.24-10.29l2.81-1.1s2.41,5.79,7.09,8.88a26.1,26.1,0,0,0,8.26,3.46l2.27-19.89,3,.34Z" transform="translate(-5.38 -4.62)"></path>
  <path class="cls-2" d="M375.72,119.73a22.88,22.88,0,0,1-7.75-2.51c-4.59-2.54-7.16-7.68-7.16-7.68l2.19-.84a17.67,17.67,0,0,0,6.12,6.45,20.68,20.68,0,0,0,6.7,2.2Z" transform="translate(-5.38 -4.62)"></path>
  <path class="cls-2" d="M375.42,114a16.51,16.51,0,0,1-3.61-1.19,14.68,14.68,0,0,1-5.79-5.29l1.78-.68a12.06,12.06,0,0,0,4.8,4.28,14.61,14.61,0,0,0,3,1Z" transform="translate(-5.38 -4.62)"></path>
  <path class="cls-2" d="M375.9,110a11.49,11.49,0,0,1-2.45-.81,9.84,9.84,0,0,1-3.61-3.11l1.23-.47A8.62,8.62,0,0,0,374,108a10.39,10.39,0,0,0,2.06.69Z" transform="translate(-5.38 -4.62)"></path>
  <path class="cls-2" d="M356.21,89.32c1.65-2.82,6-6.81,9.94-8.83,6-3,13-2.08,13-2.08l-.43,3s-6.22-.77-11.22,1.78a26,26,0,0,0-7.09,5.47l16.17,11.79-1.77,2.44Z" transform="translate(-5.38 -4.62)"></path>
  <path class="cls-2" d="M362,92.57a23,23,0,0,1,6-5.5c4.47-2.74,10.22-2.43,10.22-2.43L377.89,87a17.6,17.6,0,0,0-8.64,2.14A20.49,20.49,0,0,0,364,93.84Z" transform="translate(-5.38 -4.62)"></path>
  <path class="cls-2" d="M367.13,95.13a17.27,17.27,0,0,1,2.81-2.54,14.65,14.65,0,0,1,7.47-2.43l-.29,1.89a12,12,0,0,0-6.1,2.06,14.63,14.63,0,0,0-2.37,2.12Z" transform="translate(-5.38 -4.62)"></path>
  <path class="cls-2" d="M370.4,97.55a11.41,11.41,0,0,1,1.92-1.74,9.94,9.94,0,0,1,4.48-1.6l-.2,1.31a8.42,8.42,0,0,0-3.55,1.33,9.67,9.67,0,0,0-1.62,1.45Z" transform="translate(-5.38 -4.62)"></path>
  <path class="cls-3" d="M56.85,109.12H32.13l-4.76,22.23h-22L17.24,75.67h22L35.1,95.09H59.82L64,75.67h22L74.09,131.35h-22Z" transform="translate(-5.38 -4.62)"></path>
  <path class="cls-3" d="M96.7,75.67h59.2L153,89.24h-37.2l-1.64,7.49h34.55l-2.88,13.56H111.29l-1.56,7.49h37.2L144,131.35H84.85Z" transform="translate(-5.38 -4.62)"></path>
  <path class="cls-3" d="M163.15,75.67h22l-8.66,40.71h34.08l-3.19,15H151.29Z" transform="translate(-5.38 -4.62)"></path>
  <path class="cls-3" d="M225.46,75.67h22L235.6,131.35h-22Z" transform="translate(-5.38 -4.62)"></path>
  <path class="cls-2" d="M243.54,34.24a84.66,84.66,0,0,0-10.8,4.82l-1.15.69-.69-1.48,2.5-1.15,7.4-3.41a.33.33,0,0,0,.16-.43.33.33,0,0,0-.43-.16l-6.84,3.15-4.2,1.94L212.7,46a.32.32,0,1,0,.27.58l1.73-.79a43.21,43.21,0,0,0,2.47,4.77l-2,1.71-.27.24a36.29,36.29,0,0,1-3.33,2.66,30.08,30.08,0,0,1-3.06,1.75L185,68.82l-4.21-9.15,0-.05a.7.7,0,0,0-.92-.3l-.31.14-4.26,2a.72.72,0,0,0-.35.89s0,0,0,0l4.32,9.37-14.95,7.58s-4.19,2.21-4,2.6,4.58-1.36,4.58-1.36l4.69-2,.54,1.19a.17.17,0,0,0,0,.14h0l-6.92,3.19c-.07,0-.68.43-.62.55l.12.26c.05.12.75-.08.82-.11l6.92-3.19h0a.17.17,0,0,0,.22.06l.67-.3a.17.17,0,0,0,.09-.21h0L178.27,77c.07,0,.68-.43.63-.55l-.12-.26c-.06-.12-.76.08-.83.11L171,79.48h0a.2.2,0,0,0-.12-.08l-.53-1.15,9.93-4.13,4.32,9.37a.72.72,0,0,0,1,.35l4.55-2.1a.71.71,0,0,0,.35-.94l-4.22-9.16,25-10.38a23.73,23.73,0,0,1,5.67-1.56l4.22-.64h0a41.73,41.73,0,0,0,2,5l-1.73.8a.33.33,0,0,0-.16.43.33.33,0,0,0,.43.16l12.73-5.86,3.19-1.47,11.91-5.49a.32.32,0,0,0,.16-.43.32.32,0,0,0-.43-.16l-9.9,4.56-.67-1.45a78.93,78.93,0,0,0,12-5.53c12.27-6.72,9.09-12.5,8.71-13.32S256.61,29.28,243.54,34.24ZM215.29,45.46l13.89-6.4,1.12-.51L231,40.1l-1.72,1a106.9,106.9,0,0,0-11.62,9h0A41.09,41.09,0,0,1,215.29,45.46Zm23.45,11.39-1.64.76L234,59.06l-10.23,4.71a41.09,41.09,0,0,1-2-4.81c4.05-.63,7.4-1.24,10.41-2l2.36-.6c1.2-.33,2.36-.68,3.51-1.07Z" transform="translate(-5.38 -4.62)"></path>
  <path class="cls-4" d="M228.82,41.81c-1.14,1-2.34,2.19-3.5,3.36-2.83,1.92-6.19,4.46-9.13,6.81l.64-.75A117.17,117.17,0,0,1,228.82,41.81Z" transform="translate(-5.38 -4.62)"></path>
  <path class="cls-4" d="M241.44,53.6a14.83,14.83,0,0,1-4,1.51.44.44,0,0,1-.39-.28l0-.28a.23.23,0,0,1,.15-.23A30,30,0,0,0,241,52.89a.22.22,0,0,1,.28.07l.23.31A.22.22,0,0,1,241.44,53.6Z" transform="translate(-5.38 -4.62)"></path>
  <path class="cls-4" d="M230.69,40.71a14.58,14.58,0,0,1,3.75-2.07.43.43,0,0,1,.43.22l.06.28a.22.22,0,0,1-.12.24,31.37,31.37,0,0,0-3.59,2,.23.23,0,0,1-.29,0l-.27-.28A.22.22,0,0,1,230.69,40.71Z" transform="translate(-5.38 -4.62)"></path>
  <path class="cls-4" d="M245.89,36.57c-1-1.28-.55-1.65,1.73-2.49a7.67,7.67,0,0,1,8.95,2.4.23.23,0,0,1-.09.35l-7.34,3.38s-.82.54-1.14-.54A8.45,8.45,0,0,0,245.89,36.57Z" transform="translate(-5.38 -4.62)"></path>
  <path class="cls-4" d="M235.61,38.17c2.29-1.62,8.36-3.7,10.33-4.35a.14.14,0,0,1,.14.24l-1.37,1.26a.42.42,0,0,1-.12.08c-2.56.85-7.54,3-8.41,3.42a.28.28,0,0,1-.25,0l-.32-.23A.23.23,0,0,1,235.61,38.17Z" transform="translate(-5.38 -4.62)"></path>
  <path class="cls-4" d="M246.69,40.34a.51.51,0,0,1-.26.65l-2.31,1.06a.5.5,0,0,1-.66-.25l-1.73-3.75a.5.5,0,0,1,.18-.64,10,10,0,0,1,2-.9.49.49,0,0,1,.55.17A17.28,17.28,0,0,1,246.69,40.34Z" transform="translate(-5.38 -4.62)"></path>
  <path class="cls-4" d="M249.35,47.31a.53.53,0,0,1-.23.54,10,10,0,0,1-2,.92.5.5,0,0,1-.61-.27l-1.73-3.76a.49.49,0,0,1,.25-.66l2.3-1.07a.51.51,0,0,1,.66.23A16.83,16.83,0,0,1,249.35,47.31Z" transform="translate(-5.38 -4.62)"></path>
  <path class="cls-4" d="M252.5,48c-1.78,1.08-7.31,4.34-10,5a.25.25,0,0,1-.3-.26l0-.39a.24.24,0,0,1,.14-.21c.86-.41,5.75-2.77,8.06-4.16a.34.34,0,0,1,.14,0l1.85-.22A.14.14,0,0,1,252.5,48Z" transform="translate(-5.38 -4.62)"></path>
  <path class="cls-4" d="M250.36,46.29a8.36,8.36,0,0,0-1-3.61c-.62-1,.32-1.23.32-1.23l7.34-3.38a.24.24,0,0,1,.33.17,7.67,7.67,0,0,1-4,8.36C251.26,47.78,250.71,47.87,250.36,46.29Z" transform="translate(-5.38 -4.62)"></path>
  <path class="cls-4" d="M259.35,39.86a8.38,8.38,0,0,1-2.69,5.07c-.43.37-.67.17-.67.17,2.09-1.55,2.23-4.41,2.56-5.1a.74.74,0,0,1,.45-.44A.29.29,0,0,1,259.35,39.86Z" transform="translate(-5.38 -4.62)"></path>
  <path class="cls-4" d="M256.62,34.38a.71.71,0,0,1-.63.06c-.74-.19-3-1.94-5.55-1.37,0,0,0-.31.58-.39a8.29,8.29,0,0,1,5.59,1.25A.28.28,0,0,1,256.62,34.38Z" transform="translate(-5.38 -4.62)"></path>
  <path class="cls-4" d="M232.06,56.71h0c-3.36.79-7.1,1.44-11.71,2.14h-1c3.7-.7,7.82-1.61,11.12-2.51l1.19-.1,2.07-.19,1.57-.19-1.23.34-2,.51" transform="translate(-5.38 -4.62)"></path>
  <path class="cls-2" d="M282.38,48l-12.25,0h0l-9.68,0H240a1.3,1.3,0,0,0-.63.15l-3.59,1.75a.28.28,0,0,0-.1.09l-4.06.1v-.24a.21.21,0,0,0-.23-.21h-.46a2.76,2.76,0,0,0-2.64-1.75,2.33,2.33,0,0,0-.53.06l-.23-.38a.23.23,0,0,0-.31-.08l-.2.13L224.9,44a.31.31,0,0,0,0-.28L223.17,41l0,0,0-.06-2.52-4,0-.06,0-.06-2.51-4h0l0-.06,0,0-2.52-4.05h0l0-.06,0-.06-2.55-4.1,0-.06h0l-2.58-4.15v0l-2.61-4.19,0-.06,0,0-2.58-4.14,0,0,0,0-2.3-3.72h0L201.2,5.6v0a1.57,1.57,0,0,0-2-.82.18.18,0,0,0-.05.25l8.5,14.79,0,.06h0L210.05,24l0,.05,0,0,2.36,4.11v0l0,.08,0,0,2.31,4h0l0,0,4.76,8.29,0,0,0,.05h0l.55,1a1.52,1.52,0,0,0,.44.47L224,44.46a.33.33,0,0,0,.13,0L226.23,48l-.2.12a.23.23,0,0,0-.08.31l.25.4a2.73,2.73,0,0,0-.6,1.79,2.67,2.67,0,0,0,.72,1.79l-.21.4a.23.23,0,0,0,.08.3l.21.11-2,3.57a.29.29,0,0,0-.22.16L218.08,68.4l0,.06h0l-4.61,8.63,0,.06h0l-4.65,8.69,0,.06v0l-2.31,4.31,0,.05,0,.06-2.05,3.82L203,96.5h0a1.58,1.58,0,0,0,.29,2.16.17.17,0,0,0,.23-.09l13.5-23.25h0l4.76-8.19v0l0-.06,2.34-4,0-.06v0l.59-1a1.36,1.36,0,0,0,.19-.61l.27-4a.18.18,0,0,0,0-.13l1.95-3.57.2.11a.22.22,0,0,0,.3-.09l.23-.41a3.59,3.59,0,0,0,.47,0A2.77,2.77,0,0,0,231,51.35h.45a.23.23,0,0,0,.22-.23v-.23l4.06-.1a.31.31,0,0,0,.25.11l13-.42h0l9.86-.31h0l9.89-.32h.11l4.86-.16h.12l4.34-.14,2.63-.08h0c.13,0,1.59,0,1.71-1.34C282.58,48,282.49,48,282.38,48Z" transform="translate(-5.38 -4.62)"></path>
  <path class="cls-4" d="M223.79,41.55l-.35-.56-.21.1.34.56ZM224.4,45l-.17-.28-.19.15.17.27Zm.93-.71-.16-.28-.19.15.16.27ZM249,50.47h0l-.77,0-.47.25.78,0Zm4.8-2.81H249.3a.51.51,0,0,1-.24.24h2.39l1-.11a.13.13,0,0,1,.16.11h.87Zm-28.27,9.91,0-.22v-.11L227.31,54l.16.06h.06a.46.46,0,0,0,.4-.24l.15-.27h.35a3,3,0,0,0,2.73-1.93h.28a.46.46,0,0,0,.45-.46l3.73-.09a.56.56,0,0,0,.35.1l9.2-.29.5-.25-9.71.31a.31.31,0,0,1-.25-.11l-4.06.1v.23a.23.23,0,0,1-.22.23H231a2.77,2.77,0,0,1-2.57,1.93,3.59,3.59,0,0,1-.47,0l-.23.41a.22.22,0,0,1-.3.09l-.2-.11-1.95,3.57a.18.18,0,0,1,0,.13l0,.28Zm-2.24,1.15.19-.35-.3,0-.19.36Zm2.19-.37,0-.32-.24,0,0,.33Zm-1.88,6.2.57-1-.37.17-.57,1Zm-1.67-3.3.41-.76-.11-.29-.41.76ZM223.67,58l.56-1.06a.29.29,0,0,1,.22-.16l2-3.57-.21-.11a.22.22,0,0,1-.08-.3l.21-.4a2.67,2.67,0,0,1-.72-1.8,2.72,2.72,0,0,1,.6-1.78l-.25-.4a.23.23,0,0,1,.08-.31l.2-.12-1.48-2.41-.19.13,1.34,2.2a.51.51,0,0,0-.2.28.47.47,0,0,0,.05.35l.16.26a3.07,3.07,0,0,0-.55,1.81,3,3,0,0,0,.68,1.82l-.14.26a.45.45,0,0,0,.18.61l-1.79,3.28a.59.59,0,0,0-.27.25L223.36,58Zm22.48-10.34H240a1.77,1.77,0,0,0-.73.16l-3.58,1.76-.09.07-3.74.09a.47.47,0,0,0-.47-.45h-.31a3,3,0,0,0-2.79-1.75h0l-.41,0-.14-.24a.44.44,0,0,0-.39-.22l-.19,0-.05,0-1.43-2.34-.17.17,1.52,2.5.2-.13a.23.23,0,0,1,.31.08l.23.38a2.33,2.33,0,0,1,.53-.06,2.76,2.76,0,0,1,2.64,1.75h.46a.21.21,0,0,1,.23.21V50l4.06-.1a.28.28,0,0,1,.1-.09L239.38,48a1.3,1.3,0,0,1,.63-.15h6.25Zm-24.81-5-.63-.42-.25.11.08.06.55.36Z" transform="translate(-5.38 -4.62)"></path>
</svg>
