<?xml version="1.0" encoding="UTF-8"?>
<svg xmlns="http://www.w3.org/2000/svg" id="Ebene_1" data-name="Ebene 1" viewBox="0 0 478.5 137.3">
  <defs>
    <style>.cls-1{fill:#ec6608;}.cls-2{fill:#bbbbbc;}.cls-3{fill:#222221;}.cls-4{fill:#fff;}</style>
  </defs>
  <title>HeliTours_logo</title>
  <path class="cls-1" d="M337.9,52.09a1,1,0,0,0-.24-.36,1.27,1.27,0,0,0-.25-.37,1.13,1.13,0,0,0-.24-.36v0c-.52,2.58-2.22,5.85-4.59,6.18h0l-.21,0c-3.92.24-7.78.63-11.49,1.15Q316.1,59,311.52,60a4.05,4.05,0,0,1,.71,2.7,141.7,141.7,0,0,1,22.7-3.2C337,59.36,339.29,53.46,337.9,52.09Z" transform="translate(-7.64 -2.29)"></path>
  <path class="cls-1" d="M295.63,64.55a111.32,111.32,0,0,0-29.24,16,3.41,3.41,0,0,1-1.54.68,2.7,2.7,0,0,0,.18.25,2.62,2.62,0,0,0,.24.37l.24.36a3.27,3.27,0,0,0,.25.36c.58,1,1.37,1.32,2.3.62a113.15,113.15,0,0,1,26.53-15C294.94,66.88,295.29,65.68,295.63,64.55Z" transform="translate(-7.64 -2.29)"></path>
  <path class="cls-1" d="M316.35,99.45a3.75,3.75,0,0,0-.24-.36l-.18-.27c-3.46,15.7-11.93,32.74-17.11,37.19a5.44,5.44,0,0,1-2.87,1.2,9.7,9.7,0,0,1-2.58,0h-.13l-.29-.05-.16,0-.46-.09-.07,0a12.63,12.63,0,0,1-2.38-.77,9.6,9.6,0,0,0,5.47,3.12h0l.47.08.29.06h.08a5.47,5.47,0,0,0,4.19-.78c5.08-4.38,13.55-21.76,16.77-37.27a2.25,2.25,0,0,0-.59-1.64A3.75,3.75,0,0,0,316.35,99.45Z" transform="translate(-7.64 -2.29)"></path>
  <path class="cls-1" d="M312.47,64.42a2.9,2.9,0,0,0-.25-.36,2.2,2.2,0,0,0-.21-.32c-.9,2.73-13.51,41.63-15,60.69.66-1.18,1.34-2.46,2-3.8,3.16-19,11.89-46.73,14.12-53.52a2.39,2.39,0,0,0-.41-2.33A3.75,3.75,0,0,0,312.47,64.42Z" transform="translate(-7.64 -2.29)"></path>
  <path class="cls-2" d="M334.57,47.82c-28.62-2-65.3,10.5-70.39,18.18-3.67,5.52-2,15.64,1.19,13.2a112.8,112.8,0,0,1,32.81-17.33c-5.76,18.91-16.18,59.77-11.55,69.47,1,2,3.52,3.49,6,4h0l.47.08.28.06h.08a5.42,5.42,0,0,0,4.19-.79c5.09-4.37,13.56-21.76,16.78-37.26.37-1.81-4.38-5.39-4.8-3.15-2.6,14.11-9,28.09-14.41,36.12l0-.23c-1.38-14.82,12.31-58.33,15.17-67.09.53-1.59-.45-2.89-2.36-3.68l-.6-.25a140.89,140.89,0,0,1,24.78-3.69C334.55,55.36,337.16,48,334.57,47.82Z" transform="translate(-7.64 -2.29)"></path>
  <path class="cls-1" d="M337.22,85a13.71,13.71,0,0,1-.49,3.75c0,.16.08.33.11.49a33.66,33.66,0,0,1-.52,8.87c.53-1,1.08-2.24,1.63-3.63a6.3,6.3,0,0,0-.09-1,4.46,4.46,0,0,0-.21-.76C338.72,89.19,338.12,86.48,337.22,85Z" transform="translate(-7.64 -2.29)"></path>
  <path class="cls-1" d="M328.18,85.81a12.52,12.52,0,0,0,.41-2.56,20.3,20.3,0,0,0-2.34,4A8.23,8.23,0,0,1,328.18,85.81Z" transform="translate(-7.64 -2.29)"></path>
  <path class="cls-1" d="M319.63,120.26a95.41,95.41,0,0,1,4.26-20.61,40.11,40.11,0,0,1-.34-4.73c0-.36,0-.7,0-1q-.79,2.28-1.59,5c-3,10.5-3.9,19-3.23,22.56A13.68,13.68,0,0,0,319.63,120.26Z" transform="translate(-7.64 -2.29)"></path>
  <path class="cls-1" d="M348.58,91.7a3.27,3.27,0,0,0-.25-.36,2.92,2.92,0,0,0-.24-.37L348,90.8c-1.5,7.44-7.58,18.76-12.87,19.5l-.16,0a10.32,10.32,0,0,1-1.35.06c-2.54,8.73-6.83,18.73-13.36,19.88l-.3.05A12,12,0,0,1,313,129c2.78,2.79,6.65,4.12,9.62,3.59,5.54-1,9.8-10.5,12.41-20a9.58,9.58,0,0,0,2.42.06c4.39-.45,10.64-11.87,11.72-19.14A2.48,2.48,0,0,0,348.58,91.7Z" transform="translate(-7.64 -2.29)"></path>
  <path class="cls-2" d="M342.37,86.75c-.79,2.34-4.2,15.1-8.83,17,1.42-6.44,2-12.16,1.64-14.25a5.62,5.62,0,0,0-.21-.76c1.08-3.57.45-6.29-.46-7.8-2-3.28-8.2-5.48-12.37-3.5-8.86,4.2-17.94,25.68-15.22,41.1,1.23,7,8.28,10.91,13,10.07,5.54-1,9.79-10.5,12.4-20a9.7,9.7,0,0,0,2.43,0c4.38-.45,10.64-11.86,11.72-19.13C346.8,87.46,343,84.9,342.37,86.75Zm-24.21,37.5c-4.86-5.2,5.21-42.4,11.06-43.43,1.23-.22,1.43,2.71.38,6.19-2.73,1.11-4.44,3.65-4.36,7.88.06,3.37.42,7.63,2.26,10.53C325,114.2,321.55,122.3,318.16,124.25Z" transform="translate(-7.64 -2.29)"></path>
  <path class="cls-1" d="M385.59,89.79a3.75,3.75,0,0,0-.24-.36c-.08-.13-.16-.25-.25-.37a2,2,0,0,0-.18-.26c-3.46,15.7-11.92,32.74-17.1,37.19a5.52,5.52,0,0,1-2.87,1.2,9.4,9.4,0,0,1-2.54,0h-.22c-.29,0-.58-.09-.86-.15l-.06,0-.07,0-.46-.12-.1,0-.08,0a2.77,2.77,0,0,1-.41-.12l-.09,0c-.25-.09-.5-.18-.73-.28a8.18,8.18,0,0,0,4,2.69l0,0,.38.1.52.14.08,0q.39.09.78.15h.1a5.38,5.38,0,0,0,4.14-.8c5.09-4.37,13.56-21.76,16.78-37.26A2.28,2.28,0,0,0,385.59,89.79Z" transform="translate(-7.64 -2.29)"></path>
  <path class="cls-1" d="M356.46,81.53a2,2,0,0,0-.25-.36,1.49,1.49,0,0,0-.2-.31c-2.77,10.68-6.16,25.84-7.36,35.23.89-1.8,1.75-3.76,2.59-5.84,1.66-8.84,4.05-19.1,6.05-26.7a1.41,1.41,0,0,0-.34-1.29,1.72,1.72,0,0,0-.25-.37A1.88,1.88,0,0,0,356.46,81.53Z" transform="translate(-7.64 -2.29)"></path>
  <path class="cls-1" d="M374.07,79a1.88,1.88,0,0,0-.24-.36,1.21,1.21,0,0,0-.21-.31c-2.81,10.84-6.25,26.3-7.41,35.65.78-1.41,1.55-2.93,2.32-4.52,1.67-9.21,4.25-20.34,6.37-28.44a1.36,1.36,0,0,0-.34-1.29,1.67,1.67,0,0,0-.24-.37A2,2,0,0,0,374.07,79Z" transform="translate(-7.64 -2.29)"></path>
  <path class="cls-1" d="M354.71,122.47a22.93,22.93,0,0,1-4.51,6,5.52,5.52,0,0,1-2.87,1.2,9.75,9.75,0,0,1-2.53,0l-.19,0h-.05a7.52,7.52,0,0,1-.85-.16h-.06l-.06,0-.45-.12-.11,0-.09,0-.41-.12-.08,0-.74-.28a8.25,8.25,0,0,0,4,2.69l0,0,.39.1.51.14.08,0a7.09,7.09,0,0,0,.78.14h.11a5.44,5.44,0,0,0,4.14-.8,24,24,0,0,0,4.67-6.54A7.16,7.16,0,0,1,354.71,122.47Z" transform="translate(-7.64 -2.29)"></path>
  <path class="cls-2" d="M378.7,84.3c-2.61,14.2-9,28.27-14.52,36.28h0c-.62-6.68,4.38-29.58,8-43.51.45-1.71-2.4-2.88-6-3.5-1.62-.28-3.73-.77-4.23,1.5-1.07,4.87-2.25,10.6-3.31,16.36-2.77,12.57-7.25,24.5-12.14,31.65h0c-.62-6.68,4.39-29.58,8-43.51.45-1.71-2.4-2.88-6-3.5-1.62-.28-3.73-.77-4.23,1.5-3.53,16-8.31,41.38-5.84,46.55a7.43,7.43,0,0,0,4.49,3.44l.05,0c.12,0,.26.07.39.11l.51.14.08,0a7.09,7.09,0,0,0,.78.14h.1a5.42,5.42,0,0,0,4.15-.79c1.95-1.68,4.19-5.29,6.39-10a11.87,11.87,0,0,0,.67,4.37,7.5,7.5,0,0,0,4.5,3.45.05.05,0,0,1,0,0l.39.1.52.14.07,0a7.09,7.09,0,0,0,.78.14h.11a5.44,5.44,0,0,0,4.14-.8c5.09-4.37,13.56-21.76,16.77-37.26C383.87,85.63,379.12,82.06,378.7,84.3Z" transform="translate(-7.64 -2.29)"></path>
  <path class="cls-1" d="M406.68,84.82a1.45,1.45,0,0,0-.25-.36,1.87,1.87,0,0,0-.2-.32c-3,11.66-5.92,25.28-7,33.87.84-1.72,1.68-3.59,2.5-5.57,1.55-8.41,3.8-18.1,5.76-25.6a1.39,1.39,0,0,0-.33-1.3,2.6,2.6,0,0,0-.25-.36A1.88,1.88,0,0,0,406.68,84.82Z" transform="translate(-7.64 -2.29)"></path>
  <path class="cls-1" d="M394.13,76.84a1.88,1.88,0,0,0-.24-.36,1.56,1.56,0,0,0-.25-.36,1,1,0,0,0-.08-.14,53.17,53.17,0,0,0-3.37,10c1.09-2.06,2.13-4.22,3.05-6.37l.06-.15,0,0a3.45,3.45,0,0,1,1.51-1.56,1.72,1.72,0,0,0-.23-.32,70.78,70.78,0,0,0-.49-.73Z" transform="translate(-7.64 -2.29)"></path>
  <path class="cls-1" d="M416.91,93.76l-.25-.36v0c-2.56,11.6-10.11,32.12-15.84,37a5.56,5.56,0,0,1-2.87,1.2h0a9.4,9.4,0,0,1-2.54,0h-.15l-.08,0c-.31,0-.58-.09-.85-.15h-.06l-.07,0-.44-.12-.11,0-.09,0a2.77,2.77,0,0,1-.41-.12l-.08,0c-.26-.08-.5-.18-.75-.28a8.21,8.21,0,0,0,4,2.69l0,0,.4.11c.17,0,.34.1.51.13l.07,0,.79.14h.1a5.44,5.44,0,0,0,4.14-.79c5.09-4.38,12.67-24,15.35-36.35A3.83,3.83,0,0,0,416.91,93.76Z" transform="translate(-7.64 -2.29)"></path>
  <path class="cls-1" d="M388.22,100.55a9.41,9.41,0,0,1-2.59,0h-.09l-.18,0-.84-.12,0-.07c-.23-.06-.46-.13-.68-.21a6.58,6.58,0,0,0,4.48,2.71h.2l.17,0c.13-.79.27-1.61.41-2.46A7.34,7.34,0,0,1,388.22,100.55Z" transform="translate(-7.64 -2.29)"></path>
  <path class="cls-2" d="M410.64,88.65c-2.57,12.93-8,28.35-13.47,36.36h0c-.62-6.67,4-28.22,7.65-42.15.45-1.71-2.4-2.88-6-3.5-1.45-.26-3.3-.67-4,.9l0,0a82.85,82.85,0,0,1-7.35,13.6h0a51.09,51.09,0,0,1,4.76-19c1.36-2.89-10.17-5-11.13-2.2-3.29,9.65-2.14,19.09-.62,22.28a6.59,6.59,0,0,0,5.15,3.81h0l.13,0h.06a5.22,5.22,0,0,0,4.19-.79,14.23,14.23,0,0,0,1.46-1.51c-2.36,12.94-4,25.88-2.29,29.52a7.49,7.49,0,0,0,4.5,3.44l0,0,.39.1.51.14.08,0,.78.15h.11a5.39,5.39,0,0,0,4.14-.8c5.09-4.37,12.67-24,15.35-36.35C415.71,89.79,411.09,86.41,410.64,88.65Z" transform="translate(-7.64 -2.29)"></path>
  <path class="cls-1" d="M485,115.26a16.15,16.15,0,0,1-.43,6.16c-.48,1.67-1.67,3.71-3.47,4a2.36,2.36,0,0,0,.23.35,68.22,68.22,0,0,1,.73,1.08c1.26,2.18,3,.06,3.57-1.94A16.11,16.11,0,0,0,485,115.26Z" transform="translate(-7.64 -2.29)"></path>
  <path class="cls-1" d="M430.65,79.62l-.12-.14a1.16,1.16,0,0,0-.13-.22,1.34,1.34,0,0,0-.11-.14.86.86,0,0,0-.1-.16,3.05,3.05,0,0,1-1.69,1.58c-4.31,1.67-6.56,3.24-3.29,15.28-1.61-8.21.29-10.9,5.36-12.87,1.23-.47,1-2,.57-2.61l-.12-.13a1.26,1.26,0,0,0-.13-.23.69.69,0,0,0-.11-.13A1.57,1.57,0,0,0,430.65,79.62Z" transform="translate(-7.64 -2.29)"></path>
  <path class="cls-1" d="M470.13,113.56c-8.94-7.62-21.29-9.28-30.88-7.94a39.39,39.39,0,0,0-10.7,3c2.15,12.64-.91,21.29-8.29,23.24a10.49,10.49,0,0,1-1.44.29,10.7,10.7,0,0,1-5.49-.6,8.71,8.71,0,0,0,9.18,2.66c6.78-1.79,9.16-10.59,6.84-22.57C440.81,105.91,457.77,105.72,470.13,113.56Z" transform="translate(-7.64 -2.29)"></path>
  <path class="cls-2" d="M465.49,95.9c-14.55-4.38-29.83-.54-40.18,6.23-.14-.47-.26-.93-.41-1.4-4.85-15.46-3.59-19.21,3-21.76,1.23-.47,1-2,.56-2.61-2.15-3-14.61-2.3-17.52,7.38-2,6.81,3,16,5.67,24.61-6.77,6.44-8.42,12.37-7.27,16.71,1,3.67,5.29,6.59,10.5,5.21,6.77-1.79,9.16-10.59,6.84-22.57,16-8,42.61-5.26,52.61,15,1.27,2.57,3.11.37,3.7-1.71C485.33,112.65,479,100,465.49,95.9Zm-51,29.76c-1.74-2.36-.48-7.14,3.48-11.65C418.56,118.41,417.89,122.45,414.46,125.66Z" transform="translate(-7.64 -2.29)"></path>
  <path class="cls-3" d="M59.08,106.78H34.37L29.62,129h-22L19.49,73.34h22L37.34,92.75H62l4.13-19.41h22L76.31,129h-22Z" transform="translate(-7.64 -2.29)"></path>
  <path class="cls-3" d="M98.91,73.34h59.16L155.19,86.9H118l-1.64,7.49H150.9L148,108H113.49l-1.56,7.48h37.18L146.22,129H87.06Z" transform="translate(-7.64 -2.29)"></path>
  <path class="cls-3" d="M165.32,73.34h22L178.65,114h34.06l-3.2,15h-56Z" transform="translate(-7.64 -2.29)"></path>
  <path class="cls-3" d="M227.59,73.34h22L237.73,129h-22Z" transform="translate(-7.64 -2.29)"></path>
  <path class="cls-1" d="M245.67,31.89a83,83,0,0,0-10.79,4.83l-1.16.69L233,35.93l2.5-1.16,7.39-3.4a.33.33,0,0,0,.16-.43.33.33,0,0,0-.43-.16l-6.83,3.15-4.2,1.93L214.84,43.6a.32.32,0,1,0,.28.58l1.73-.79a40.56,40.56,0,0,0,2.46,4.77l-2,1.7-.28.24a32.06,32.06,0,0,1-3.33,2.66,27.36,27.36,0,0,1-3,1.75L187.12,66.46l-4.21-9.15,0-.05A.71.71,0,0,0,182,57l-.3.14-4.26,2a.7.7,0,0,0-.35.89.08.08,0,0,0,0,0l4.31,9.37-14.93,7.57s-4.19,2.21-4,2.6S167,78.18,167,78.18l4.68-1.94.54,1.18a.24.24,0,0,0,0,.15h0l-6.91,3.18c-.07,0-.68.43-.63.55l.12.26c.06.12.76-.08.83-.12l6.91-3.18h0a.19.19,0,0,0,.22.07l.67-.31a.17.17,0,0,0,.09-.21h0l6.92-3.19c.07,0,.68-.43.62-.55l-.12-.26c-.05-.12-.75.09-.82.12l-6.92,3.18h0a.18.18,0,0,0-.12-.09l-.53-1.15,9.93-4.13,4.31,9.37a.72.72,0,0,0,1,.35l4.55-2.1a.71.71,0,0,0,.35-.94l-4.22-9.15,25-10.37A23.17,23.17,0,0,1,219,57.34l4.21-.63h0a43.15,43.15,0,0,0,2,5l-1.73.8a.32.32,0,0,0,.27.59l12.72-5.86,3.19-1.47,11.91-5.49a.33.33,0,0,0,.16-.43.32.32,0,0,0-.43-.15l-9.9,4.56-.67-1.46a78.79,78.79,0,0,0,12-5.52c12.26-6.72,9.08-12.5,8.7-13.32S258.74,26.94,245.67,31.89ZM217.44,43.12l13.88-6.4,1.11-.51.71,1.54-1.72,1a107.88,107.88,0,0,0-11.61,9h0A40.43,40.43,0,0,1,217.44,43.12ZM240.87,54.5l-1.64.75-3.14,1.45-10.23,4.71a45.33,45.33,0,0,1-2-4.81c4-.63,7.4-1.23,10.41-2l2.35-.59c1.21-.33,2.37-.68,3.52-1.07Z" transform="translate(-7.64 -2.29)"></path>
  <path class="cls-4" d="M231,39.46c-1.14,1-2.34,2.19-3.5,3.36-2.83,1.92-6.19,4.46-9.13,6.81l.65-.76A117.23,117.23,0,0,1,231,39.46Z" transform="translate(-7.64 -2.29)"></path>
  <path class="cls-4" d="M243.57,51.24a14.5,14.5,0,0,1-4,1.51.41.41,0,0,1-.39-.27l0-.29a.22.22,0,0,1,.15-.23,28,28,0,0,0,3.83-1.43.24.24,0,0,1,.28.07l.23.32A.21.21,0,0,1,243.57,51.24Z" transform="translate(-7.64 -2.29)"></path>
  <path class="cls-4" d="M232.82,38.36a14.87,14.87,0,0,1,3.76-2.07.43.43,0,0,1,.42.22l.06.28A.22.22,0,0,1,237,37a29.27,29.27,0,0,0-3.59,2,.23.23,0,0,1-.29,0l-.27-.28A.23.23,0,0,1,232.82,38.36Z" transform="translate(-7.64 -2.29)"></path>
  <path class="cls-4" d="M248,34.23c-1-1.28-.55-1.65,1.73-2.5a7.67,7.67,0,0,1,8.94,2.4.24.24,0,0,1-.09.36l-7.33,3.37s-.82.54-1.14-.54A8.38,8.38,0,0,0,248,34.23Z" transform="translate(-7.64 -2.29)"></path>
  <path class="cls-4" d="M237.74,35.82c2.29-1.61,8.36-3.69,10.33-4.35a.15.15,0,0,1,.14.25L246.84,33a.37.37,0,0,1-.12.07c-2.56.86-7.53,3-8.41,3.42a.23.23,0,0,1-.25,0l-.32-.22A.25.25,0,0,1,237.74,35.82Z" transform="translate(-7.64 -2.29)"></path>
  <path class="cls-4" d="M248.81,38a.5.5,0,0,1-.25.65l-2.31,1.06a.49.49,0,0,1-.66-.25l-1.73-3.75a.5.5,0,0,1,.19-.64,9.67,9.67,0,0,1,2-.9.51.51,0,0,1,.55.18A16.43,16.43,0,0,1,248.81,38Z" transform="translate(-7.64 -2.29)"></path>
  <path class="cls-4" d="M251.48,45a.53.53,0,0,1-.23.54,10,10,0,0,1-2,.92.5.5,0,0,1-.61-.27l-1.73-3.76a.49.49,0,0,1,.25-.66l2.3-1.07a.51.51,0,0,1,.66.23A17.31,17.31,0,0,1,251.48,45Z" transform="translate(-7.64 -2.29)"></path>
  <path class="cls-4" d="M254.62,45.69c-1.78,1.08-7.3,4.34-10,5a.25.25,0,0,1-.3-.26l0-.39a.26.26,0,0,1,.14-.21c.86-.41,5.75-2.77,8.06-4.16a.24.24,0,0,1,.14-.05l1.85-.22A.14.14,0,0,1,254.62,45.69Z" transform="translate(-7.64 -2.29)"></path>
  <path class="cls-4" d="M252.49,43.94a8.28,8.28,0,0,0-1-3.61c-.61-.94.33-1.22.33-1.22l7.34-3.38a.23.23,0,0,1,.32.16,7.66,7.66,0,0,1-4,8.36C253.39,45.43,252.83,45.51,252.49,43.94Z" transform="translate(-7.64 -2.29)"></path>
  <path class="cls-4" d="M261.47,37.51a8.43,8.43,0,0,1-2.68,5.07c-.43.37-.68.17-.68.17,2.09-1.55,2.23-4.41,2.57-5.1.14-.29.3-.4.45-.43A.28.28,0,0,1,261.47,37.51Z" transform="translate(-7.64 -2.29)"></path>
  <path class="cls-4" d="M258.74,32a.73.73,0,0,1-.62.06c-.75-.2-3-2-5.55-1.37,0,0,0-.31.58-.4a8.42,8.42,0,0,1,5.59,1.25A.29.29,0,0,1,258.74,32Z" transform="translate(-7.64 -2.29)"></path>
  <path class="cls-4" d="M234.2,54.36h0c-3.35.8-7.09,1.44-11.7,2.15h-1c3.69-.71,7.81-1.61,11.1-2.52l1.19-.09,2.08-.2c.53,0,1.06-.11,1.56-.18l-1.22.34-2,.5" transform="translate(-7.64 -2.29)"></path>
  <path class="cls-1" d="M284.49,45.62l-12.24,0h-.05l-9.67,0H242.14a1.49,1.49,0,0,0-.63.14l-3.58,1.76a.18.18,0,0,0-.1.09l-4.07.09v-.23a.22.22,0,0,0-.23-.21h-.46a2.77,2.77,0,0,0-2.64-1.75,2.33,2.33,0,0,0-.53.06l-.23-.38a.23.23,0,0,0-.31-.08l-.2.13L227,41.67a.29.29,0,0,0,0-.27l-1.7-2.74,0,0,0-.06-2.51-4,0-.06,0,0-2.51-4.05h0l0-.06,0-.06-2.51-4h0l0-.06,0-.06L215,22l0-.06h0l-2.58-4.15,0,0-2.6-4.19,0,0,0,0-2.58-4.14,0,0v0l-2.31-3.72h0l-1.39-2.23v0a1.56,1.56,0,0,0-2-.82c-.08,0-.1.14,0,.24l8.49,14.79,0,.06h0l2.39,4.16,0,0,0,0,2.36,4.11v0l0,.08v0L217,30h0v0l4.76,8.28,0,.05,0,.06h0l.56,1a1.39,1.39,0,0,0,.43.47l3.31,2.23a.33.33,0,0,0,.13,0l2.12,3.47-.2.12a.23.23,0,0,0-.08.31l.25.4a2.76,2.76,0,0,0,.12,3.58l-.22.39a.25.25,0,0,0,.09.31l.21.11-1.95,3.56a.31.31,0,0,0-.22.16L220.23,66l0,.06h0l-4.62,8.62,0,.06h0l-4.65,8.68,0,.06v0l-2.3,4.3,0,.06,0,.06-2,3.82-1.24,2.32v0a1.57,1.57,0,0,0,.29,2.15.18.18,0,0,0,.24-.09L219.2,73h0l4.76-8.2v0l0-.06,2.33-4,0-.06v0l.59-1a1.36,1.36,0,0,0,.19-.61l.27-4a.19.19,0,0,0,0-.13l1.94-3.57.21.11a.22.22,0,0,0,.3-.08l.22-.41a3.87,3.87,0,0,0,.48,0A2.78,2.78,0,0,0,233.13,49h.45a.22.22,0,0,0,.21-.23v-.23l4.06-.1a.3.3,0,0,0,.25.11l13-.42h0l9.85-.31h0l9.88-.32H271l4.87-.16H276l4.34-.14,2.63-.09h0c.13,0,1.59,0,1.71-1.33C284.69,45.69,284.6,45.62,284.49,45.62Z" transform="translate(-7.64 -2.29)"></path>
  <path class="cls-4" d="M225.93,39.2l-.34-.55-.22.1.35.55Zm.61,3.43-.17-.28-.18.15.16.27Zm.93-.71-.16-.28-.19.15.16.27Zm23.64,6.2h0l-.76,0-.47.25.77,0Zm4.79-2.81h-4.47a.58.58,0,0,1-.25.24h2.39l1-.11a.14.14,0,0,1,.16.11h.87Zm-28.25,9.9,0-.21v-.11l1.79-3.29.16.06h.06a.48.48,0,0,0,.4-.24l.14-.27h.36a3,3,0,0,0,2.73-1.93h.28a.47.47,0,0,0,.45-.47l3.72-.09a.61.61,0,0,0,.35.11l9.2-.29.5-.25-9.7.31a.3.3,0,0,1-.25-.11l-4.06.1v.23a.22.22,0,0,1-.21.23h-.45a2.78,2.78,0,0,1-2.57,1.93,3.87,3.87,0,0,1-.48,0l-.22.41a.22.22,0,0,1-.3.08l-.21-.11-1.94,3.57a.19.19,0,0,1,0,.13l0,.28Zm-2.24,1.15.19-.35-.29.05-.2.35ZM227.6,56l0-.33-.24,0,0,.33Zm-1.88,6.19.57-1-.37.17-.57,1Zm-1.66-3.3.4-.76-.11-.29-.41.76Zm1.75-3.27.56-1.06a.31.31,0,0,1,.22-.16l1.95-3.56-.21-.11a.25.25,0,0,1-.09-.31l.22-.39a2.76,2.76,0,0,1-.12-3.58l-.25-.4a.23.23,0,0,1,.08-.31l.2-.12-1.47-2.41-.2.13,1.34,2.2a.47.47,0,0,0-.15.63l.16.26a3.07,3.07,0,0,0-.55,1.81,3,3,0,0,0,.68,1.82l-.14.25a.46.46,0,0,0,.18.62l-1.79,3.27a.65.65,0,0,0-.27.25l-.66,1.23Zm22.47-10.33h-6.15a1.84,1.84,0,0,0-.73.16l-3.57,1.76-.09.06-3.75.09a.44.44,0,0,0-.46-.44h-.31a3,3,0,0,0-2.8-1.75h0a2.85,2.85,0,0,0-.41,0l-.14-.24a.47.47,0,0,0-.39-.22l-.19,0,0,0-1.43-2.34-.17.17,1.52,2.5.2-.13a.23.23,0,0,1,.31.08l.23.38a2.33,2.33,0,0,1,.53-.06,2.77,2.77,0,0,1,2.64,1.75h.46a.22.22,0,0,1,.23.21v.23l4.07-.09a.18.18,0,0,1,.1-.09l3.58-1.76a1.49,1.49,0,0,1,.63-.14h6.24Zm-24.8-5-.63-.42-.25.11.08.06.55.37Z" transform="translate(-7.64 -2.29)"></path>
</svg>
