<?xml version="1.0" encoding="UTF-8"?>
<svg xmlns="http://www.w3.org/2000/svg" id="Ebene_1" data-name="Ebene 1" viewBox="0 0 461.27 132.32">
  <polygon points="276.1 78.33 279.3 81.93 280.98 81.93 277.78 78.33 276.1 78.33" fill="#ec6608"></polygon>
  <polygon points="266.67 83.42 269.87 87.02 270.18 85.48 266.98 81.87 266.67 83.42" fill="#ec6608"></polygon>
  <polygon points="267.31 80.21 270.51 83.81 270.81 82.27 267.62 78.66 267.31 80.21" fill="#ec6608"></polygon>
  <polygon points="272.61 78.33 275.81 81.93 277.49 81.93 274.29 78.33 272.61 78.33" fill="#ec6608"></polygon>
  <polygon points="269.12 78.33 272.32 81.93 274 81.93 270.81 78.33 269.12 78.33" fill="#ec6608"></polygon>
  <polygon points="269.54 88.69 266.34 85.08 266.03 86.63 269.23 90.23 269.54 88.69" fill="#ec6608"></polygon>
  <polygon points="268.9 91.9 265.7 88.29 265.39 89.84 268.59 93.44 268.9 91.9" fill="#ec6608"></polygon>
  <polygon points="289.74 72.33 289.46 73.73 286.26 70.13 286.54 68.73 289.74 72.33" fill="#ec6608"></polygon>
  <polygon points="284.99 76.55 288.18 80.15 288.49 78.6 285.29 75 284.99 76.55" fill="#ec6608"></polygon>
  <polygon points="279.59 78.33 282.78 81.93 284.46 81.93 281.27 78.33 279.59 78.33" fill="#ec6608"></polygon>
  <polygon points="284.63 78.33 283.07 78.33 286.27 81.93 287.83 81.93 287.85 81.81 284.65 78.21 284.63 78.33" fill="#ec6608"></polygon>
  <polygon points="285.62 73.34 288.82 76.94 289.13 75.39 285.93 71.79 285.62 73.34" fill="#ec6608"></polygon>
  <polygon points="275.4 97.19 278.6 100.79 278.91 99.25 275.71 95.64 275.4 97.19" fill="#ec6608"></polygon>
  <polygon points="263.48 119.12 263.79 117.58 260.59 113.97 260.28 115.52 263.48 119.12 263.48 119.12" fill="#ec6608"></polygon>
  <polygon points="264.43 114.37 261.23 110.77 260.92 112.31 264.12 115.91 264.43 114.37" fill="#ec6608"></polygon>
  <polygon points="267.07 103.52 270.27 107.12 271.95 107.12 268.75 103.52 267.07 103.52" fill="#ec6608"></polygon>
  <polygon points="263.58 103.52 266.78 107.12 268.46 107.12 265.27 103.52 263.58 103.52" fill="#ec6608"></polygon>
  <polygon points="274.14 103.52 274.05 103.52 277.25 107.12 277.34 107.12 277.63 105.67 274.44 102.06 274.14 103.52" fill="#ec6608"></polygon>
  <polygon points="265.07 111.16 261.87 107.56 261.56 109.1 264.76 112.7 265.07 111.16" fill="#ec6608"></polygon>
  <polygon points="274.77 100.4 277.96 104 278.27 102.46 275.07 98.85 274.77 100.4" fill="#ec6608"></polygon>
  <polygon points="265.7 107.95 262.51 104.34 262.2 105.89 265.4 109.49 265.7 107.95" fill="#ec6608"></polygon>
  <polygon points="270.56 103.52 273.76 107.12 275.44 107.12 272.24 103.52 270.56 103.52" fill="#ec6608"></polygon>
  <polygon points="275.41 124.7 278.6 128.3 278.91 126.75 275.71 123.15 275.41 124.7" fill="#ec6608"></polygon>
  <polygon points="274.85 127.52 274.77 127.91 277.96 131.51 278.04 131.12 278.27 129.96 275.07 126.36 274.85 127.52" fill="#ec6608"></polygon>
  <polygon points="248.53 128.72 247.58 128.72 250.78 132.32 251.73 132.32 252.46 132.32 249.26 128.72 248.53 128.72" fill="#ec6608"></polygon>
  <polygon points="276.28 120.32 276.05 121.49 279.24 125.09 279.47 123.92 279.55 123.54 276.35 119.94 276.28 120.32" fill="#ec6608"></polygon>
  <polygon points="258.05 128.72 261.24 132.32 262.93 132.32 259.73 128.72 258.05 128.72" fill="#ec6608"></polygon>
  <polygon points="254.56 128.72 257.76 132.32 259.44 132.32 256.24 128.72 254.56 128.72" fill="#ec6608"></polygon>
  <polygon points="251.07 128.72 254.27 132.32 255.95 132.32 252.75 128.72 251.07 128.72" fill="#ec6608"></polygon>
  <polygon points="261.54 128.72 264.73 132.32 266.41 132.32 263.22 128.72 261.54 128.72" fill="#ec6608"></polygon>
  <polygon points="265.02 128.72 268.22 132.32 269.9 132.32 266.7 128.72 265.02 128.72" fill="#ec6608"></polygon>
  <polygon points="268.51 128.72 271.71 132.32 273.39 132.32 270.19 128.72 268.51 128.72" fill="#ec6608"></polygon>
  <polygon points="273.3 128.72 272 128.72 275.19 132.32 276.5 132.32 276.88 132.32 273.68 128.72 273.3 128.72" fill="#ec6608"></polygon>
  <path d="M289.47,70.3H263.4l-.24,1.2L251.7,129.1l-.24,1.2h27.38l.24-1.2,1.43-7.2.24-1.2H263.8l3.11-15.6h11.47l.24-1.2,1.43-7.2.24-1.2H268.82l3.1-15.6h16.95l.24-1.2,1.43-7.2.24-1.2Zm-4,4.57-.19.95-.41.09H268.35l-4.69,23.58H275v.57l-.2,1-.41.09H263.33l-4.69,23.58h16.85v.57l-.19,1-.42.09H256.72l0-.58L267,74.38l.42-.09h18.15Z" transform="translate(-6.37 -3.98)" fill="#bdbcbd"></path>
  <polygon points="311.38 97.29 314.57 100.89 315.06 99.55 311.87 95.94 311.38 97.29" fill="#ec6608"></polygon>
  <polygon points="301.27 125.2 304.47 128.8 304.96 127.46 301.76 123.86 301.27 125.2" fill="#ec6608"></polygon>
  <polygon points="305.31 114.04 308.51 117.64 309 116.29 305.8 112.69 305.31 114.04" fill="#ec6608"></polygon>
  <polygon points="300.51 127.3 300.26 127.99 303.46 131.59 303.71 130.9 303.95 130.25 300.75 126.65 300.51 127.3" fill="#ec6608"></polygon>
  <polygon points="313.4 91.71 316.6 95.31 317.08 93.96 313.89 90.36 313.4 91.71" fill="#ec6608"></polygon>
  <polygon points="291.2 128.32 290.09 128.32 293.29 131.92 294.4 131.92 294.97 131.92 291.77 128.32 291.2 128.32" fill="#ec6608"></polygon>
  <polygon points="312.39 94.5 315.58 98.1 316.07 96.75 312.88 93.15 312.39 94.5" fill="#ec6608"></polygon>
  <polygon points="310.37 100.08 313.56 103.68 314.05 102.34 310.85 98.74 310.37 100.08" fill="#ec6608"></polygon>
  <polygon points="309.36 102.87 312.55 106.47 313.04 105.13 309.84 101.53 309.36 102.87" fill="#ec6608"></polygon>
  <polygon points="302.28 122.41 305.48 126.01 305.97 124.67 302.77 121.06 302.28 122.41" fill="#ec6608"></polygon>
  <polygon points="304.3 116.83 307.5 120.43 307.99 119.08 304.79 115.48 304.3 116.83" fill="#ec6608"></polygon>
  <polygon points="303.29 119.62 306.49 123.22 306.98 121.88 303.78 118.27 303.29 119.62" fill="#ec6608"></polygon>
  <polygon points="307.34 108.45 310.53 112.06 311.02 110.71 307.82 107.11 307.34 108.45" fill="#ec6608"></polygon>
  <polygon points="308.35 105.66 311.54 109.27 312.03 107.92 308.83 104.32 308.35 105.66" fill="#ec6608"></polygon>
  <polygon points="314.41 88.92 317.61 92.52 318.09 91.17 314.9 87.57 314.41 88.92" fill="#ec6608"></polygon>
  <polygon points="317.44 80.54 320.64 84.14 321.12 82.8 317.93 79.2 317.44 80.54" fill="#ec6608"></polygon>
  <polygon points="288.04 128.32 288.03 128.35 288.07 128.35 288.07 128.39 288.1 128.39 288.1 128.43 288.13 128.43 288.13 128.46 288.16 128.46 288.16 128.5 288.19 128.5 288.19 128.53 288.23 128.53 288.22 128.57 288.26 128.57 288.26 128.6 288.29 128.6 288.29 128.64 288.32 128.64 288.32 128.68 288.35 128.68 288.35 128.71 288.38 128.71 288.38 128.75 288.42 128.75 288.41 128.78 288.45 128.78 288.45 128.82 288.48 128.82 288.48 128.85 288.51 128.85 288.51 128.89 288.54 128.89 288.54 128.92 288.57 128.92 288.57 128.96 288.61 128.96 288.6 129 288.64 129 288.64 129.03 288.67 129.03 288.67 129.07 288.7 129.07 288.7 129.1 288.73 129.1 288.73 129.14 288.76 129.14 288.76 129.17 288.8 129.17 288.79 129.21 288.83 129.21 288.83 129.25 288.86 129.25 288.86 129.28 288.89 129.28 288.89 129.32 288.92 129.32 288.92 129.35 288.95 129.35 288.95 129.39 288.99 129.39 288.98 129.42 289.02 129.42 289.02 129.46 289.05 129.46 289.05 129.5 289.08 129.5 289.08 129.53 289.11 129.53 289.11 129.57 289.14 129.57 289.14 129.6 289.18 129.6 289.17 129.64 289.21 129.64 289.21 129.67 289.24 129.67 289.24 129.71 289.27 129.71 289.27 129.74 289.3 129.74 289.3 129.78 289.33 129.78 289.33 129.82 289.37 129.82 289.36 129.85 289.4 129.85 289.39 129.89 289.43 129.89 289.43 129.92 289.46 129.92 289.46 129.96 289.49 129.96 289.49 129.99 289.52 129.99 289.52 130.03 289.56 130.03 289.55 130.06 289.59 130.06 289.58 130.1 289.62 130.1 289.62 130.14 289.65 130.14 289.65 130.17 289.68 130.17 289.68 130.21 289.71 130.21 289.71 130.24 289.75 130.24 289.74 130.28 289.78 130.28 289.77 130.31 289.81 130.31 289.81 130.35 289.84 130.35 289.84 130.39 289.87 130.39 289.87 130.42 289.9 130.42 289.9 130.46 289.94 130.46 289.93 130.49 289.97 130.49 289.96 130.53 290 130.53 290 130.56 290.03 130.56 290.03 130.6 290.06 130.6 290.06 130.64 290.09 130.64 290.09 130.67 290.13 130.67 290.12 130.71 290.16 130.71 290.15 130.74 290.19 130.74 290.19 130.78 290.22 130.78 290.22 130.81 290.25 130.81 290.25 130.85 290.28 130.85 290.28 130.89 290.31 130.89 290.31 130.92 290.35 130.92 290.35 130.96 290.38 130.96 290.38 130.99 290.41 130.99 290.41 131.03 290.44 131.03 290.44 131.06 290.47 131.06 290.47 131.1 290.5 131.1 290.5 131.13 290.54 131.13 290.54 131.17 290.57 131.17 290.57 131.21 290.6 131.21 290.6 131.24 290.63 131.24 290.63 131.28 290.66 131.28 290.66 131.31 290.69 131.31 290.69 131.35 290.73 131.35 290.73 131.38 290.76 131.38 290.76 131.42 290.79 131.42 290.79 131.46 290.82 131.46 290.82 131.49 290.85 131.49 290.85 131.53 290.88 131.53 290.88 131.56 290.92 131.56 290.92 131.6 290.95 131.6 290.95 131.63 290.98 131.63 290.98 131.67 291.01 131.67 291.01 131.71 291.04 131.71 291.04 131.74 291.07 131.74 291.07 131.78 291.11 131.78 291.11 131.81 291.14 131.81 291.14 131.85 291.17 131.85 291.17 131.88 291.2 131.88 291.2 131.92 291.48 131.92 288.28 128.32 288.04 128.32" fill="#ec6608"></polygon>
  <polygon points="293.58 128.32 296.77 131.92 298.45 131.92 295.26 128.32 293.58 128.32" fill="#ec6608"></polygon>
  <polygon points="297.06 128.32 300.26 131.92 301.94 131.92 298.75 128.32 297.06 128.32" fill="#ec6608"></polygon>
  <polygon points="319.46 74.96 322.66 78.56 323.14 77.22 319.95 73.62 319.46 74.96" fill="#ec6608"></polygon>
  <polygon points="318.45 77.75 321.65 81.35 322.13 80.01 318.94 76.41 318.45 77.75" fill="#ec6608"></polygon>
  <polygon points="325.06 71.93 325.01 71.93 325.03 71.89 324.98 71.89 325 71.86 324.95 71.86 324.96 71.82 324.92 71.82 324.93 71.78 324.89 71.78 324.9 71.75 324.86 71.75 324.87 71.71 324.83 71.71 324.84 71.68 324.79 71.68 324.81 71.64 324.76 71.64 324.77 71.61 324.73 71.61 324.74 71.57 324.7 71.57 324.71 71.54 324.67 71.54 324.68 71.5 324.64 71.5 324.65 71.46 324.6 71.46 324.62 71.43 324.57 71.43 324.58 71.39 324.54 71.39 324.55 71.36 324.51 71.36 324.52 71.32 324.48 71.32 324.49 71.29 324.45 71.29 324.46 71.25 324.41 71.25 324.43 71.22 324.38 71.22 324.39 71.18 324.35 71.18 324.36 71.14 324.32 71.14 324.33 71.11 324.29 71.11 324.3 71.07 324.26 71.07 324.27 71.04 324.22 71.04 324.24 71 324.19 71 324.2 70.97 324.16 70.97 324.17 70.93 324.13 70.93 324.14 70.89 324.1 70.89 324.11 70.86 324.07 70.86 324.08 70.82 324.03 70.82 324.05 70.79 324 70.79 324.01 70.75 323.97 70.75 323.98 70.72 323.94 70.72 323.95 70.68 323.91 70.68 323.92 70.64 323.88 70.64 323.89 70.61 323.84 70.61 323.86 70.57 323.81 70.57 323.83 70.54 323.78 70.54 323.79 70.5 323.75 70.5 323.76 70.47 323.72 70.47 323.73 70.43 323.69 70.43 323.7 70.39 323.65 70.39 323.67 70.36 323.62 70.36 323.64 70.32 323.59 70.32 323.6 70.29 323.56 70.29 323.57 70.25 323.53 70.25 323.54 70.22 323.5 70.22 323.51 70.18 323.46 70.18 323.48 70.14 323.43 70.14 323.45 70.11 323.4 70.11 323.41 70.07 323.37 70.07 323.38 70.04 323.34 70.04 323.35 70 323.31 70 323.32 69.97 323.27 69.97 323.29 69.93 323.24 69.93 323.26 69.89 323.21 69.89 323.22 69.86 323.18 69.86 323.19 69.82 323.15 69.82 323.16 69.79 323.12 69.79 323.13 69.75 323.08 69.75 323.1 69.72 323.05 69.72 323.07 69.68 323.02 69.68 323.03 69.65 322.99 69.65 323 69.61 322.96 69.61 322.97 69.57 322.93 69.57 322.94 69.54 322.89 69.54 322.91 69.5 322.86 69.5 322.88 69.47 322.83 69.47 322.84 69.43 322.8 69.43 322.81 69.4 322.77 69.4 322.78 69.36 322.74 69.36 322.75 69.33 322.7 69.33 322.72 69.29 322.67 69.29 322.69 69.25 322.64 69.25 322.65 69.22 322.61 69.22 322.62 69.18 322.58 69.18 322.59 69.15 322.55 69.15 322.56 69.11 322.51 69.11 322.53 69.08 322.48 69.08 322.5 69.04 322.45 69.04 322.46 69 322.42 69 322.43 68.97 322.39 68.97 322.4 68.93 322.36 68.93 322.37 68.9 322.32 68.9 322.34 68.86 322.29 68.86 322.31 68.83 322.26 68.83 322.27 68.79 322.23 68.79 322.24 68.75 322.2 68.75 322.21 68.72 322.17 68.72 322.18 68.68 322.13 68.68 322.15 68.65 322.1 68.65 322.12 68.61 322.07 68.61 322.08 68.58 322.04 68.58 322.05 68.54 322.01 68.54 322.02 68.5 321.98 68.5 321.99 68.47 321.94 68.47 321.96 68.43 321.91 68.43 321.93 68.4 321.88 68.4 321.89 68.36 321.85 68.36 321.86 68.33 321.48 69.38 324.68 72.98 325.06 71.93" fill="#ec6608"></polygon>
  <polygon points="306.32 111.25 309.52 114.85 310.01 113.5 306.81 109.9 306.32 111.25" fill="#ec6608"></polygon>
  <polygon points="320.47 72.17 323.67 75.77 324.16 74.43 320.96 70.83 320.47 72.17" fill="#ec6608"></polygon>
  <polygon points="315.42 86.13 318.62 89.73 319.1 88.38 315.91 84.78 315.42 86.13" fill="#ec6608"></polygon>
  <polygon points="316.43 83.33 319.63 86.94 320.11 85.59 316.92 81.99 316.43 83.33" fill="#ec6608"></polygon>
  <polygon points="303.77 72.95 303.81 71.93 303.78 71.93 303.78 71.89 303.75 71.89 303.75 71.86 303.71 71.86 303.71 71.82 303.68 71.82 303.68 71.78 303.65 71.78 303.65 71.75 303.62 71.75 303.62 71.71 303.59 71.71 303.59 71.68 303.56 71.68 303.56 71.64 303.52 71.64 303.52 71.61 303.49 71.61 303.49 71.57 303.46 71.57 303.46 71.54 303.43 71.54 303.43 71.5 303.4 71.5 303.4 71.46 303.37 71.46 303.37 71.43 303.33 71.43 303.33 71.39 303.3 71.39 303.3 71.36 303.27 71.36 303.27 71.32 303.24 71.32 303.24 71.29 303.21 71.29 303.21 71.25 303.18 71.25 303.18 71.22 303.14 71.22 303.14 71.18 303.11 71.18 303.11 71.14 303.08 71.14 303.08 71.11 303.05 71.11 303.05 71.07 303.02 71.07 303.02 71.04 302.99 71.04 302.99 71 302.95 71 302.96 70.97 302.92 70.97 302.92 70.93 302.89 70.93 302.89 70.89 302.86 70.89 302.86 70.86 302.83 70.86 302.83 70.82 302.8 70.82 302.8 70.79 302.76 70.79 302.77 70.75 302.73 70.75 302.73 70.72 302.7 70.72 302.7 70.68 302.67 70.68 302.67 70.64 302.64 70.64 302.64 70.61 302.61 70.61 302.61 70.57 302.57 70.57 302.58 70.54 302.54 70.54 302.54 70.5 302.51 70.5 302.51 70.47 302.48 70.47 302.48 70.43 302.45 70.43 302.45 70.39 302.42 70.39 302.42 70.36 302.38 70.36 302.39 70.32 302.35 70.32 302.35 70.29 302.32 70.29 302.32 70.25 302.29 70.25 302.29 70.22 302.26 70.22 302.26 70.18 302.23 70.18 302.23 70.14 302.19 70.14 302.2 70.11 302.16 70.11 302.16 70.07 302.13 70.07 302.13 70.04 302.1 70.04 302.1 70 302.07 70 302.07 69.97 302.04 69.97 302.04 69.93 302 69.93 302.01 69.89 301.97 69.89 301.97 69.86 301.94 69.86 301.94 69.82 301.91 69.82 301.91 69.79 301.88 69.79 301.88 69.75 301.85 69.75 301.85 69.72 301.81 69.72 301.82 69.68 301.78 69.68 301.78 69.65 301.75 69.65 301.75 69.61 301.72 69.61 301.72 69.57 301.69 69.57 301.69 69.54 301.66 69.54 301.66 69.5 301.63 69.5 301.63 69.47 301.59 69.47 301.6 69.43 301.56 69.43 301.56 69.4 301.53 69.4 301.53 69.36 301.5 69.36 301.5 69.33 301.47 69.33 301.47 69.29 301.44 69.29 301.44 69.25 301.4 69.25 301.4 69.22 301.37 69.22 301.37 69.18 301.34 69.18 301.34 69.15 301.31 69.15 301.31 69.11 301.28 69.11 301.28 69.08 301.25 69.08 301.25 69.04 301.21 69.04 301.21 69 301.18 69 301.18 68.97 301.15 68.97 301.15 68.93 301.12 68.93 301.12 68.9 301.09 68.9 301.09 68.86 301.06 68.86 301.06 68.83 301.02 68.83 301.02 68.79 300.99 68.79 300.99 68.75 300.96 68.75 300.96 68.72 300.93 68.72 300.93 68.68 300.9 68.68 300.9 68.65 300.87 68.65 300.87 68.61 300.83 68.61 300.83 68.58 300.8 68.58 300.8 68.54 300.77 68.54 300.77 68.5 300.74 68.5 300.74 68.47 300.71 68.47 300.71 68.43 300.68 68.43 300.68 68.4 300.64 68.4 300.64 68.36 300.61 68.36 300.61 68.33 300.58 69.35 300.57 69.4 303.77 73 303.77 72.95" fill="#ec6608"></polygon>
  <polygon points="302.42 93.16 299.83 90.24 299.76 92.06 301.93 94.5 302.42 93.16" fill="#ec6608"></polygon>
  <polygon points="303.43 82.51 300.23 78.91 300.17 80.73 303.37 84.33 303.43 82.51" fill="#ec6608"></polygon>
  <polygon points="303.7 74.96 300.5 71.36 300.44 73.18 303.64 76.78 303.7 74.96" fill="#ec6608"></polygon>
  <polygon points="303.3 86.29 300.1 82.69 300.03 84.51 303.23 88.11 303.3 86.29" fill="#ec6608"></polygon>
  <polygon points="303.12 91.22 303.16 90.07 299.96 86.47 299.9 88.28 302.94 91.71 303.12 91.22" fill="#ec6608"></polygon>
  <polygon points="303.57 78.74 300.37 75.13 300.3 76.95 303.5 80.56 303.57 78.74" fill="#ec6608"></polygon>
  <path d="M324.58,69.9h-8.94l-.37,1L303.66,103l1.15-32.07,0-1H294.39l-.05,1.38-2.07,57.59,0,1h12.14l.37-1L325.6,71.28l.5-1.38ZM320,74.54l-18.57,51.29-.36.08H296.9l-.07-.49L298.67,74l.47-.11h1.05l.07.5-1.8,49.89h1.9L318.57,74l.36-.08h1.21Z" transform="translate(-6.37 -3.98)" fill="#bdbcbd"></path>
  <polygon points="341.86 78.33 345.05 81.93 346.73 81.93 343.54 78.33 341.86 78.33" fill="#ec6608"></polygon>
  <polygon points="332.43 83.42 335.62 87.02 335.93 85.48 332.74 81.87 332.43 83.42" fill="#ec6608"></polygon>
  <polygon points="333.07 80.21 336.26 83.81 336.57 82.27 333.37 78.66 333.07 80.21" fill="#ec6608"></polygon>
  <polygon points="338.37 78.33 341.56 81.93 343.25 81.93 340.05 78.33 338.37 78.33" fill="#ec6608"></polygon>
  <polygon points="334.88 78.33 338.08 81.93 339.76 81.93 336.56 78.33 334.88 78.33" fill="#ec6608"></polygon>
  <polygon points="335.29 88.69 332.1 85.08 331.79 86.63 334.99 90.23 335.29 88.69" fill="#ec6608"></polygon>
  <polygon points="334.65 91.9 331.46 88.29 331.15 89.84 334.35 93.44 334.65 91.9" fill="#ec6608"></polygon>
  <polygon points="355.5 72.33 355.22 73.73 352.02 70.13 352.3 68.73 355.5 72.33" fill="#ec6608"></polygon>
  <polygon points="350.74 76.55 353.94 80.15 354.25 78.6 351.05 75 350.74 76.55" fill="#ec6608"></polygon>
  <polygon points="345.34 78.33 348.54 81.93 350.22 81.93 347.02 78.33 345.34 78.33" fill="#ec6608"></polygon>
  <polygon points="350.39 78.33 348.83 78.33 352.03 81.93 353.59 81.93 353.61 81.81 350.41 78.21 350.39 78.33" fill="#ec6608"></polygon>
  <polygon points="351.38 73.34 354.58 76.94 354.89 75.39 351.69 71.79 351.38 73.34" fill="#ec6608"></polygon>
  <polygon points="341.16 97.19 344.36 100.79 344.67 99.25 341.47 95.64 341.16 97.19" fill="#ec6608"></polygon>
  <polygon points="329.24 119.12 329.55 117.58 326.35 113.97 326.04 115.52 329.24 119.12 329.24 119.12" fill="#ec6608"></polygon>
  <polygon points="330.18 114.37 326.99 110.77 326.68 112.31 329.88 115.91 330.18 114.37" fill="#ec6608"></polygon>
  <polygon points="332.83 103.52 336.03 107.12 337.71 107.12 334.51 103.52 332.83 103.52" fill="#ec6608"></polygon>
  <polygon points="329.34 103.52 332.54 107.12 334.22 107.12 331.02 103.52 329.34 103.52" fill="#ec6608"></polygon>
  <polygon points="339.9 103.52 339.81 103.52 343 107.12 343.1 107.12 343.39 105.67 340.19 102.06 339.9 103.52" fill="#ec6608"></polygon>
  <polygon points="330.82 111.16 327.63 107.56 327.32 109.1 330.51 112.7 330.82 111.16" fill="#ec6608"></polygon>
  <polygon points="340.52 100.4 343.72 104 344.03 102.46 340.83 98.85 340.52 100.4" fill="#ec6608"></polygon>
  <polygon points="331.46 107.95 328.26 104.34 327.96 105.89 331.15 109.49 331.46 107.95" fill="#ec6608"></polygon>
  <polygon points="336.32 103.52 339.51 107.12 341.2 107.12 338 103.52 336.32 103.52" fill="#ec6608"></polygon>
  <polygon points="341.16 124.7 344.36 128.3 344.67 126.75 341.47 123.15 341.16 124.7" fill="#ec6608"></polygon>
  <polygon points="340.6 127.52 340.52 127.91 343.72 131.51 343.8 131.12 344.03 129.96 340.83 126.36 340.6 127.52" fill="#ec6608"></polygon>
  <polygon points="314.29 128.72 313.34 128.72 316.54 132.32 317.49 132.32 318.22 132.32 315.02 128.72 314.29 128.72" fill="#ec6608"></polygon>
  <polygon points="342.03 120.32 341.8 121.49 345 125.09 345.23 123.92 345.31 123.54 342.11 119.94 342.03 120.32" fill="#ec6608"></polygon>
  <polygon points="323.8 128.72 327 132.32 328.68 132.32 325.49 128.72 323.8 128.72" fill="#ec6608"></polygon>
  <polygon points="320.32 128.72 323.51 132.32 325.19 132.32 322 128.72 320.32 128.72" fill="#ec6608"></polygon>
  <polygon points="316.83 128.72 320.02 132.32 321.71 132.32 318.51 128.72 316.83 128.72" fill="#ec6608"></polygon>
  <polygon points="327.29 128.72 330.49 132.32 332.17 132.32 328.97 128.72 327.29 128.72" fill="#ec6608"></polygon>
  <polygon points="330.78 128.72 333.98 132.32 335.66 132.32 332.46 128.72 330.78 128.72" fill="#ec6608"></polygon>
  <polygon points="334.27 128.72 337.46 132.32 339.14 132.32 335.95 128.72 334.27 128.72" fill="#ec6608"></polygon>
  <polygon points="339.06 128.72 337.75 128.72 340.95 132.32 342.26 132.32 342.63 132.32 339.44 128.72 339.06 128.72" fill="#ec6608"></polygon>
  <path d="M355.19,70.3H329.12l-.24,1.2-11.46,57.6-.24,1.2h27.38l.24-1.2,1.43-7.2.24-1.2h-17l3.1-15.6H344.1l.24-1.2,1.43-7.2.24-1.2H334.53l3.11-15.6h16.95l.23-1.2,1.44-7.2.23-1.2Zm-4,4.57-.19.95-.41.09H334.06l-4.69,23.58h11.38v.57l-.2,1-.41.09H329.05l-4.69,23.58h16.85v.57l-.2,1-.41.09H322.44l0-.58,10.21-51.35.41-.09h18.16Z" transform="translate(-6.37 -3.98)" fill="#bdbcbd"></path>
  <polygon points="370.63 73.15 370.5 72.33 370.47 72.33 370.47 72.29 370.44 72.29 370.44 72.26 370.41 72.26 370.4 72.22 370.38 72.22 370.37 72.19 370.35 72.19 370.34 72.15 370.31 72.15 370.31 72.11 370.28 72.11 370.28 72.08 370.25 72.08 370.25 72.04 370.22 72.04 370.21 72.01 370.19 72.01 370.18 71.97 370.16 71.97 370.15 71.94 370.13 71.94 370.12 71.9 370.09 71.9 370.09 71.86 370.06 71.86 370.06 71.83 370.03 71.83 370.02 71.79 370 71.79 369.99 71.76 369.97 71.76 369.96 71.72 369.94 71.72 369.93 71.69 369.9 71.69 369.9 71.65 369.87 71.65 369.87 71.62 369.84 71.62 369.83 71.58 369.81 71.58 369.8 71.54 369.78 71.54 369.77 71.51 369.75 71.51 369.74 71.47 369.71 71.47 369.71 71.44 369.68 71.44 369.68 71.4 369.65 71.4 369.64 71.37 369.62 71.37 369.61 71.33 369.59 71.33 369.58 71.3 369.56 71.3 369.55 71.26 369.52 71.26 369.52 71.22 369.49 71.22 369.49 71.19 369.46 71.19 369.45 71.15 369.43 71.15 369.42 71.12 369.4 71.12 369.39 71.08 369.37 71.08 369.36 71.05 369.33 71.05 369.33 71.01 369.3 71.01 369.3 70.97 369.27 70.97 369.26 70.94 369.24 70.94 369.23 70.9 369.21 70.9 369.2 70.87 369.18 70.87 369.17 70.83 369.14 70.83 369.14 70.8 369.11 70.8 369.11 70.76 369.08 70.76 369.07 70.72 369.05 70.72 369.04 70.69 369.02 70.69 369.01 70.65 368.99 70.65 368.98 70.62 368.95 70.62 368.95 70.58 368.92 70.58 368.92 70.55 368.89 70.55 368.88 70.51 368.86 70.51 368.85 70.47 368.83 70.47 368.82 70.44 368.8 70.44 368.79 70.4 368.76 70.4 368.76 70.37 368.73 70.37 368.73 70.33 368.7 70.33 368.69 70.3 368.67 70.3 368.66 70.26 368.64 70.26 368.63 70.22 368.61 70.22 368.6 70.19 368.57 70.19 368.57 70.15 368.54 70.15 368.54 70.12 368.51 70.12 368.5 70.08 368.48 70.08 368.47 70.05 368.45 70.05 368.44 70.01 368.42 70.01 368.41 69.97 368.38 69.97 368.38 69.94 368.35 69.94 368.35 69.9 368.32 69.9 368.31 69.87 368.29 69.87 368.28 69.83 368.26 69.83 368.25 69.8 368.23 69.8 368.22 69.76 368.19 69.76 368.19 69.73 368.16 69.73 368.16 69.69 368.13 69.69 368.13 69.65 368.1 69.65 368.09 69.62 368.07 69.62 368.06 69.58 368.04 69.58 368.03 69.55 368 69.55 368 69.51 367.97 69.51 367.97 69.48 367.94 69.48 367.94 69.44 367.91 69.44 367.9 69.41 367.88 69.41 367.87 69.37 367.85 69.37 367.84 69.33 367.81 69.33 367.81 69.3 367.78 69.3 367.78 69.26 367.75 69.26 367.75 69.23 367.72 69.23 367.71 69.19 367.69 69.19 367.68 69.16 367.66 69.16 367.65 69.12 367.63 69.12 367.62 69.08 367.59 69.08 367.59 69.05 367.56 69.05 367.56 69.01 367.53 69.01 367.52 68.98 367.5 68.98 367.49 68.94 367.47 68.94 367.46 68.91 367.44 68.91 367.43 68.87 367.4 68.87 367.4 68.83 367.37 68.83 367.37 68.8 367.34 68.8 367.33 68.76 367.31 68.76 367.3 68.73 367.44 69.55 367.6 70.53 370.79 74.13 370.63 73.15" fill="#ec6608"></polygon>
  <polygon points="373.6 91.33 373.56 91.07 370.36 87.47 370.74 89.79 373.33 92.7 373.6 91.33" fill="#ec6608"></polygon>
  <polygon points="371.2 76.63 368 73.02 368.38 75.34 371.58 78.95 371.2 76.63" fill="#ec6608"></polygon>
  <polygon points="371.99 81.44 368.79 77.84 369.17 80.16 372.37 83.76 371.99 81.44" fill="#ec6608"></polygon>
  <polygon points="372.77 86.26 369.58 82.65 369.95 84.97 373.15 88.58 372.77 86.26" fill="#ec6608"></polygon>
  <polygon points="362.91 106.58 360.64 104.03 360.34 105.57 363.29 108.9 362.91 106.58" fill="#ec6608"></polygon>
  <polygon points="346.61 128.72 346 128.72 349.2 132.32 349.8 132.32 350.88 132.32 347.68 128.72 346.61 128.72" fill="#ec6608"></polygon>
  <polygon points="349.49 128.72 352.69 132.32 354.37 132.32 351.17 128.72 349.49 128.72" fill="#ec6608"></polygon>
  <polygon points="354.43 128.72 352.98 128.72 356.17 132.32 357.62 132.32 357.85 132.32 354.66 128.72 354.43 128.72" fill="#ec6608"></polygon>
  <polygon points="355.97 127.52 355.87 128.04 359.06 131.65 359.17 131.12 359.37 130.1 356.17 126.5 355.97 127.52" fill="#ec6608"></polygon>
  <polygon points="361.29 120.47 358.09 116.87 357.78 118.42 360.98 122.02 361.29 120.47" fill="#ec6608"></polygon>
  <polygon points="363.2 110.84 360 107.24 359.7 108.78 362.89 112.39 363.2 110.84" fill="#ec6608"></polygon>
  <polygon points="362.56 114.05 359.37 110.45 359.06 111.99 362.25 115.6 362.56 114.05" fill="#ec6608"></polygon>
  <polygon points="361.92 117.26 358.73 113.66 358.42 115.2 361.62 118.81 361.92 117.26" fill="#ec6608"></polygon>
  <polygon points="356.5 124.83 359.7 128.44 360.01 126.89 356.81 123.29 356.5 124.83" fill="#ec6608"></polygon>
  <polygon points="357.14 121.63 360.34 125.23 360.65 123.68 357.45 120.08 357.14 121.63" fill="#ec6608"></polygon>
  <polygon points="386.95 76.62 390.15 80.22 390.46 78.68 387.26 75.07 386.95 76.62" fill="#ec6608"></polygon>
  <polygon points="380.57 108.72 383.76 112.32 384.07 110.78 380.88 107.17 380.57 108.72" fill="#ec6608"></polygon>
  <polygon points="375.29 128.72 373.9 128.72 377.1 132.32 378.48 132.32 378.78 132.32 375.58 128.72 375.29 128.72" fill="#ec6608"></polygon>
  <polygon points="379.29 115.14 382.49 118.74 382.8 117.2 379.6 113.59 379.29 115.14" fill="#ec6608"></polygon>
  <polygon points="387.59 73.41 390.79 77.01 391.1 75.47 387.9 71.86 387.59 73.41" fill="#ec6608"></polygon>
  <polygon points="370.42 128.72 373.61 132.32 375.29 132.32 372.1 128.72 370.42 128.72" fill="#ec6608"></polygon>
  <polygon points="381.21 105.51 384.4 109.11 384.71 107.57 381.51 103.96 381.21 105.51" fill="#ec6608"></polygon>
  <polygon points="376.83 127.52 376.74 127.98 379.93 131.58 380.02 131.12 380.24 130.04 377.04 126.44 376.83 127.52" fill="#ec6608"></polygon>
  <polygon points="379.93 111.93 383.13 115.53 383.43 113.99 380.24 110.38 379.93 111.93" fill="#ec6608"></polygon>
  <polygon points="391.48 73.53 391.72 72.33 391.68 72.33 391.69 72.29 391.65 72.29 391.66 72.26 391.62 72.26 391.63 72.22 391.59 72.22 391.6 72.19 391.56 72.19 391.56 72.15 391.52 72.15 391.53 72.11 391.49 72.11 391.5 72.08 391.46 72.08 391.47 72.04 391.43 72.04 391.44 72.01 391.4 72.01 391.4 71.97 391.37 71.97 391.37 71.94 391.33 71.94 391.34 71.9 391.3 71.9 391.31 71.86 391.27 71.86 391.28 71.83 391.24 71.83 391.25 71.79 391.21 71.79 391.21 71.76 391.18 71.76 391.18 71.72 391.14 71.72 391.15 71.69 391.11 71.69 391.12 71.65 391.08 71.65 391.09 71.62 391.05 71.62 391.06 71.58 391.02 71.58 391.02 71.54 390.99 71.54 390.99 71.51 390.95 71.51 390.96 71.47 390.92 71.47 390.93 71.44 390.89 71.44 390.9 71.4 390.86 71.4 390.87 71.37 390.83 71.37 390.84 71.33 390.8 71.33 390.8 71.3 390.76 71.3 390.77 71.26 390.73 71.26 390.74 71.22 390.7 71.22 390.71 71.19 390.67 71.19 390.68 71.15 390.64 71.15 390.65 71.12 390.61 71.12 390.61 71.08 390.57 71.08 390.58 71.05 390.54 71.05 390.55 71.01 390.51 71.01 390.52 70.97 390.48 70.97 390.49 70.94 390.45 70.94 390.46 70.9 390.42 70.9 390.42 70.87 390.38 70.87 390.39 70.83 390.35 70.83 390.36 70.8 390.32 70.8 390.33 70.76 390.29 70.76 390.3 70.72 390.26 70.72 390.27 70.69 390.23 70.69 390.23 70.65 390.19 70.65 390.2 70.62 390.16 70.62 390.17 70.58 390.13 70.58 390.14 70.55 390.1 70.55 390.11 70.51 390.07 70.51 390.08 70.47 390.04 70.47 390.04 70.44 390 70.44 390.01 70.4 389.97 70.4 389.98 70.37 389.94 70.37 389.95 70.33 389.91 70.33 389.92 70.3 389.88 70.3 389.89 70.26 389.85 70.26 389.85 70.22 389.82 70.22 389.82 70.19 389.78 70.19 389.79 70.15 389.75 70.15 389.76 70.12 389.72 70.12 389.73 70.08 389.69 70.08 389.7 70.05 389.66 70.05 389.66 70.01 389.63 70.01 389.63 69.97 389.59 69.97 389.6 69.94 389.56 69.94 389.57 69.9 389.53 69.9 389.54 69.87 389.5 69.87 389.51 69.83 389.47 69.83 389.48 69.8 389.44 69.8 389.44 69.76 389.4 69.76 389.41 69.73 389.37 69.73 389.38 69.69 389.34 69.69 389.35 69.65 389.31 69.65 389.32 69.62 389.28 69.62 389.29 69.58 389.25 69.58 389.25 69.55 389.21 69.55 389.22 69.51 389.18 69.51 389.19 69.48 389.15 69.48 389.16 69.44 389.12 69.44 389.13 69.41 389.09 69.41 389.1 69.37 389.06 69.37 389.06 69.33 389.02 69.33 389.03 69.3 388.99 69.3 389 69.26 388.96 69.26 388.97 69.23 388.93 69.23 388.94 69.19 388.9 69.19 388.9 69.16 388.87 69.16 388.87 69.12 388.83 69.12 388.84 69.08 388.8 69.08 388.81 69.05 388.77 69.05 388.78 69.01 388.74 69.01 388.75 68.98 388.71 68.98 388.71 68.94 388.68 68.94 388.68 68.91 388.64 68.91 388.65 68.87 388.61 68.87 388.62 68.83 388.58 68.83 388.59 68.8 388.55 68.8 388.56 68.76 388.52 68.76 388.52 68.73 388.29 69.93 388.23 70.2 391.43 73.8 391.48 73.53" fill="#ec6608"></polygon>
  <polygon points="378.65 118.35 381.85 121.95 382.16 120.41 378.96 116.81 378.65 118.35" fill="#ec6608"></polygon>
  <polygon points="383.76 92.67 386.96 96.27 387.27 94.73 384.07 91.12 383.76 92.67" fill="#ec6608"></polygon>
  <polygon points="377.38 124.77 380.57 128.37 380.88 126.83 377.68 123.22 377.38 124.77" fill="#ec6608"></polygon>
  <polygon points="386.32 79.83 389.51 83.43 389.82 81.89 386.62 78.28 386.32 79.83" fill="#ec6608"></polygon>
  <polygon points="384.4 89.46 387.6 93.06 387.9 91.52 384.71 87.91 384.4 89.46" fill="#ec6608"></polygon>
  <polygon points="367.46 128.72 366.93 128.72 370.12 132.32 370.66 132.32 371.81 132.32 368.61 128.72 367.46 128.72" fill="#ec6608"></polygon>
  <polygon points="381.85 102.3 385.04 105.9 385.35 104.36 382.15 100.75 381.85 102.3" fill="#ec6608"></polygon>
  <polygon points="385.04 86.25 388.24 89.85 388.54 88.31 385.35 84.7 385.04 86.25" fill="#ec6608"></polygon>
  <polygon points="383.12 95.88 386.32 99.48 386.63 97.94 383.43 94.33 383.12 95.88" fill="#ec6608"></polygon>
  <polygon points="378.01 121.56 381.21 125.16 381.52 123.62 378.32 120.02 378.01 121.56" fill="#ec6608"></polygon>
  <polygon points="385.68 83.04 388.87 86.64 389.18 85.1 385.99 81.49 385.68 83.04" fill="#ec6608"></polygon>
  <polygon points="382.48 99.09 385.68 102.69 385.99 101.15 382.79 97.54 382.48 99.09" fill="#ec6608"></polygon>
  <path d="M391.46,70.3h-9.13l-.24,1.2-5.69,28.6-4.73-29-.13-.82H361.47l-.24,1.2-11.45,57.6-.24,1.2H360l.23-1.2,5.69-28.61,4.73,29,.14.83h10.06l.24-1.2,11.46-57.6.24-1.2Zm-4,4.56-10.22,51.36-.14,0v.06h-2.4l-.14-.4L366.21,77l-9.8,49.25-.41.09h-1.21l0-.58L365,74.38l.41-.09h2l.13.41L376,124.09l9.89-49.71.41-.09h1.19Z" transform="translate(-6.37 -3.98)" fill="#bdbcbd"></path>
  <polygon points="391.71 78.33 391.7 78.36 391.74 78.36 391.73 78.4 391.77 78.4 391.76 78.43 391.8 78.43 391.8 78.47 391.83 78.47 391.83 78.5 391.87 78.5 391.86 78.54 391.9 78.54 391.89 78.58 391.93 78.58 391.92 78.61 391.96 78.61 391.95 78.65 391.99 78.65 391.99 78.68 392.02 78.68 392.02 78.72 392.06 78.72 392.05 78.75 392.09 78.75 392.08 78.79 392.12 78.79 392.11 78.83 392.15 78.83 392.14 78.86 392.18 78.86 392.18 78.9 392.21 78.9 392.21 78.93 392.25 78.93 392.24 78.97 392.28 78.97 392.27 79 392.31 79 392.3 79.04 392.34 79.04 392.33 79.08 392.37 79.08 392.37 79.11 392.4 79.11 392.4 79.15 392.44 79.15 392.43 79.18 392.47 79.18 392.46 79.22 392.5 79.22 392.49 79.25 392.53 79.25 392.52 79.29 392.56 79.29 392.56 79.33 392.6 79.33 392.59 79.36 392.63 79.36 392.62 79.4 392.66 79.4 392.65 79.43 392.69 79.43 392.68 79.47 392.72 79.47 392.71 79.5 392.75 79.5 392.75 79.54 392.79 79.54 392.78 79.57 392.82 79.57 392.81 79.61 392.85 79.61 392.84 79.64 392.88 79.64 392.87 79.68 392.91 79.68 392.9 79.72 392.94 79.72 392.94 79.75 392.98 79.75 392.97 79.79 393.01 79.79 393 79.82 393.04 79.82 393.03 79.86 393.07 79.86 393.06 79.89 393.1 79.89 393.09 79.93 393.13 79.93 393.13 79.97 393.17 79.97 393.16 80 393.2 80 393.19 80.04 393.23 80.04 393.22 80.07 393.26 80.07 393.25 80.11 393.29 80.11 393.28 80.14 393.32 80.14 393.32 80.18 393.36 80.18 393.35 80.22 393.39 80.22 393.38 80.25 393.42 80.25 393.41 80.29 393.45 80.29 393.44 80.32 393.48 80.32 393.47 80.36 393.51 80.36 393.51 80.39 393.55 80.39 393.54 80.43 393.58 80.43 393.57 80.47 393.61 80.47 393.6 80.5 393.64 80.5 393.63 80.54 393.67 80.54 393.66 80.57 393.7 80.57 393.7 80.61 393.74 80.61 393.73 80.64 393.77 80.64 393.76 80.68 393.8 80.68 393.79 80.72 393.83 80.72 393.82 80.75 393.86 80.75 393.85 80.79 393.89 80.79 393.89 80.82 393.92 80.82 393.92 80.86 393.96 80.86 393.95 80.89 393.99 80.89 393.98 80.93 394.02 80.93 394.01 80.97 394.05 80.97 394.04 81 394.08 81 394.08 81.04 394.11 81.04 394.11 81.07 394.15 81.07 394.14 81.11 394.18 81.11 394.17 81.14 394.21 81.14 394.2 81.18 394.24 81.18 394.23 81.21 394.27 81.21 394.27 81.25 394.3 81.25 394.3 81.29 394.34 81.29 394.33 81.32 394.37 81.32 394.36 81.36 394.4 81.36 394.39 81.39 394.43 81.39 394.42 81.43 394.46 81.43 394.45 81.46 394.49 81.46 394.49 81.5 394.53 81.5 394.52 81.53 394.56 81.53 394.55 81.57 394.59 81.57 394.58 81.61 394.62 81.61 394.61 81.64 394.65 81.64 394.64 81.68 394.68 81.68 394.68 81.71 394.72 81.71 394.71 81.75 394.75 81.75 394.74 81.78 394.78 81.78 394.77 81.82 394.81 81.82 394.8 81.86 394.84 81.86 394.83 81.89 394.87 81.89 394.87 81.93 395.08 81.93 391.89 78.33 391.71 78.33" fill="#ec6608"></polygon>
  <polygon points="395.37 78.33 393.69 78.33 396.89 81.93 398.57 81.93 395.37 78.33" fill="#ec6608"></polygon>
  <polygon points="399.38 78.91 398.86 78.33 397.18 78.33 399.07 80.45 399.38 78.91" fill="#ec6608"></polygon>
  <polygon points="409.72 92.45 412.92 96.05 413.22 94.51 410.03 90.91 409.72 92.45" fill="#ec6608"></polygon>
  <polygon points="408.44 98.87 411.64 102.47 411.95 100.93 408.75 97.33 408.44 98.87" fill="#ec6608"></polygon>
  <polygon points="410.36 89.24 413.55 92.84 413.86 91.3 410.67 87.69 410.36 89.24" fill="#ec6608"></polygon>
  <polygon points="409.08 95.66 412.28 99.26 412.58 97.72 409.39 94.11 409.08 95.66" fill="#ec6608"></polygon>
  <polygon points="407.8 102.08 411 105.68 411.31 104.14 408.11 100.53 407.8 102.08" fill="#ec6608"></polygon>
  <polygon points="422.96 78.33 421.65 78.33 421.6 78.33 424.79 81.93 424.85 81.93 426.15 81.93 426.21 81.64 423.02 78.03 422.96 78.33" fill="#ec6608"></polygon>
  <polygon points="423.35 76.37 426.54 79.97 426.85 78.42 423.65 74.82 423.35 76.37" fill="#ec6608"></polygon>
  <polygon points="419.7 78.33 418.11 78.33 421.3 81.93 422.9 81.93 422.99 81.93 419.79 78.33 419.7 78.33" fill="#ec6608"></polygon>
  <polygon points="423.99 73.16 427.18 76.76 427.49 75.22 424.29 71.61 423.99 73.16" fill="#ec6608"></polygon>
  <polygon points="403.97 121.34 407.17 124.94 407.48 123.4 404.28 119.8 403.97 121.34" fill="#ec6608"></polygon>
  <polygon points="411.63 82.82 414.83 86.42 415.14 84.88 411.94 81.27 411.63 82.82" fill="#ec6608"></polygon>
  <polygon points="427.83 73.53 428.06 72.33 428.03 72.33 428.03 72.29 427.99 72.29 428 72.26 427.96 72.26 427.97 72.22 427.93 72.22 427.94 72.19 427.9 72.19 427.91 72.15 427.87 72.15 427.87 72.11 427.84 72.11 427.84 72.08 427.8 72.08 427.81 72.04 427.77 72.04 427.78 72.01 427.74 72.01 427.75 71.97 427.71 71.97 427.72 71.94 427.68 71.94 427.69 71.9 427.65 71.9 427.65 71.86 427.61 71.86 427.62 71.83 427.58 71.83 427.59 71.79 427.55 71.79 427.56 71.76 427.52 71.76 427.53 71.72 427.49 71.72 427.5 71.69 427.46 71.69 427.46 71.65 427.42 71.65 427.43 71.62 427.39 71.62 427.4 71.58 427.36 71.58 427.37 71.54 427.33 71.54 427.34 71.51 427.3 71.51 427.31 71.47 427.27 71.47 427.27 71.44 427.23 71.44 427.24 71.4 427.2 71.4 427.21 71.37 427.17 71.37 427.18 71.33 427.14 71.33 427.15 71.3 427.11 71.3 427.12 71.26 427.08 71.26 427.08 71.22 427.04 71.22 427.05 71.19 427.01 71.19 427.02 71.15 426.98 71.15 426.99 71.12 426.95 71.12 426.96 71.08 426.92 71.08 426.93 71.05 426.89 71.05 426.89 71.01 426.86 71.01 426.86 70.97 426.82 70.97 426.83 70.94 426.79 70.94 426.8 70.9 426.76 70.9 426.77 70.87 426.73 70.87 426.74 70.83 426.7 70.83 426.7 70.8 426.67 70.8 426.67 70.76 426.63 70.76 426.64 70.72 426.6 70.72 426.61 70.69 426.57 70.69 426.58 70.65 426.54 70.65 426.55 70.62 426.51 70.62 426.51 70.58 426.48 70.58 426.48 70.55 426.44 70.55 426.45 70.51 426.41 70.51 426.42 70.47 426.38 70.47 426.39 70.44 426.35 70.44 426.36 70.4 426.32 70.4 426.32 70.37 426.29 70.37 426.29 70.33 426.25 70.33 426.26 70.3 426.22 70.3 426.23 70.26 426.19 70.26 426.2 70.22 426.16 70.22 426.17 70.19 426.13 70.19 426.13 70.15 426.1 70.15 426.1 70.12 426.06 70.12 426.07 70.08 426.03 70.08 426.04 70.05 426 70.05 426.01 70.01 425.97 70.01 425.98 69.97 425.94 69.97 425.94 69.94 425.9 69.94 425.91 69.9 425.87 69.9 425.88 69.87 425.84 69.87 425.85 69.83 425.81 69.83 425.82 69.8 425.78 69.8 425.79 69.76 425.75 69.76 425.75 69.73 425.71 69.73 425.72 69.69 425.68 69.69 425.69 69.65 425.65 69.65 425.66 69.62 425.62 69.62 425.63 69.58 425.59 69.58 425.6 69.55 425.56 69.55 425.56 69.51 425.52 69.51 425.53 69.48 425.49 69.48 425.5 69.44 425.46 69.44 425.47 69.41 425.43 69.41 425.44 69.37 425.4 69.37 425.41 69.33 425.37 69.33 425.37 69.3 425.33 69.3 425.34 69.26 425.3 69.26 425.31 69.23 425.27 69.23 425.28 69.19 425.24 69.19 425.25 69.16 425.21 69.16 425.22 69.12 425.18 69.12 425.18 69.08 425.14 69.08 425.15 69.05 425.11 69.05 425.12 69.01 425.08 69.01 425.09 68.98 425.05 68.98 425.06 68.94 425.02 68.94 425.03 68.91 424.99 68.91 424.99 68.87 424.95 68.87 424.96 68.83 424.92 68.83 424.93 68.8 424.89 68.8 424.9 68.76 424.86 68.76 424.87 68.73 424.63 69.93 424.62 69.95 427.82 73.55 427.83 73.53" fill="#ec6608"></polygon>
  <polygon points="414.62 78.33 417.82 81.93 419.5 81.93 416.3 78.33 414.62 78.33" fill="#ec6608"></polygon>
  <polygon points="412.53 78.33 412.27 79.61 415.47 83.21 415.73 81.93 416.01 81.93 412.81 78.33 412.53 78.33" fill="#ec6608"></polygon>
  <polygon points="411 86.03 414.19 89.63 414.5 88.09 411.3 84.48 411 86.03" fill="#ec6608"></polygon>
  <polygon points="406.52 108.5 409.72 112.1 410.03 110.56 406.83 106.95 406.52 108.5" fill="#ec6608"></polygon>
  <polygon points="403.33 124.55 406.53 128.15 406.84 126.61 403.64 123 403.33 124.55" fill="#ec6608"></polygon>
  <polygon points="393.38 128.72 393.08 128.72 396.28 132.32 396.57 132.32 397.96 132.32 394.76 128.72 393.38 128.72" fill="#ec6608"></polygon>
  <polygon points="396.57 128.72 399.76 132.32 401.44 132.32 398.25 128.72 396.57 128.72" fill="#ec6608"></polygon>
  <polygon points="405.25 114.92 408.44 118.52 408.75 116.98 405.56 113.38 405.25 114.92" fill="#ec6608"></polygon>
  <polygon points="405.89 111.71 409.08 115.31 409.39 113.77 406.19 110.17 405.89 111.71" fill="#ec6608"></polygon>
  <polygon points="404.61 118.13 407.81 121.73 408.11 120.19 404.92 116.58 404.61 118.13" fill="#ec6608"></polygon>
  <polygon points="402.74 127.52 402.69 127.76 405.89 131.36 405.94 131.12 406.2 129.82 403 126.22 402.74 127.52" fill="#ec6608"></polygon>
  <polygon points="401.2 128.72 400.06 128.72 403.25 132.32 404.4 132.32 404.93 132.32 401.74 128.72 401.2 128.72" fill="#ec6608"></polygon>
  <polygon points="407.16 105.29 410.36 108.89 410.67 107.35 407.47 103.75 407.16 105.29" fill="#ec6608"></polygon>
  <path d="M427.8,70.3h-30l-.23,1.2-1.44,7.2-.24,1.2h10.43l-9.78,49.19-.24,1.2h10.43l.24-1.2,9.78-49.19h10.43l.24-1.2,1.43-7.2.24-1.2Zm-4,4.57-.19.95-.42.09h-10l-10,50.31-.41.09h-1.19v-.57l9.91-49.83H401.16l0-.57.19-1,.41-.09h22.06Z" transform="translate(-6.37 -3.98)" fill="#bdbcbd"></path>
  <polygon points="435.49 110.21 435.45 110.21 435.46 110.18 435.42 110.18 435.43 110.14 435.39 110.14 435.4 110.11 435.36 110.11 435.37 110.07 435.33 110.07 435.33 110.03 435.3 110.03 435.3 110 435.26 110 435.27 109.96 435.23 109.96 435.24 109.93 435.2 109.93 435.21 109.89 435.17 109.89 435.18 109.86 435.14 109.86 435.14 109.82 435.11 109.82 435.11 109.78 435.07 109.78 435.08 109.75 435.04 109.75 435.05 109.71 435.01 109.71 435.02 109.68 434.98 109.68 434.99 109.64 434.95 109.64 434.95 109.61 434.92 109.61 434.92 109.57 434.88 109.57 434.89 109.54 434.85 109.54 434.86 109.5 434.82 109.5 434.83 109.46 434.79 109.46 434.8 109.43 434.76 109.43 434.76 109.39 434.73 109.39 434.73 109.36 434.69 109.36 434.7 109.32 434.66 109.32 434.67 109.29 434.63 109.29 434.64 109.25 434.6 109.25 434.61 109.22 434.57 109.22 434.57 109.18 434.54 109.18 434.54 109.14 434.5 109.14 434.51 109.11 434.47 109.11 434.48 109.07 434.44 109.07 434.45 109.04 434.41 109.04 434.42 109 434.38 109 434.38 108.97 434.35 108.97 434.35 108.93 434.31 108.93 434.32 108.89 434.28 108.89 434.29 108.86 434.25 108.86 434.26 108.82 434.22 108.82 434.23 108.79 434.19 108.79 434.19 108.75 434.16 108.75 434.16 108.72 434.12 108.72 434.13 108.68 434.09 108.68 434.1 108.64 434.06 108.64 434.07 108.61 434.03 108.61 434.04 108.57 434 108.57 434 108.54 433.97 108.54 433.97 108.5 433.94 108.5 433.94 108.47 433.9 108.47 433.91 108.43 433.87 108.43 433.88 108.39 433.84 108.39 433.85 108.36 433.81 108.36 433.81 108.32 433.78 108.32 433.78 108.29 433.75 108.29 433.75 108.25 433.71 108.25 433.72 108.22 433.68 108.22 433.69 108.18 433.65 108.18 433.66 108.14 433.62 108.14 433.63 108.11 433.59 108.11 433.59 108.07 433.56 108.07 433.56 108.04 433.52 108.04 433.53 108 433.49 108 433.5 107.97 433.46 107.97 433.47 107.93 433.43 107.93 433.44 107.89 433.4 107.89 433.4 107.86 433.37 107.86 433.37 107.82 433.33 107.82 433.34 107.79 433.3 107.79 433.31 107.75 433.27 107.75 433.28 107.72 433.24 107.72 433.25 107.68 433.21 107.68 433.21 107.65 433.18 107.65 433.18 107.61 433.14 107.61 433.15 107.58 433.11 107.58 433.12 107.54 433.08 107.54 433.09 107.5 433.05 107.5 433.06 107.47 433.02 107.47 433.02 107.43 432.99 107.43 432.99 107.4 432.95 107.4 432.96 107.36 432.92 107.36 432.93 107.33 432.89 107.33 432.9 107.29 432.86 107.29 432.87 107.25 432.83 107.25 432.83 107.22 432.8 107.22 432.8 107.18 432.76 107.18 432.77 107.15 432.73 107.15 432.74 107.11 432.7 107.11 432.71 107.08 432.67 107.08 432.68 107.04 432.64 107.04 432.64 107 432.61 107 432.61 106.97 432.57 106.97 432.58 106.93 432.54 106.93 432.55 106.9 432.51 106.9 432.52 106.86 432.48 106.86 432.49 106.83 432.45 106.83 432.45 106.79 432.42 106.79 432.42 106.75 432.38 106.75 432.39 106.72 432.35 106.72 432.36 106.68 432.32 106.68 432.33 106.65 432.29 106.65 432.3 106.61 432.3 106.61 432.14 107.41 435.33 111.02 435.49 110.21" fill="#ec6608"></polygon>
  <polygon points="434.36 115.89 431.17 112.29 430.86 113.83 434.06 117.44 434.36 115.89" fill="#ec6608"></polygon>
  <polygon points="435 112.68 431.81 109.08 431.5 110.62 434.69 114.22 435 112.68" fill="#ec6608"></polygon>
  <path d="M439.91,122.87l-2.81-3.17A3.82,3.82,0,0,0,439.91,122.87Z" transform="translate(-6.37 -3.98)" fill="#ec6608"></path>
  <path d="M458.11,113.83l3.19,3.6a11.21,11.21,0,0,0-.76-2.75l-3.19-3.6A12.17,12.17,0,0,1,458.11,113.83Z" transform="translate(-6.37 -3.98)" fill="#ec6608"></path>
  <path d="M450.64,129l3.2,3.6c.34-.24.68-.49,1-.76l-3.2-3.6C451.32,128.5,451,128.75,450.64,129Z" transform="translate(-6.37 -3.98)" fill="#ec6608"></path>
  <path d="M448.39,130.39l3.2,3.6c.38-.2.75-.41,1.11-.64l-3.2-3.6C449.14,130,448.77,130.19,448.39,130.39Z" transform="translate(-6.37 -3.98)" fill="#ec6608"></path>
  <path d="M452.46,85.93l-3.2-3.61a6.66,6.66,0,0,0-1.46.25l3.2,3.6A6.46,6.46,0,0,1,452.46,85.93Z" transform="translate(-6.37 -3.98)" fill="#ec6608"></path>
  <path d="M445.9,131.52l3.2,3.6c.42-.16.83-.32,1.23-.51l-3.19-3.6C446.73,131.19,446.32,131.36,445.9,131.52Z" transform="translate(-6.37 -3.98)" fill="#ec6608"></path>
  <path d="M443.77,85.89l3.19,3.6a5.58,5.58,0,0,1,.71-1.1l-3.2-3.6A5.53,5.53,0,0,0,443.77,85.89Z" transform="translate(-6.37 -3.98)" fill="#ec6608"></path>
  <path d="M443.12,132.31l3.19,3.6c.47-.1.93-.21,1.39-.34l-3.2-3.6C444,132.1,443.58,132.21,443.12,132.31Z" transform="translate(-6.37 -3.98)" fill="#ec6608"></path>
  <path d="M449.66,86.71l-3.19-3.6a6.24,6.24,0,0,0-1.05.71l3.2,3.6A6.16,6.16,0,0,1,449.66,86.71Z" transform="translate(-6.37 -3.98)" fill="#ec6608"></path>
  <path d="M457.26,120.74l3.2,3.6q.26-.69.45-1.38l-3.19-3.6C457.59,119.82,457.43,120.28,457.26,120.74Z" transform="translate(-6.37 -3.98)" fill="#ec6608"></path>
  <path d="M458.08,117.72l3.19,3.61a14.56,14.56,0,0,0,.17-1.71l-3.2-3.6A12.36,12.36,0,0,1,458.08,117.72Z" transform="translate(-6.37 -3.98)" fill="#ec6608"></path>
  <path d="M452.68,127.36l3.2,3.6c.3-.28.6-.58.89-.88l-3.2-3.6C453.29,126.78,453,127.08,452.68,127.36Z" transform="translate(-6.37 -3.98)" fill="#ec6608"></path>
  <path d="M456,123.27l3.19,3.6c.23-.39.45-.78.65-1.17l-3.2-3.6C456.46,122.49,456.25,122.88,456,123.27Z" transform="translate(-6.37 -3.98)" fill="#ec6608"></path>
  <path d="M454.47,125.46l3.2,3.6q.4-.5.78-1l-3.2-3.6C455,124.78,454.75,125.12,454.47,125.46Z" transform="translate(-6.37 -3.98)" fill="#ec6608"></path>
  <path d="M443.15,88a4.25,4.25,0,0,0-.07,1l3.19,3.6a4.72,4.72,0,0,1,.07-1l.14-.68-3.2-3.6Z" transform="translate(-6.37 -3.98)" fill="#ec6608"></path>
  <polygon points="445.76 99.19 448.96 102.79 442.86 94.02 439.66 90.42 445.76 99.19" fill="#ec6608"></polygon>
  <path d="M436.18,132.35l3.2,3.6a14.69,14.69,0,0,0,1.93.28l-3.2-3.6A14.94,14.94,0,0,1,436.18,132.35Z" transform="translate(-6.37 -3.98)" fill="#ec6608"></path>
  <path d="M429.28,128.49l0,0,0,0,0,0,0,0,0,0,0,0,0,0,0,0,0,0,0,0,0,0,0,0,0,0,0,0,0,0,0,0,0,0,0,0,0,0,0,0,0,0,0,0,0,0,0,0,0,0,0,0,0,0,0,0,0,0,0,0,0,0,0,0,0,0,0,0,0,0,0,0,0,0,0,0,0,0,0,0,0,0,0,0,0,0,0,0,0,0,0,0,0,0,0,0,0,0,0,0,0,0,0,0,0,0,0,0,0,0,0,0,0,0,0,0,0,0,0,0,0,0,0,0,0,0,0,0,0,0,0,0,0,0,0,0,0,0,0,0,0,0,0,0,0,0,0,0,0,0,0,0,0,0,0,0,0,0,0,0,0,0,0,0,0,0,0,0,0,0,0,0,0,0,0,0,0,0,0,0,0,0,0,0,0,0,0,0,0,0,0,0,0,0,0,0,0,0,0,0a12.12,12.12,0,0,0,4.45,3.13l-3.19-3.6A12.05,12.05,0,0,1,429.28,128.49Z" transform="translate(-6.37 -3.98)" fill="#ec6608"></path>
  <path d="M440,132.67l3.2,3.61c.53,0,1.06-.06,1.58-.12l-3.2-3.6C441,132.62,440.48,132.66,440,132.67Z" transform="translate(-6.37 -3.98)" fill="#ec6608"></path>
  <polygon points="456.84 88.09 460.04 91.69 460.34 90.14 457.15 86.54 456.84 88.09" fill="#ec6608"></polygon>
  <path d="M464.41,85.56l3.19,3.6a10.84,10.84,0,0,0,0-1.89l-3.19-3.6A13.25,13.25,0,0,1,464.41,85.56Z" transform="translate(-6.37 -3.98)" fill="#ec6608"></path>
  <polygon points="445.9 90.83 445.9 90.87 445.93 90.87 445.93 90.91 445.97 90.91 445.96 90.94 446 90.94 445.99 90.98 446.03 90.98 446.02 91.01 446.06 91.01 446.05 91.05 446.09 91.05 446.08 91.08 446.12 91.08 446.12 91.12 446.16 91.12 446.15 91.16 446.19 91.16 446.18 91.19 446.22 91.19 446.21 91.23 446.25 91.23 446.24 91.26 446.28 91.26 446.27 91.3 446.31 91.3 446.31 91.33 446.35 91.33 446.34 91.37 446.38 91.37 446.37 91.41 446.41 91.41 446.4 91.44 446.44 91.44 446.43 91.48 446.47 91.48 446.46 91.51 446.5 91.51 446.5 91.55 446.54 91.55 446.53 91.58 446.57 91.58 446.56 91.62 446.6 91.62 446.59 91.66 446.63 91.66 446.62 91.69 446.66 91.69 446.65 91.73 446.69 91.73 446.69 91.76 446.73 91.76 446.72 91.8 446.76 91.8 446.75 91.83 446.79 91.83 446.78 91.87 446.82 91.87 446.81 91.91 446.85 91.91 446.85 91.94 446.88 91.94 446.88 91.98 446.92 91.98 446.91 92.01 446.95 92.01 446.94 92.05 446.98 92.05 446.97 92.08 447.01 92.08 447 92.12 447.04 92.12 447.04 92.15 447.07 92.15 447.07 92.19 447.11 92.19 447.1 92.22 447.14 92.22 447.13 92.26 447.17 92.26 447.16 92.3 447.2 92.3 447.19 92.33 447.23 92.33 447.23 92.37 447.26 92.37 447.26 92.4 447.3 92.4 447.29 92.44 447.33 92.44 447.32 92.47 447.36 92.47 447.35 92.51 447.39 92.51 447.38 92.55 447.42 92.55 447.42 92.58 447.45 92.58 447.45 92.62 447.49 92.62 447.48 92.65 447.52 92.65 447.51 92.69 447.55 92.69 447.54 92.72 447.58 92.72 447.57 92.76 447.61 92.76 447.61 92.8 447.64 92.8 447.64 92.83 447.68 92.83 447.67 92.87 447.71 92.87 447.7 92.9 447.74 92.9 447.73 92.94 447.77 92.94 447.76 92.97 447.8 92.97 447.8 93.01 447.83 93.01 447.83 93.05 447.87 93.05 447.86 93.08 447.9 93.08 447.89 93.12 447.93 93.12 447.92 93.15 447.96 93.15 447.95 93.19 447.99 93.19 447.99 93.22 448.02 93.22 448.02 93.26 448.06 93.26 448.05 93.3 448.09 93.3 448.08 93.33 448.12 93.33 448.11 93.37 448.15 93.37 448.14 93.4 448.18 93.4 448.17 93.44 448.21 93.44 448.21 93.47 448.25 93.47 448.24 93.51 448.28 93.51 448.27 93.55 448.31 93.55 448.3 93.58 448.34 93.58 448.33 93.62 448.37 93.62 448.36 93.65 448.4 93.65 448.4 93.69 448.44 93.69 448.43 93.72 448.47 93.72 448.46 93.76 448.5 93.76 448.49 93.8 448.53 93.8 448.52 93.83 448.56 93.83 448.55 93.87 448.59 93.87 448.59 93.9 448.63 93.9 448.62 93.94 448.66 93.94 448.65 93.97 448.69 93.97 448.68 94.01 448.72 94.01 448.71 94.04 448.75 94.04 448.74 94.08 448.78 94.08 448.78 94.11 448.81 94.11 448.81 94.15 448.85 94.15 448.84 94.19 448.88 94.19 448.87 94.22 448.91 94.22 448.9 94.26 448.94 94.26 448.93 94.29 448.97 94.29 448.97 94.33 449 94.33 449 94.36 449.04 94.36 449.03 94.4 449.07 94.4 449.06 94.44 450.2 94.44 447 90.83 445.9 90.83" fill="#ec6608"></polygon>
  <polygon points="452.3 90.83 455.5 94.44 457.18 94.44 453.98 90.83 452.3 90.83" fill="#ec6608"></polygon>
  <path d="M464.81,80.51l0,0,0,0,0,0,0,0,0,0,0,0,0,0,0,0,0,0,0,0,0,0,0,0,0,0,0,0,0,0,0,0,0,0,0,0,0,0,0,0,0,0,0,0,0,0,0,0,0,0,0,0,0,0,0,0,0,0,0,0,0,0,0,0,0,0,0,0,0,0,0,0,0,0,0,0,0,0,0,0,0,0,0,0,0,0,0,0,0,0,0,0,0,0,0,0,0,0,0,0,0,0,0,0,0,0,0,0,0,0,0,0,0,0,0,0,0,0,0,0,0,0,0,0,0,0,0,0,0,0,0,0,0,0,0,0,0,0,0,0,0,0,0,0,0,0,0,0,0,0,0,0,0,0,0,0,0,0,0,0,0,0,0,0,0,0,0,0,0,0,0,0,0,0,0,0,0,0,0,0,0,0,0,0,0,0,0,0,0,0,0,0,0,0,0,0,0,0,0,0h0a11.12,11.12,0,0,1,2.3,4.18l3.2,3.6A11.19,11.19,0,0,0,464.81,80.51Z" transform="translate(-6.37 -3.98)" fill="#ec6608"></path>
  <polygon points="456.29 90.83 455.79 90.83 458.98 94.44 459.49 94.44 459.7 93.36 456.51 89.75 456.29 90.83" fill="#ec6608"></polygon>
  <polygon points="457.48 84.88 460.68 88.48 460.98 86.94 457.79 83.33 457.48 84.88" fill="#ec6608"></polygon>
  <polygon points="448.81 90.83 452.01 94.44 453.69 94.44 450.49 90.83 448.81 90.83" fill="#ec6608"></polygon>
  <path d="M449.28,70.3c-8.62,0-16.93,6.46-18.51,14.4v.06a11.81,11.81,0,0,0,1.76,9.16l12.51,18a3.93,3.93,0,0,1,.59,3l-.19,1a6.44,6.44,0,0,1-6.17,4.8c-2.88,0-4.79-2.16-4.26-4.8l1.29-6.51.24-1.2H426.1l-.24,1.2-1.29,6.51c-1.58,7.94,4.15,14.4,12.78,14.4s16.93-6.46,18.51-14.4v-.06a11.82,11.82,0,0,0-1.75-9.15l-12.52-18a3.91,3.91,0,0,1-.58-3.06l.18-.94a6.43,6.43,0,0,1,6.17-4.8c2.88,0,4.79,2.15,4.26,4.8l-1.29,6.51-.24,1.2h10.43l.24-1.2,1.29-6.51C463.64,76.76,457.91,70.3,449.28,70.3Zm8.4,14.49L457,88.33l-.41.09h-1.19v-.56l.65-3.25a7,7,0,0,0-1.37-5.94,8,8,0,0,0-6.39-2.76c-5.06,0-10,3.63-11.29,8.26-.07.25-.19.69-.24.9,0,.05-.05.24-.12.81a6.81,6.81,0,0,0,1.28,5.2l12.54,18a8.6,8.6,0,0,1,1.07,6.77l-.06.26c-1.25,5.65-7.17,10.18-13.2,10.18a9.72,9.72,0,0,1-7.62-3.32A8.5,8.5,0,0,1,429,115.8l.71-3.53.41-.09h1.2v.57l-.65,3.24a7,7,0,0,0,1.37,5.94,8.15,8.15,0,0,0,6.39,2.76c5.33,0,10.47-4,11.44-8.89l.19-1c0-.12,0-.24.06-.35a7.13,7.13,0,0,0-1.34-5l-12.52-18A8.33,8.33,0,0,1,435,85.94a9.82,9.82,0,0,1,.17-1.27c1.14-5.75,7.08-10.38,13.24-10.38A9.68,9.68,0,0,1,456,77.61,8.49,8.49,0,0,1,457.68,84.79Z" transform="translate(-6.37 -3.98)" fill="#bdbcbd"></path>
  <path d="M57.44,108H32.91l-4.72,22H6.37L18.13,74.84H40l-4.1,19.27H60.38l4.1-19.27H86.3L74.54,130.09H52.71Z" transform="translate(-6.37 -3.98)" fill="#222221"></path>
  <path d="M97,74.84H155.7l-2.87,13.47H115.92l-1.62,7.43h34.28l-2.87,13.46H111.44l-1.55,7.43H146.8l-2.86,13.46H85.21Z" transform="translate(-6.37 -3.98)" fill="#222221"></path>
  <path d="M162.89,74.84h21.82l-8.59,40.4h33.81l-3.17,14.85H151.12Z" transform="translate(-6.37 -3.98)" fill="#222221"></path>
  <path d="M224.7,74.84h21.82l-11.76,55.25H212.94Z" transform="translate(-6.37 -3.98)" fill="#222221"></path>
  <path d="M242.64,33.36a84.45,84.45,0,0,0-10.71,4.79l-1.15.68-.67-1.46,2.48-1.15,7.33-3.38a.31.31,0,0,0,.16-.42.32.32,0,0,0-.43-.16l-6.78,3.12L228.7,37.3,212,45a.31.31,0,0,0-.15.42.3.3,0,0,0,.42.16l1.72-.79a41.32,41.32,0,0,0,2.45,4.74l-2,1.69-.27.24a33,33,0,0,1-3.31,2.64,28.91,28.91,0,0,1-3,1.73L184.53,67.67l-4.19-9.08,0-.05a.71.71,0,0,0-.91-.3l-.31.15-4.23,1.94a.71.71,0,0,0-.35.88l0,0,4.29,9.3L164,78.08s-4.15,2.19-4,2.58,4.55-1.35,4.55-1.35l4.65-1.93.54,1.17a.16.16,0,0,0,0,.15h0l-6.87,3.16c-.07,0-.67.43-.62.55l.12.26c0,.11.75-.09.82-.12l6.86-3.16h0a.17.17,0,0,0,.22.06l.66-.3a.17.17,0,0,0,.09-.21h0l6.86-3.16c.07,0,.68-.43.62-.55l-.12-.26c0-.12-.75.09-.82.12l-6.86,3.16h0a.22.22,0,0,0-.13-.08L170.06,77l9.86-4.1,4.28,9.3a.7.7,0,0,0,.94.34l4.51-2.08a.71.71,0,0,0,.35-.94l-4.18-9.08,24.76-10.29a23.29,23.29,0,0,1,5.63-1.56c1.47-.22,2.86-.42,4.18-.63h0a41.33,41.33,0,0,0,2,4.94l-1.72.79a.32.32,0,0,0,.27.59l12.62-5.82L236.74,57l11.82-5.44a.32.32,0,0,0-.27-.59l-9.83,4.53-.66-1.44a78.74,78.74,0,0,0,11.86-5.49c12.17-6.66,9-12.4,8.64-13.21S255.61,28.45,242.64,33.36Zm-28,11.14,13.78-6.35,1.1-.51.71,1.54-1.71,1A106.5,106.5,0,0,0,217,49.08h0A40.35,40.35,0,0,1,214.62,44.5Zm23.26,11.3-1.63.75L233.13,58,223,62.66A41.46,41.46,0,0,1,221,57.89c4-.63,7.33-1.23,10.32-1.93l2.34-.6c1.2-.32,2.35-.67,3.49-1.06Z" transform="translate(-6.37 -3.98)" fill="#ec6608"></path>
  <path d="M228,40.87c-1.13,1-2.32,2.18-3.47,3.34-2.81,1.9-6.15,4.43-9.06,6.76.21-.26.43-.52.64-.75A117.16,117.16,0,0,1,228,40.87Z" transform="translate(-6.37 -3.98)" fill="#fff"></path>
  <path d="M240.56,52.57a14.4,14.4,0,0,1-4,1.5c-.13,0-.38-.14-.39-.27l0-.29a.22.22,0,0,1,.15-.23,29.12,29.12,0,0,0,3.81-1.41.22.22,0,0,1,.27.06l.23.32A.22.22,0,0,1,240.56,52.57Z" transform="translate(-6.37 -3.98)" fill="#fff"></path>
  <path d="M229.89,39.78a14.65,14.65,0,0,1,3.73-2.05.44.44,0,0,1,.42.21l.06.28a.23.23,0,0,1-.11.25,30.45,30.45,0,0,0-3.57,2,.21.21,0,0,1-.28,0l-.27-.28A.21.21,0,0,1,229.89,39.78Z" transform="translate(-6.37 -3.98)" fill="#fff"></path>
  <path d="M245,35.68c-1-1.27-.54-1.64,1.72-2.48a7.61,7.61,0,0,1,8.88,2.38.24.24,0,0,1-.09.36l-7.28,3.35s-.82.53-1.13-.54A8.35,8.35,0,0,0,245,35.68Z" transform="translate(-6.37 -3.98)" fill="#fff"></path>
  <path d="M234.77,37.26c2.27-1.6,8.3-3.67,10.26-4.32a.15.15,0,0,1,.14.25l-1.37,1.25a.24.24,0,0,1-.12.07c-2.54.85-7.47,3-8.34,3.4a.28.28,0,0,1-.25,0l-.32-.22A.25.25,0,0,1,234.77,37.26Z" transform="translate(-6.37 -3.98)" fill="#fff"></path>
  <path d="M245.76,39.41a.5.5,0,0,1-.25.65l-2.29,1a.49.49,0,0,1-.66-.24l-1.72-3.73a.5.5,0,0,1,.19-.63,9.49,9.49,0,0,1,2-.89.49.49,0,0,1,.55.17A17,17,0,0,1,245.76,39.41Z" transform="translate(-6.37 -3.98)" fill="#fff"></path>
  <path d="M248.41,46.33a.53.53,0,0,1-.23.54,10.28,10.28,0,0,1-2,.91.49.49,0,0,1-.6-.27l-1.72-3.72a.52.52,0,0,1,.25-.67l2.29-1a.5.5,0,0,1,.65.22A16.91,16.91,0,0,1,248.41,46.33Z" transform="translate(-6.37 -3.98)" fill="#fff"></path>
  <path d="M251.53,47.06c-1.77,1.07-7.25,4.3-9.94,5a.24.24,0,0,1-.3-.26l0-.39a.25.25,0,0,1,.14-.2c.86-.41,5.71-2.76,8-4.14a.33.33,0,0,1,.14,0l1.84-.22A.14.14,0,0,1,251.53,47.06Z" transform="translate(-6.37 -3.98)" fill="#fff"></path>
  <path d="M249.41,45.32a8.3,8.3,0,0,0-1-3.59c-.61-.93.33-1.21.33-1.21l7.28-3.35a.23.23,0,0,1,.32.16,7.6,7.6,0,0,1-4,8.29C250.3,46.8,249.75,46.88,249.41,45.32Z" transform="translate(-6.37 -3.98)" fill="#fff"></path>
  <path d="M258.32,38.94a8.28,8.28,0,0,1-2.66,5c-.42.36-.67.17-.67.17,2.07-1.54,2.21-4.38,2.55-5.06.14-.29.3-.4.44-.43A.28.28,0,0,1,258.32,38.94Z" transform="translate(-6.37 -3.98)" fill="#fff"></path>
  <path d="M255.62,33.5a.7.7,0,0,1-.62.06c-.74-.19-3-1.92-5.51-1.35,0,0,0-.31.57-.4a8.29,8.29,0,0,1,5.55,1.25A.28.28,0,0,1,255.62,33.5Z" transform="translate(-6.37 -3.98)" fill="#fff"></path>
  <path d="M231.25,55.66h0c-3.33.78-7,1.43-11.62,2.12h-1c3.66-.7,7.75-1.59,11-2.49l1.18-.09,2.06-.2c.53,0,1.05-.12,1.55-.18l-1.21.34-2,.5" transform="translate(-6.37 -3.98)" fill="#fff"></path>
  <path d="M281.18,47,269,47h0l-9.6,0H239.14a1.49,1.49,0,0,0-.63.14L235,48.76a.3.3,0,0,0-.1.09l-4,.1v-.23a.23.23,0,0,0-.23-.22h-.46a2.73,2.73,0,0,0-2.62-1.73,2.24,2.24,0,0,0-.52.06l-.23-.38a.23.23,0,0,0-.31-.07l-.2.12-2.1-3.45a.29.29,0,0,0,0-.27l-1.69-2.71,0-.06,0-.05-2.49-4,0-.06,0,0-2.5-4h0l0-.06,0-.06-2.49-4h0l0-.06,0-.06-2.53-4.07,0-.06h0l-2.55-4.11,0,0L207,15.13l0-.06,0,0-2.55-4.12,0,0,0,0L202,7.18h0L200.64,5l0,0a1.55,1.55,0,0,0-2-.82.16.16,0,0,0,0,.24L207,19l0,.06h0l2.37,4.13,0,0,0,0,2.35,4.08h0l0,.08v0l2.3,4h0l0,0,4.72,8.22,0,0,0,.06h0l.55,1a1.39,1.39,0,0,0,.43.47l3.29,2.21a.19.19,0,0,0,.12,0L225.47,47l-.2.12a.21.21,0,0,0-.07.3l.24.4a2.67,2.67,0,0,0-.6,1.77,2.74,2.74,0,0,0,.72,1.78l-.21.4a.23.23,0,0,0,.08.3l.21.11-1.94,3.54a.25.25,0,0,0-.21.16l-6.1,11.38,0,.06v0l-4.58,8.55,0,.06h0l-4.61,8.62,0,.06v0l-2.28,4.27,0,0,0,.06-2,3.79-1.24,2.31v0a1.55,1.55,0,0,0,.29,2.13.17.17,0,0,0,.23-.08l13.39-23.07h0L221.09,66v0l0-.06,2.32-4,0-.06v0l.58-1a1.36,1.36,0,0,0,.19-.61l.27-3.95a.51.51,0,0,0,0-.13l1.93-3.54.2.11a.22.22,0,0,0,.3-.09l.22-.41a1.91,1.91,0,0,0,.48,0,2.72,2.72,0,0,0,2.54-1.91h.45a.22.22,0,0,0,.21-.23v-.23l4-.1a.27.27,0,0,0,.25.11L248,49.47h0l9.78-.31h0l9.81-.32h.11l4.83-.15h.11l4.31-.14,2.61-.08h0c.13,0,1.58,0,1.7-1.32A.16.16,0,0,0,281.18,47Z" transform="translate(-6.37 -3.98)" fill="#ec6608"></path>
  <path d="M223.05,40.62l-.34-.55-.22.09.34.56Zm.6,3.4-.16-.28-.19.15.17.27Zm.93-.71-.17-.27-.18.14.16.27ZM248,49.47h0l-.76,0-.47.24.77,0Zm4.76-2.79h-4.44a.51.51,0,0,1-.25.23h2.38l.95-.11a.14.14,0,0,1,.16.11h.86Zm-28,9.83v-.32l1.78-3.27.16.06h.06a.43.43,0,0,0,.39-.24l.15-.27.35,0a3,3,0,0,0,2.71-1.92h.28a.46.46,0,0,0,.45-.46l3.7-.09a.53.53,0,0,0,.34.11l9.13-.29.5-.25-9.63.3a.27.27,0,0,1-.25-.11l-4,.1v.23a.22.22,0,0,1-.21.23h-.45a2.72,2.72,0,0,1-2.54,1.91,1.91,1.91,0,0,1-.48,0l-.22.41a.22.22,0,0,1-.3.09l-.2-.11-1.93,3.54a.51.51,0,0,1,0,.13l0,.28Zm-2.23,1.14.19-.35-.29.05-.19.35Zm2.18-.36,0-.33-.24,0,0,.33Zm-1.87,6.14.56-1-.36.17-.56,1Zm-1.65-3.27.4-.75-.11-.29-.4.75Zm1.74-3.25.56-1a.25.25,0,0,1,.21-.16l1.94-3.54-.21-.11a.23.23,0,0,1-.08-.3l.21-.4a2.74,2.74,0,0,1-.72-1.78,2.67,2.67,0,0,1,.6-1.77l-.24-.4a.21.21,0,0,1,.07-.3l.2-.12L224,44.59l-.2.14,1.33,2.18a.45.45,0,0,0-.2.28.41.41,0,0,0,.06.34l.16.26a3,3,0,0,0-.55,1.8,2.9,2.9,0,0,0,.67,1.8l-.14.25a.46.46,0,0,0,.18.62l-1.77,3.25a.5.5,0,0,0-.27.25L222.63,57Zm22.3-10.25h-6.1a1.76,1.76,0,0,0-.72.16l-3.55,1.74-.09.07-3.72.09a.45.45,0,0,0-.46-.44h-.31a3,3,0,0,0-2.77-1.74h0l-.41,0-.15-.24a.44.44,0,0,0-.38-.22l-.18,0-.06,0-1.42-2.33-.16.17,1.5,2.48.2-.12a.23.23,0,0,1,.31.07l.23.38a2.24,2.24,0,0,1,.52-.06,2.73,2.73,0,0,1,2.62,1.73h.46a.23.23,0,0,1,.23.22V49l4-.1a.3.3,0,0,1,.1-.09L238.51,47a1.49,1.49,0,0,1,.63-.14h6.2Zm-24.61-4.92-.63-.42-.24.11.07.06.55.36Z" transform="translate(-6.37 -3.98)" fill="#fff"></path>
</svg>
