<?xml version="1.0" encoding="UTF-8"?>
<svg xmlns="http://www.w3.org/2000/svg" id="Ebene_1" data-name="Ebene 1" viewBox="0 0 507.26 177.64">
  <defs>
    <style>.cls-1{fill:#ec6608;}.cls-2{fill:#bbbbbc;}.cls-3{fill:#222221;}.cls-4{fill:#fff;}</style>
  </defs>
  <title>HeliSxool_logo</title>
  <path class="cls-1" d="M457.4,101.73a19.26,19.26,0,0,1-2.18,2.75c-1.2,1.07-1.14,2.65-1.85,3.92a2.4,2.4,0,0,0,1.08,3.35,13.47,13.47,0,0,1,1.5,1.15c.17,1.37.3,2.88.58,4.36a.89.89,0,0,0,1.31.6c.6-.3,1.42-1.24,1.57-1.12a3,3,0,0,0,2.61.64c.74-.18,1.51-.19,2.26-.31s1.64-.08,2.12-.5.28-1.4.64-2c.82-1.25,1.81-2.39,2.8-3.66a30.64,30.64,0,0,0-2.49-3.57c-.58-.62-.16-.82,0-1.27.55-1.27.53-1.43-.11-1.94-1.5-1.18-3-2.31-4.5-3.53-.64-.53-1.33-.91-2-.48-.32.2-.27,1-.42,1.48C460,102.88,459.52,102.93,457.4,101.73Z" transform="translate(-9.04 -2.83)"></path>
  <path class="cls-1" d="M288.55,56.21A8,8,0,0,0,291,57.52c.88.14,1.35.3,1.46,1.22.23,2.08.51,4.15.76,6.12,1.31,1.06,3.24-.68,4.19,1.2l4.56-.58c1.12-1.42,2.35-2.73,2.75-4.69a2.39,2.39,0,0,1,2.58-1.8c.44,0,.91-.38,1.41-.61-.74-.84-1.52-.49-2.23-.4-.9.12-1.48-.14-1.49-1.12,0-.82-.75-1.93.74-2.28a3.4,3.4,0,0,0,.57-.08c.15-.07.4-.27.38-.36-.07-.27-.28-.75-.37-.73-2.06.33-3-1.46-4.25-2.43-.54-.42-.42-1.71-.61-2.65-1.73.92-3.28,1.73-4.21,3.35a2.11,2.11,0,0,1-.87.58.71.71,0,0,1-.56.07,6.27,6.27,0,0,1-.93-.62c-.16-.11-.3-.23-.45-.35-.78,1-1.68,1.89-1.38,3.49s-.47,1.85-2,1C290,55.34,289.31,55.21,288.55,56.21Z" transform="translate(-9.04 -2.83)"></path>
  <path class="cls-1" d="M317.43,151.82l3.35-.42c.21-.34.54-.63.55-.94.07-1.44-1-3,.47-4.29,0,0,0-.35-.11-.37-1.71-.56-.62-2.58-1.67-3.32s-1-3-3.08-2.45c-.76-.59-1.48-1.22-2.29-1.73-.26-.16-1-.1-1.06.06-.92,2-3.3,2.41-4.37,4.17-.36.58-.22,1.5-.63,2-.69.82-.41,1.13.28,1.68a1.71,1.71,0,0,1,.39,1.47c-.61,2.43-.63,2.41.82,3.53.89.69,1.7,1.45,3,1.31.15,0,.35.57.55.86,1,1.4,1.38,1.45,2.39.28C316.49,153.09,316.94,152.46,317.43,151.82Z" transform="translate(-9.04 -2.83)"></path>
  <path class="cls-1" d="M470.86,65.65c-1.49-.61-2.18-2.63-4.31-2.34-.64.09-.51-.73-.07-1.13s.48-.67.09-.82a1.48,1.48,0,0,0-1-.14,16.12,16.12,0,0,1-2.25,1.37c-1.39.43-.23,1.75-1,2.34-1.16.87-1.31,2.84-3.23,2.92-.19,0-.51.58-.5.88a7.12,7.12,0,0,0,.4,2.81c.39.76,1.32,1.74,2,1.73,1.4,0,3.06.32,4.12-1.26A1.19,1.19,0,0,1,467,72c.64.64,1.37.47,2.1.36s1.18-.3,1.39-1.31C471.08,68.28,471.21,68.31,470.86,65.65Z" transform="translate(-9.04 -2.83)"></path>
  <path class="cls-1" d="M390.36,113.6c-.43,1.34-1.12,2.52-1.11,3.69a4.4,4.4,0,0,1-.84,3.09c-.09.1,0,.42.07.55,1,1.34,2.16,2.59,3.9,2.81.9.12,1.86-.32,2.6.57.27.34.42,0,.79-.25a10.22,10.22,0,0,0,4.05-4.22c-.95-.69-1.73-1.27-.85-2.72s.66-1.51-.89-2.18a4.82,4.82,0,0,1-1.44-.7,3.55,3.55,0,0,0-3.58-1A24.16,24.16,0,0,1,390.36,113.6Z" transform="translate(-9.04 -2.83)"></path>
  <path class="cls-1" d="M360.36,72.65c-.57-1.78.32-4.08-1.79-5.56-.22-.15,0-1,.1-1.52.09-.34.62-.61.62-.92a11,11,0,0,0-.62-2.32l-1.77,3.58c-1.29-1.32-1.56-2.95-3.16-3.33-.78.87-.05,1.81-.19,3.33l-2.65,2.74c-.61,3.25,1.07,4.85,2.24,6.67,1.53-.19,3.05-.37,4.56-.58.53-.08,1.15.07,1.51-.58A12.38,12.38,0,0,1,360.36,72.65Z" transform="translate(-9.04 -2.83)"></path>
  <path class="cls-1" d="M346.93,123c-.17-1.34-.35-2.84-.56-4.35,0-.14-.24-.26-.37-.4-1.72-.49-3.62.88-5.33-.67-.56-.51-2.32,1.54-2.2,2.66.18,1.7.41,3.39.62,5.05,1.17.62,2.46.69,3.49,1.6,1.36,1.2,1.46,1,2.42-.94A28.4,28.4,0,0,1,346.93,123Z" transform="translate(-9.04 -2.83)"></path>
  <path class="cls-1" d="M328.64,97.55c-.09-.71-.22-1.46-.27-2.22-.07-1.06-.28-1.68-1.64-1.68-.75,0-1.5-.86-2-1.2.28-.9.86-1.74.64-2.22-.82-1.86-2.42-2.13-4.33-1.5a6.35,6.35,0,0,0,.28,4.17,2.55,2.55,0,0,0,.58.27c1.73.28,2,.64,1.47,1.91-.15.34-.62.59-.65.91a7.69,7.69,0,0,0,.17,1.71c1.75-.38.89,2,2.1,2,.86,0,1.94.22,2.6-.75C327.88,98.49,328.25,98.05,328.64,97.55Z" transform="translate(-9.04 -2.83)"></path>
  <path class="cls-1" d="M247.92,92.64l-3.25-2.53-2.26.29-1.5,1.93c.16,1.21.29,2.53.5,3.83a3,3,0,0,0,2.83,2.13,14.28,14.28,0,0,0,1.71-.22,2.91,2.91,0,0,0,2.24-3.26C248.12,94.06,248,93.31,247.92,92.64Z" transform="translate(-9.04 -2.83)"></path>
  <path class="cls-1" d="M339.35,67.8c-1.21,1.57,1,3.74-.9,5.17,4.37,3.68,4.37,3.68,7.88-1-.38-2.22-.38-2.22-3.46-4.65C341.31,69,341.31,69,339.35,67.8Z" transform="translate(-9.04 -2.83)"></path>
  <path class="cls-1" d="M342.37,83.86c-.63,1.3.29,2.57-.19,4.73l-1.62,2.08c.43.75.93,1.68,1.48,2.59s1,1,2.19.16c.42-.31.87-.59,1.31-.89l.84-.57c.39-2-1.32-4.07.45-6,.17-.19-.14-1.09-.46-1.44-.79-.81-1.7-1.54-3-1C343.05,83.64,342.71,83.74,342.37,83.86Z" transform="translate(-9.04 -2.83)"></path>
  <path class="cls-1" d="M296.44,44.53c-.78-.56-1.72-1.19-2.63-1.88-2.71-2.07-2.63-2-3.92,1.11a3.19,3.19,0,0,0-.1,2.66,22.47,22.47,0,0,1,1.7,2.67.57.57,0,0,0,.46.24c1.13-.14,2.44,0,3.31-.58a2.43,2.43,0,0,0,1.36-2.84A8.34,8.34,0,0,1,296.44,44.53Z" transform="translate(-9.04 -2.83)"></path>
  <path class="cls-1" d="M447.54,117.52c1.13,1.21,1.76,3.24,3.69,4.08.47.2,1.21.55,1.47.36.71-.54,1.66-1.28,1.72-2a21.52,21.52,0,0,0-.47-4.48l-3.08-2.37Z" transform="translate(-9.04 -2.83)"></path>
  <path class="cls-1" d="M291.43,167.82c1-.13,2-.29,2.9-.35a2.2,2.2,0,0,0,1.93-1.82,7,7,0,0,0-.47-3.77,2.17,2.17,0,0,0-2.33-1.28c-.37.08-.76.09-1.14.15-3,.41-3.76,2.47-1.88,5.12A16.12,16.12,0,0,1,291.43,167.82Z" transform="translate(-9.04 -2.83)"></path>
  <path class="cls-1" d="M262.44,77.3l4-.49c.52-.83,1.3-2,2.07-3.26l-2.92-2.32c-1,.13-1.92.3-2.87.35s-1.1.94-1.6,1.45c-.16.16-.24.71-.14.78a2.19,2.19,0,0,1,1.11,1.83A8.46,8.46,0,0,0,262.44,77.3Z" transform="translate(-9.04 -2.83)"></path>
  <path class="cls-1" d="M430.16,54l3-2.06c-.09-.74-.17-1.49-.28-2.24-.22-1.55-.22-1.58-1.61-1.59-.73,0-1.5.35-2.11-.33s-.83-.27-1.21.2c-1.28,1.63-1.16,3,.38,4.32C429.07,52.89,429.71,53.56,430.16,54Z" transform="translate(-9.04 -2.83)"></path>
  <path class="cls-1" d="M437.62,106.4l-.65-5.14-3-1.1c-1.83,1.4-1.65,3.45-.74,5.28C433.92,106.91,435.57,107,437.62,106.4Z" transform="translate(-9.04 -2.83)"></path>
  <path class="cls-1" d="M310.68,111.71c.12.35.16.94.35,1,1.37.37.73,3,3.14,2.45,2.15-.47.9-2.71,2.33-3.32.05,0,0-.36-.07-.55s0-.49-.08-.56c-.92-.56-1.51-1.57-2.92-1.45s-1.89,1.09-2.6,1.94A1.47,1.47,0,0,0,310.68,111.71Z" transform="translate(-9.04 -2.83)"></path>
  <path class="cls-1" d="M217,115.64l-.55-4.36a10,10,0,0,0-1.65,0,3.33,3.33,0,0,0-2.57,2.42c-.06.92,1.37,2.11,2.72,2.18A15.36,15.36,0,0,0,217,115.64Z" transform="translate(-9.04 -2.83)"></path>
  <path class="cls-1" d="M339.53,43.11a3,3,0,0,0,3.73-1.53,1.31,1.31,0,0,0-.2-1.92c-.84-.73-1.65-1.41-3-1-1.05.3-1.43.46-1.27,1.34C339,41,338.8,42.18,339.53,43.11Z" transform="translate(-9.04 -2.83)"></path>
  <path class="cls-1" d="M461.77,57.83c2.05.47,3.24-.12,4.11-1.52a1.47,1.47,0,0,0-.26-1.92,3.11,3.11,0,0,0-4-.6C461.11,55.06,461.75,56.31,461.77,57.83Z" transform="translate(-9.04 -2.83)"></path>
  <path class="cls-1" d="M351.89,51.65a14.47,14.47,0,0,1-2.48-.92c-.75-.43-1.63-.64-1.91.1a3.16,3.16,0,0,0,.19,2.62,14.89,14.89,0,0,0,3,2.42A3.62,3.62,0,0,0,351.89,51.65Z" transform="translate(-9.04 -2.83)"></path>
  <path class="cls-1" d="M501.68,94.79c-.5.78-1,1.58-1.52,2.33a2.24,2.24,0,0,0,1.54,3.62,1.36,1.36,0,0,0,1-.3c1.83-1.55,1.7-3.38-.33-5.1Z" transform="translate(-9.04 -2.83)"></path>
  <path class="cls-1" d="M447.59,13.45c-.56.73-1,1.34-1.51,1.94s-1.56,1.57-.85,2.45a3,3,0,0,0,2.88,1.47c1.58-.25,1.94-.68,1.65-2.19a3.55,3.55,0,0,0-1.19-1.79A7.91,7.91,0,0,1,447.59,13.45Z" transform="translate(-9.04 -2.83)"></path>
  <path class="cls-1" d="M516.31,95.9a10.33,10.33,0,0,0-1.09-.89c-1.1-.73-1.48-.66-2.33.35-1.43,1.69-1.35,1.93.93,2.72a1.63,1.63,0,0,1,.47.32c.61.51,1.17,1,1.35-.35A11.89,11.89,0,0,1,516.31,95.9Z" transform="translate(-9.04 -2.83)"></path>
  <path class="cls-1" d="M262.06,96.05c-.63.12-.78.57-.42,1s.81.8.89,1.26c.19,1.07.86,1,1.62.92s1.55,0,1.89-.83a1.2,1.2,0,0,0-.14-1.07C264.83,96.33,263.69,95.32,262.06,96.05Z" transform="translate(-9.04 -2.83)"></path>
  <path class="cls-1" d="M446.58,121.5c-.09-.77,0-1.31-.22-1.47-.37-.3-1.06-.63-1.38-.48a2.77,2.77,0,0,0-1.79,2.49c0,.3.31.87.47.87a8.59,8.59,0,0,0,2.63-.32C446.55,122.5,446.55,121.64,446.58,121.5Z" transform="translate(-9.04 -2.83)"></path>
  <path class="cls-1" d="M492.91,93.2c.16.55.16,1,.38,1.21a1.15,1.15,0,0,0,1,.3,2.87,2.87,0,0,0,2-2.85.75.75,0,0,0-.25-.44c-.59-.49-2.83-.23-3,.38A5.92,5.92,0,0,0,492.91,93.2Z" transform="translate(-9.04 -2.83)"></path>
  <path class="cls-1" d="M428.54,70.49c.3-.16.76-.25.88-.5a1.35,1.35,0,0,0-.54-1.85c-.73-.53-1.37-1.34-2.41-.85a1.09,1.09,0,0,0-.49.88A2.91,2.91,0,0,0,428.54,70.49Z" transform="translate(-9.04 -2.83)"></path>
  <path class="cls-1" d="M322.65,97.73a.7.7,0,0,0-.36,0c-.92.4-2.54-.48-2.71,1.24-.14,1.35,1.2,1.63,2.08,2.21C322.39,100.15,323.78,99.32,322.65,97.73Z" transform="translate(-9.04 -2.83)"></path>
  <path class="cls-1" d="M336.88,84.26c-1.89,2.68-1.89,2.68.57,4.61l1.41-1.82C337.86,86.47,337.65,85.34,336.88,84.26Z" transform="translate(-9.04 -2.83)"></path>
  <path class="cls-1" d="M376.91,52.59a3.14,3.14,0,0,0-2.51,2.66,1,1,0,0,0,1,1,2.91,2.91,0,0,0,2.23-2.63C377.66,53.27,377.13,52.88,376.91,52.59Z" transform="translate(-9.04 -2.83)"></path>
  <path class="cls-1" d="M456.47,44.51c-.28-.89-1.17-1.19-1.84-1.66s-1.58.29-1.54,1a11.59,11.59,0,0,0,.21,1.66,1.28,1.28,0,0,0,1.74.69,1.67,1.67,0,0,0,.37-.38C455.76,45.44,456.09,45,456.47,44.51Z" transform="translate(-9.04 -2.83)"></path>
  <path class="cls-1" d="M276,158.74c0-.19,0-.38-.07-.56a1.11,1.11,0,0,0-1.56-1c-.56.21-.92.57-.73,1.26.09.36.09.74.15,1.12a1.11,1.11,0,0,0,1.56,1c.56-.2.93-.57.73-1.25A3.43,3.43,0,0,1,276,158.74Z" transform="translate(-9.04 -2.83)"></path>
  <path class="cls-1" d="M260.46,53.86a3.73,3.73,0,0,1-.07-.56c0-.73-.44-1-1-1-.86-.07-1.32.44-1.25,1.34,0,.37.13.75.13,1.12,0,.73.44,1,1,1,.86.07,1.31-.44,1.25-1.34C260.51,54.23,260.48,54.05,260.46,53.86Z" transform="translate(-9.04 -2.83)"></path>
  <path class="cls-1" d="M399.88,82.72c.1.34.1,1,.44,1.33a1.58,1.58,0,0,0,1.5.19c.89-.69.59-2.91-.44-3.32-.35-.15-1,.25-1.42.57C399.78,81.63,399.9,82.16,399.88,82.72Z" transform="translate(-9.04 -2.83)"></path>
  <path class="cls-1" d="M321,87.62a12.8,12.8,0,0,1,1-1.41c.48-.52.37-.87-.18-1.17s-.43-.74-.09-1.19a2,2,0,0,0,.18-.8,2.77,2.77,0,0,0-1-.17c-.31.06-.83.33-.83.52C320.05,84.81,319.93,86.27,321,87.62Z" transform="translate(-9.04 -2.83)"></path>
  <path class="cls-1" d="M387.47,76.3c.16.54.17,1.09.38,1.18.46.21,1.21.43,1.51.2.9-.66.64-2.88-.4-3.33a1.58,1.58,0,0,0-1.39.55C387.31,75.29,387.48,76,387.47,76.3Z" transform="translate(-9.04 -2.83)"></path>
  <path class="cls-1" d="M258.38,99c-.62.92,0,1.82,0,2.71,0,.18.61.52.86.46a2.72,2.72,0,0,0,1.34-.73,1.06,1.06,0,0,0-.12-1C259.85,99.86,259.35,99.07,258.38,99Z" transform="translate(-9.04 -2.83)"></path>
  <path class="cls-1" d="M268.28,101.21a5.77,5.77,0,0,0-.7.61c-.32.4-.59.84-.88,1.25l1.84,1.43c.23-.28.56-.52.67-.84s1.8-.49.43-1.41C269.17,101.94,268.75,101.57,268.28,101.21Z" transform="translate(-9.04 -2.83)"></path>
  <path class="cls-1" d="M254.82,121.07c-.31-1-1.22-1.3-1.89-1.78a1,1,0,0,0-1,.14,2.68,2.68,0,0,0-.39,1.47c0,.26.46.76.66.73A5,5,0,0,0,254.82,121.07Z" transform="translate(-9.04 -2.83)"></path>
  <path class="cls-1" d="M336,130.07c-.94-.58-1.84,0-2.72,0-.17,0-.49.63-.43.89a2.63,2.63,0,0,0,.76,1.31,1.06,1.06,0,0,0,1-.13C335.17,131.52,336,131.06,336,130.07Z" transform="translate(-9.04 -2.83)"></path>
  <path class="cls-1" d="M304.45,154.58a3.38,3.38,0,0,0,2.28,2,1,1,0,0,0,1-.25,2.9,2.9,0,0,0,.25-1.48,1,1,0,0,0-.77-.58C306.27,154.3,305.37,154.46,304.45,154.58Z" transform="translate(-9.04 -2.83)"></path>
  <path class="cls-1" d="M287.08,163c-1-.74-2.06-1.49-3.12-2.17-.1-.07-.65.25-.68.44-.19,1.09.65,1.56,1.37,2.13S286.25,164.09,287.08,163Z" transform="translate(-9.04 -2.83)"></path>
  <path class="cls-1" d="M333.14,160.8a26.35,26.35,0,0,0-2.26-1.39,1.14,1.14,0,0,0-1,.31,1.66,1.66,0,0,0-.29,1,.86.86,0,0,0,1,1C331.45,161.61,332.48,161.86,333.14,160.8Z" transform="translate(-9.04 -2.83)"></path>
  <path class="cls-1" d="M326.51,80.39c-2-1.37-2.37.75-3.33,1.61C325.21,83.38,325.54,81.25,326.51,80.39Z" transform="translate(-9.04 -2.83)"></path>
  <path class="cls-1" d="M363.46,88.28c.22.15.57.61,1,.67.9.14,1.31-.42,1.27-1.29a1,1,0,0,0-1-1C363.77,86.59,363.32,87.1,363.46,88.28Z" transform="translate(-9.04 -2.83)"></path>
  <path class="cls-1" d="M426.4,89.93c.23.08.67.32.75.23a8.19,8.19,0,0,0,1.31-1.74c.15-.26,0-.72-.11-1.08-.14-.51-.67-.43-1.15.17S425.91,88.86,426.4,89.93Z" transform="translate(-9.04 -2.83)"></path>
  <path class="cls-1" d="M300.71,142.89l1.84,1.43c1.06-1,.26-2,.05-3,0-.15-.27-.3-.44-.35-.58-.14-.55.09-.56.63S301,142.45,300.71,142.89Z" transform="translate(-9.04 -2.83)"></path>
  <path class="cls-1" d="M278.46,160.15a9.46,9.46,0,0,0,.25,1.68c.05.17.5.27.78.31.09,0,.33-.29.31-.42-.11-1.13-.23-2.25-.44-3.36,0-.16-.5-.27-.78-.31-.09,0-.32.28-.31.42C278.3,159,278.39,159.59,278.46,160.15Z" transform="translate(-9.04 -2.83)"></path>
  <path class="cls-1" d="M410,43c.21.15.57.61,1,.67.89.13,1.31-.43,1.27-1.3a1,1,0,0,0-1-1C410.32,41.27,409.87,41.78,410,43Z" transform="translate(-9.04 -2.83)"></path>
  <path class="cls-1" d="M412.31,56.31a3,3,0,0,0-.44,1.17c0,.87.64,1.25,1.51,1a1,1,0,0,0,.76-1.23C414,56.36,413.45,56,412.31,56.31Z" transform="translate(-9.04 -2.83)"></path>
  <path class="cls-1" d="M266.51,66a5.91,5.91,0,0,0,1.58.23c.74-.1,1-.94.65-1.72-.11-.21-.68-.43-.74-.36C267.5,64.69,267.07,65.3,266.51,66Z" transform="translate(-9.04 -2.83)"></path>
  <path class="cls-1" d="M339.2,154.23a1.23,1.23,0,0,0-1.88,0c-.28.31-.2,1-.17,1.5,0,.11.65.34.76.25a10.11,10.11,0,0,0,1-1.29A3.58,3.58,0,0,0,339.2,154.23Z" transform="translate(-9.04 -2.83)"></path>
  <path class="cls-1" d="M413,151.29l-.92.78c.32.16.67.49.93.43a5.89,5.89,0,0,0,1.36-.71Z" transform="translate(-9.04 -2.83)"></path>
  <path class="cls-1" d="M296.33,42.22c0,.13,0,.3.08.38a1.25,1.25,0,0,0,1.88-.26.44.44,0,0,0-.08-.38A1.26,1.26,0,0,0,296.33,42.22Z" transform="translate(-9.04 -2.83)"></path>
  <path class="cls-1" d="M482.41,130.05c.27.21.73.73.9.65.6-.27.44-1.49-.19-1.84-.09-.06-.35,0-.37,0C482.63,129.2,482.55,129.53,482.41,130.05Z" transform="translate(-9.04 -2.83)"></path>
  <path class="cls-1" d="M400.42,30c.2-.27.72-.72.64-.9-.27-.6-1.48-.44-1.84.19-.05.1,0,.35,0,.37C399.56,29.76,399.89,29.84,400.42,30Z" transform="translate(-9.04 -2.83)"></path>
  <path class="cls-1" d="M363.63,134.45c.2-.27.72-.73.64-.91-.27-.59-1.49-.43-1.84.19-.05.1,0,.36,0,.38C362.77,134.23,363.1,134.3,363.63,134.45Z" transform="translate(-9.04 -2.83)"></path>
  <path class="cls-1" d="M308.35,130.7c.27.47.42.78.62,1.06,0,0,.29,0,.37-.07.52-.5.37-1.72-.27-1.84C308.88,129.82,308.56,130.44,308.35,130.7Z" transform="translate(-9.04 -2.83)"></path>
  <path class="cls-1" d="M307.86,124.73a1.26,1.26,0,0,0,1.89-.22.43.43,0,0,0,0-.38,1.24,1.24,0,0,0-1.88.21C307.79,124.44,307.85,124.6,307.86,124.73Z" transform="translate(-9.04 -2.83)"></path>
  <path class="cls-1" d="M320.18,104.12c.22.27.45.53.68.8a5.85,5.85,0,0,0,.35-1.49c0-.27-.41-.53-.64-.8a9,9,0,0,0-.45.94A1.52,1.52,0,0,0,320.18,104.12Z" transform="translate(-9.04 -2.83)"></path>
  <path class="cls-1" d="M373.07,78.43c.13,0,.3,0,.38-.08a1.24,1.24,0,0,0-.26-1.87.4.4,0,0,0-.38.07A1.26,1.26,0,0,0,373.07,78.43Z" transform="translate(-9.04 -2.83)"></path>
  <path class="cls-1" d="M349.13,168.86c.28.21.73.73.91.65.59-.28.44-1.49-.19-1.84-.1-.06-.36,0-.37,0A11.93,11.93,0,0,0,349.13,168.86Z" transform="translate(-9.04 -2.83)"></path>
  <path class="cls-1" d="M356.23,179.27l.83,1.2a5.75,5.75,0,0,0,.35-1.49c0-.27-.41-.53-.64-.79Z" transform="translate(-9.04 -2.83)"></path>
  <path class="cls-1" d="M421.5,61.09c.27.2.73.72.9.64.6-.27.44-1.48-.19-1.84-.09,0-.35,0-.37,0C421.72,60.23,421.64,60.57,421.5,61.09Z" transform="translate(-9.04 -2.83)"></path>
  <path class="cls-1" d="M253.2,99.08l-.5-.69c-.11.14-.34.33-.31.42a3.66,3.66,0,0,0,.46.72Z" transform="translate(-9.04 -2.83)"></path>
  <path class="cls-1" d="M361.72,108.08l-.35.45a3.06,3.06,0,0,0,.81.26c.09,0,.22-.26.33-.4Z" transform="translate(-9.04 -2.83)"></path>
  <path class="cls-1" d="M276.68,59.56l-.36.45a3.13,3.13,0,0,0,.82.26c.09,0,.22-.26.33-.4Z" transform="translate(-9.04 -2.83)"></path>
  <path class="cls-1" d="M415.69,121.85l.69-.5c-.14-.11-.33-.34-.42-.31a4,4,0,0,0-.72.46Z" transform="translate(-9.04 -2.83)"></path>
  <path class="cls-1" d="M317.51,134.46c-.11.14-.33.36-.31.4a2.36,2.36,0,0,0,.61.61.51.51,0,0,0,.48-.06.49.49,0,0,0-.06-.48A3.88,3.88,0,0,0,317.51,134.46Z" transform="translate(-9.04 -2.83)"></path>
  <path class="cls-1" d="M318.37,135.93c.25.15.64.48.72.41.64-.48.13-.75-.28-1a.5.5,0,0,0-.48.07C318.25,135.53,318.35,135.76,318.37,135.93Z" transform="translate(-9.04 -2.83)"></path>
  <path class="cls-1" d="M308.24,139.76l-.5-.69c-.11.14-.35.33-.31.42a3.21,3.21,0,0,0,.45.72Z" transform="translate(-9.04 -2.83)"></path>
  <path class="cls-1" d="M456.1,124.66l-.5-.69c-.11.14-.34.33-.31.42a3.21,3.21,0,0,0,.45.72Z" transform="translate(-9.04 -2.83)"></path>
  <path class="cls-1" d="M513.25,125.43a3.18,3.18,0,0,0,.81.26c.1,0,.22-.26.33-.4a3.06,3.06,0,0,0-.81-.26C513.48,125,513.36,125.29,513.25,125.43Z" transform="translate(-9.04 -2.83)"></path>
  <path class="cls-1" d="M270,157.17a3.18,3.18,0,0,0,.81.26c.1,0,.22-.26.33-.4a3.06,3.06,0,0,0-.81-.26C270.19,156.76,270.07,157,270,157.17Z" transform="translate(-9.04 -2.83)"></path>
  <path class="cls-1" d="M303.67,153.61c-.12.15-.34.37-.31.41a2.28,2.28,0,0,0,.6.6.48.48,0,0,0,.48-.06.49.49,0,0,0-.05-.48A4.24,4.24,0,0,0,303.67,153.61Z" transform="translate(-9.04 -2.83)"></path>
  <path class="cls-1" d="M345.46,37.39a3.06,3.06,0,0,0,.81.26c.1,0,.22-.26.33-.4a3.06,3.06,0,0,0-.81-.26C345.69,37,345.57,37.25,345.46,37.39Z" transform="translate(-9.04 -2.83)"></path>
  <path class="cls-1" d="M286.21,45l.46.35a3.06,3.06,0,0,0,.26-.81c0-.1-.26-.22-.4-.33C286.42,44.48,286.32,44.75,286.21,45Z" transform="translate(-9.04 -2.83)"></path>
  <path class="cls-1" d="M374.36,35.09l.46.35a4,4,0,0,0,.26-.81c0-.09-.26-.22-.41-.33C374.57,34.57,374.46,34.83,374.36,35.09Z" transform="translate(-9.04 -2.83)"></path>
  <path class="cls-1" d="M385.16,12.84l-.5-.69c-.11.14-.34.33-.31.42a3.45,3.45,0,0,0,.45.72Z" transform="translate(-9.04 -2.83)"></path>
  <path class="cls-1" d="M288.66,64.44l.45.35a3.51,3.51,0,0,0,.27-.81c0-.1-.27-.22-.41-.33C288.86,63.91,288.76,64.18,288.66,64.44Z" transform="translate(-9.04 -2.83)"></path>
  <path class="cls-1" d="M404.45,17.21a4.23,4.23,0,0,0,.81.26c.1,0,.22-.26.33-.41a4,4,0,0,0-.81-.26C404.69,16.79,404.56,17.07,404.45,17.21Z" transform="translate(-9.04 -2.83)"></path>
  <path class="cls-1" d="M331.78,45.33l.68-.5c-.14-.11-.33-.34-.42-.31a3.5,3.5,0,0,0-.72.46Z" transform="translate(-9.04 -2.83)"></path>
  <path class="cls-1" d="M307.19,64.09l.5.69c.11-.14.34-.33.31-.42a3.66,3.66,0,0,0-.46-.72Z" transform="translate(-9.04 -2.83)"></path>
  <path class="cls-1" d="M363.37,58.53l.46.35a3.06,3.06,0,0,0,.26-.81c0-.1-.26-.22-.4-.33C363.58,58,363.48,58.27,363.37,58.53Z" transform="translate(-9.04 -2.83)"></path>
  <path class="cls-1" d="M239.55,76.83a3.06,3.06,0,0,0-.26.81c0,.09.26.22.4.33a4.23,4.23,0,0,0,.26-.81C240,77.06,239.69,76.94,239.55,76.83Z" transform="translate(-9.04 -2.83)"></path>
  <path class="cls-1" d="M263,60a3.67,3.67,0,0,0-.27.81c0,.1.27.22.41.33a4,4,0,0,0,.26-.81C263.38,60.18,263.11,60.06,263,60Z" transform="translate(-9.04 -2.83)"></path>
  <path class="cls-1" d="M257.05,82.17a3.18,3.18,0,0,0,.81.26c.1,0,.22-.26.33-.4a3.06,3.06,0,0,0-.81-.26C257.29,81.76,257.16,82,257.05,82.17Z" transform="translate(-9.04 -2.83)"></path>
  <path class="cls-2" d="M405.59,133.22a24.27,24.27,0,0,0,1.93-2.93c2.21-4.69,4.6-9.32,6.43-14.16,2.27-6,4.26-12.17,6-18.36,1.9-6.76,3.37-13.64,5-20.46.72-3,1.43-6,2.19-8.93a2.82,2.82,0,0,1,.78-1.5,2.35,2.35,0,0,1,1.62-.49,1.23,1.23,0,0,1,1.09,1.37c-.09,1.69-.14,3.39-.28,5.09-.17,2.15-.32,4.32-.63,6.46-.74,5-1.44,10-2.38,15a162.92,162.92,0,0,1-8.29,28c-.79,2.08-1.68,4.12-2.56,6.27,1.74-.33,3.42-.69,5.11-.95,3.11-.48,6.25-.94,9.38-.31,2,.4,3.85,1.11,4.67,3.23,1,2.51-.13,3.89-2.43,3.93a82.48,82.48,0,0,0-9.7.49c-3.23.44-6.41,1.36-9.59,2.12a22.34,22.34,0,0,0-3.17,1.08c-.93.37-1.46,0-2-.72-.74-.87-1.63-1.62-2.4-2.48a7.32,7.32,0,0,1-.77-1.37Z" transform="translate(-9.04 -2.83)"></path>
  <path class="cls-2" d="M378,93.25c-.46,6.64-1.46,13.09-4,19.23a31.46,31.46,0,0,1-6.77,10.63c-3.39,3.31-7.34,5.35-12.24,5a13.16,13.16,0,0,1-7.38-3c-4.76-3.84-6.73-9.1-7.59-14.91-1.14-7.77.25-15.22,2.94-22.5a37.81,37.81,0,0,1,5.62-10.33c2.46-3.17,5.17-6.07,9.22-7.23a4.29,4.29,0,0,1,1.05-.23A13.21,13.21,0,0,0,364,68.49c3.06-1.4,6.61.07,8.74,3.13A25.65,25.65,0,0,1,377,83.15C377.43,86.5,377.67,89.88,378,93.25ZM366.4,74.61c-1,1.29-1.3,1.35-2.53.38a2.29,2.29,0,0,0-2.79-.31,10.77,10.77,0,0,1-2.87,1.45,3.81,3.81,0,0,0-1.95,1.18,19.59,19.59,0,0,0-4.3,6.32,45.18,45.18,0,0,0-4.37,22.2,22.63,22.63,0,0,0,3.05,10.42c2.2,3.6,5.9,4.88,9.57,2a20.24,20.24,0,0,0,5.72-7.78,42.78,42.78,0,0,0,3.7-17.21,51.32,51.32,0,0,0-.91-11.74A24.3,24.3,0,0,0,366.4,74.61Z" transform="translate(-9.04 -2.83)"></path>
  <path class="cls-2" d="M412.8,93.25c-.46,6.64-1.46,13.09-4,19.23A31.48,31.48,0,0,1,402,123.11c-3.38,3.31-7.33,5.35-12.24,5a13.16,13.16,0,0,1-7.37-3c-4.76-3.84-6.73-9.1-7.59-14.91-1.14-7.77.25-15.22,2.94-22.5a37.81,37.81,0,0,1,5.62-10.33c2.46-3.17,5.17-6.07,9.22-7.23a4.29,4.29,0,0,1,1.05-.23,13.25,13.25,0,0,0,5.21-1.42c3.06-1.4,6.61.07,8.74,3.13a25.65,25.65,0,0,1,4.23,11.53C412.24,86.5,412.48,89.88,412.8,93.25ZM401.21,74.61c-1,1.29-1.3,1.35-2.53.38a2.3,2.3,0,0,0-2.79-.31A10.92,10.92,0,0,1,393,76.13a3.77,3.77,0,0,0-1.95,1.18,19.59,19.59,0,0,0-4.3,6.32,45.18,45.18,0,0,0-4.37,22.2,22.63,22.63,0,0,0,3.05,10.42c2.2,3.6,5.89,4.88,9.57,2a20.11,20.11,0,0,0,5.71-7.78,42.63,42.63,0,0,0,3.71-17.21,51.32,51.32,0,0,0-.91-11.74A24.3,24.3,0,0,0,401.21,74.61Z" transform="translate(-9.04 -2.83)"></path>
  <path class="cls-2" d="M269.12,110.29c-1.29.94-2.25,1.7-3.28,2.38-2.92,1.93-3.51,4.07-1.76,6.92,3.29,5.33,8.45,8.18,15.23,8.87a33.15,33.15,0,0,0,11.5-.59,11.62,11.62,0,0,0,3-1.23c1.4-.82,1.19-2.07.74-3.27a15,15,0,0,0-4-5.47c-3.37-3.15-7.53-5.34-11.69-7.54-4.37-2.31-8.79-4.55-13-7.09-4-2.43-6.94-5.78-8-10.07a12,12,0,0,1,.26-6.8,33.57,33.57,0,0,1,11.36-15.88A15,15,0,0,1,279,66.74a9.23,9.23,0,0,1,6.14,1.91c1.06.88,2,1.87,2.88,2.72,1.12-1.64,2.25-3.37,3.46-5.05a2,2,0,0,1,2.38-.72c1.66.56,2.16,1.32,1.62,3-1.22,3.71-2.38,7.43-3.74,11.1-.95,2.6-1.12,5.29-1.56,8-.34,2.08-.71,4.22-2.11,5.92a9.76,9.76,0,0,1-3.1,2.06c-.23.12-1-.54-1.45-.88-.17-.13-.2-.39-.3-.59a2.62,2.62,0,0,0-1.89-1.47c-.95-.21-1.07-1-.84-1.82.39-1.32.82-2.63,1.25-3.94a14.57,14.57,0,0,0-.53-11.13c-.92-1.94-1.89-2.15-3.74-1.34a17.33,17.33,0,0,0-6.26,5c-2.39,2.82-4.5,5.8-5.25,9.37a6.35,6.35,0,0,0,1.58,5.71c2.63,3.06,6.28,5,9.86,7.07,4.71,2.69,9.54,5.24,14.1,8.12s8.28,6.46,10.27,11.2a8.68,8.68,0,0,1-1,9.21,12.51,12.51,0,0,1-7.09,4.25,41.94,41.94,0,0,1-8.17,1.2,37.74,37.74,0,0,1-13.94-1.6c-7-2.25-12.09-6.36-14.84-12.56A8.39,8.39,0,0,1,259.51,111a10,10,0,0,1,7.13-1.71A11.47,11.47,0,0,1,269.12,110.29Z" transform="translate(-9.04 -2.83)"></path>
  <path class="cls-1" d="M336.67,131.45c3.36.72,3,6.57,2.71,13.45s-.28,12.32,1.3,12.22,2.15-3.6,1.68-7.19-1-12.2,0-15.71,1.64-4.41,1.64-4.41Z" transform="translate(-9.04 -2.83)"></path>
  <path class="cls-1" d="M319.38,87a109.85,109.85,0,0,1,12.79-13.86,39.37,39.37,0,0,1,12.71-7.89,4.35,4.35,0,0,1,2.55-.07,2.09,2.09,0,0,1,1.08,3.37c-1.33,1.65-2.88,3.11-4.36,4.63-3.66,3.77-7.49,7.38-11,11.31-3.3,3.75-6.22,7.84-9.32,11.77a1.69,1.69,0,0,0-.21,2c2.8,6.66,5.79,13.21,10.25,19a20.32,20.32,0,0,0,6.49,6,1.56,1.56,0,0,1,.78.92c.22,1,1.08,1.37,1.71,2a6.74,6.74,0,0,1,1.47,2.38c.3.84-1.19,2.76-2.1,3-.12,0-.27,0-.34.07-1.93,1.72-3.87.59-5.62-.19-3.84-1.7-6.66-4.7-9.23-7.93a79.2,79.2,0,0,1-9.61-16.29c-.1-.23-.21-.46-.41-.88-5.89,10.28-12.48,20-16,31.37,2.72.5,3.66,2.57,2.13,5.09-1.07,1.76-2.44,3.34-4.64,3.39a6.65,6.65,0,0,1-3.71-1,7.54,7.54,0,0,1-2.28-3.1c-1.5-3.3-.39-6.55.59-9.72a78.29,78.29,0,0,1,7.53-16.11c3.83-6.6,7.87-13.08,11.79-19.63a1.4,1.4,0,0,0,.21-1c-1.68-4.34-3.37-8.67-5.15-13-.36-.86-1.17-1.54-1.58-2.39-.85-1.73-2.58-3.16-1.83-5.48a3.81,3.81,0,0,1,2.48-2.67c1.23-.43,1.9,1.06,2.74,1,1-.06,2-.52,2.83.41a21.46,21.46,0,0,1,2.93,3.84c1.38,2.72,2.49,5.58,3.71,8.38C319,86,319.16,86.39,319.38,87Z" transform="translate(-9.04 -2.83)"></path>
  <path class="cls-3" d="M60.47,107.34H35.77L31,129.54H9L20.89,73.91h22l-4.13,19.4h24.7l4.13-19.4h22L77.68,129.54h-22Z" transform="translate(-9.04 -2.83)"></path>
  <path class="cls-3" d="M100.27,73.91h59.14l-2.89,13.56H119.36L117.72,95h34.52l-2.88,13.56H114.84L113.28,116h37.17l-2.89,13.56H88.43Z" transform="translate(-9.04 -2.83)"></path>
  <path class="cls-3" d="M166.65,73.91h22L180,114.58H214l-3.2,15h-56Z" transform="translate(-9.04 -2.83)"></path>
  <path class="cls-3" d="M228.89,73.91h22L239,129.54h-22Z" transform="translate(-9.04 -2.83)"></path>
  <path class="cls-1" d="M247,32.42a82.85,82.85,0,0,0-10.78,4.83l-1.16.68-.68-1.48,2.5-1.15,7.38-3.4a.31.31,0,0,0,.16-.43.33.33,0,0,0-.43-.16l-6.82,3.15-4.2,1.93-16.78,7.73a.33.33,0,0,0-.16.43.33.33,0,0,0,.43.16l1.73-.8a43.21,43.21,0,0,0,2.47,4.77l-2,1.71-.28.24A33.2,33.2,0,0,1,215,53.28,29.33,29.33,0,0,1,212,55L188.43,67l-4.21-9.14,0,0a.71.71,0,0,0-.92-.3l-.31.14-4.26,2a.72.72,0,0,0-.35.89s0,0,0,.05l4.31,9.36-14.92,7.57s-4.19,2.2-4,2.6,4.58-1.36,4.58-1.36l4.68-2,.54,1.19a.17.17,0,0,0,0,.14h0l-6.91,3.19c-.07,0-.68.43-.63.55l.12.26c.06.12.76-.09.83-.12l6.91-3.18h0a.17.17,0,0,0,.22.07l.67-.3a.18.18,0,0,0,.09-.22h0l6.91-3.18c.07,0,.68-.43.63-.55l-.12-.26c-.06-.12-.76.09-.83.12l-6.91,3.18h0a.2.2,0,0,0-.12-.08l-.53-1.15,9.92-4.13,4.32,9.37a.7.7,0,0,0,.94.34l4.55-2.09a.73.73,0,0,0,.35-.95l-4.22-9.14,24.93-10.37a23.86,23.86,0,0,1,5.67-1.56l4.22-.64h0a41,41,0,0,0,2,5l-1.73.79a.32.32,0,1,0,.27.59l12.71-5.85L241,56.26l11.9-5.49a.32.32,0,1,0-.27-.58l-9.89,4.55-.67-1.45A78.19,78.19,0,0,0,254,47.77c12.25-6.71,9.07-12.49,8.69-13.31S260,27.47,247,32.42ZM218.73,43.64l13.88-6.39,1.11-.52.71,1.55-1.72,1a106.66,106.66,0,0,0-11.6,9h0A42.3,42.3,0,0,1,218.73,43.64ZM242.16,55l-1.65.75-3.13,1.45-10.22,4.71a41.09,41.09,0,0,1-2-4.81c4-.63,7.38-1.24,10.39-1.95l2.36-.59c1.2-.33,2.36-.69,3.51-1.07Z" transform="translate(-9.04 -2.83)"></path>
  <path class="cls-4" d="M232.25,40c-1.14,1-2.34,2.19-3.49,3.37-2.83,1.91-6.19,4.45-9.13,6.8l.64-.76A119.79,119.79,0,0,1,232.25,40Z" transform="translate(-9.04 -2.83)"></path>
  <path class="cls-4" d="M244.85,51.76a14.36,14.36,0,0,1-4,1.51.41.41,0,0,1-.38-.27l0-.29a.24.24,0,0,1,.15-.23,28.54,28.54,0,0,0,3.84-1.43.25.25,0,0,1,.28.07l.22.32A.21.21,0,0,1,244.85,51.76Z" transform="translate(-9.04 -2.83)"></path>
  <path class="cls-4" d="M234.11,38.89a14.76,14.76,0,0,1,3.75-2.07.43.43,0,0,1,.43.22l.06.28a.23.23,0,0,1-.11.25,28.54,28.54,0,0,0-3.6,2,.21.21,0,0,1-.28,0l-.27-.28A.22.22,0,0,1,234.11,38.89Z" transform="translate(-9.04 -2.83)"></path>
  <path class="cls-4" d="M249.3,34.76c-1-1.28-.55-1.65,1.73-2.5a7.67,7.67,0,0,1,8.94,2.4.23.23,0,0,1-.09.35l-7.33,3.38s-.82.54-1.14-.54A8.38,8.38,0,0,0,249.3,34.76Z" transform="translate(-9.04 -2.83)"></path>
  <path class="cls-4" d="M239,36.35c2.29-1.61,8.35-3.69,10.32-4.35a.15.15,0,0,1,.14.25l-1.37,1.26a.29.29,0,0,1-.12.07c-2.56.85-7.53,3-8.4,3.42a.28.28,0,0,1-.25,0l-.32-.22A.24.24,0,0,1,239,36.35Z" transform="translate(-9.04 -2.83)"></path>
  <path class="cls-4" d="M250.09,38.52a.49.49,0,0,1-.25.64l-2.3,1.07a.51.51,0,0,1-.67-.25l-1.73-3.75a.5.5,0,0,1,.19-.64,9.67,9.67,0,0,1,2-.9.52.52,0,0,1,.56.18A16.66,16.66,0,0,1,250.09,38.52Z" transform="translate(-9.04 -2.83)"></path>
  <path class="cls-4" d="M252.76,45.48a.52.52,0,0,1-.23.54,9.5,9.5,0,0,1-2,.92.5.5,0,0,1-.61-.27l-1.73-3.75a.52.52,0,0,1,.25-.67l2.3-1.06a.51.51,0,0,1,.66.23A17.17,17.17,0,0,1,252.76,45.48Z" transform="translate(-9.04 -2.83)"></path>
  <path class="cls-4" d="M255.9,46.22c-1.78,1.07-7.3,4.33-10,5a.25.25,0,0,1-.3-.26l0-.39a.26.26,0,0,1,.14-.21c.86-.41,5.75-2.77,8.06-4.16a.35.35,0,0,1,.13,0l1.86-.22A.15.15,0,0,1,255.9,46.22Z" transform="translate(-9.04 -2.83)"></path>
  <path class="cls-4" d="M253.77,44.47a8.31,8.31,0,0,0-1-3.62c-.61-.94.33-1.22.33-1.22l7.33-3.37a.23.23,0,0,1,.33.16,7.66,7.66,0,0,1-4,8.35C254.67,46,254.11,46,253.77,44.47Z" transform="translate(-9.04 -2.83)"></path>
  <path class="cls-4" d="M262.74,38a8.35,8.35,0,0,1-2.68,5.06c-.43.37-.67.18-.67.18,2.08-1.56,2.22-4.41,2.56-5.1a.74.74,0,0,1,.45-.44A.28.28,0,0,1,262.74,38Z" transform="translate(-9.04 -2.83)"></path>
  <path class="cls-4" d="M260,32.57a.76.76,0,0,1-.63.06c-.74-.2-3-1.94-5.54-1.37,0,0,0-.31.57-.4A8.41,8.41,0,0,1,260,32.11.29.29,0,0,1,260,32.57Z" transform="translate(-9.04 -2.83)"></path>
  <path class="cls-4" d="M235.48,54.87h0c-3.35.79-7.08,1.44-11.7,2.14-.31,0-.65,0-1,0,3.69-.7,7.81-1.61,11.1-2.51l1.19-.09,2.07-.2c.54-.05,1.06-.12,1.57-.18l-1.23.34-2,.5" transform="translate(-9.04 -2.83)"></path>
  <path class="cls-1" d="M285.75,46.14l-12.23,0h0l-9.66,0h0l-4.9,0H243.42a1.49,1.49,0,0,0-.63.14l-3.58,1.75a.28.28,0,0,0-.1.09l-4.06.1v-.24a.22.22,0,0,0-.23-.21h-.47a2.75,2.75,0,0,0-2.63-1.75,3.07,3.07,0,0,0-.53.06l-.23-.38a.23.23,0,0,0-.31-.07l-.2.12-2.11-3.47a.33.33,0,0,0,0-.27l-1.7-2.74,0,0,0-.06L224,35l0-.06,0-.06-2.51-4h0l0-.06,0-.06-2.51-4h0l0-.06,0-.06-2.54-4.09,0-.06v0l-2.57-4.14,0,0L211,14.06l0-.05,0,0-2.57-4.14,0,0v0L206,6.06h0l-1.39-2.24v0a1.56,1.56,0,0,0-2-.82.17.17,0,0,0,0,.24L211.08,18l0,.06h0l2.39,4.16,0,0,0,0,2.36,4.11h0l.05.08v0l2.31,4h0l0,0,4.75,8.28,0,0,0,.05h0l.56,1a1.41,1.41,0,0,0,.44.47l3.31,2.22a.31.31,0,0,0,.12,0l2.12,3.46-.2.12a.23.23,0,0,0-.08.31l.25.4a2.76,2.76,0,0,0,.12,3.58l-.21.39a.24.24,0,0,0,.08.31l.21.11-2,3.56a.31.31,0,0,0-.22.16l-6.14,11.47,0,.06h0l-4.61,8.62,0,.06h0L212.19,84l0,.07v0l-2.3,4.29,0,.06,0,.06-2,3.82-1.25,2.32v0a1.55,1.55,0,0,0,.3,2.14c.07,0,.17,0,.23-.08l13.48-23.22h0l4.75-8.19,0,0,0-.06,2.33-4,0-.06v0l.58-1a1.36,1.36,0,0,0,.19-.61l.27-4a.19.19,0,0,0,0-.13l2-3.57.2.11a.22.22,0,0,0,.3-.08l.22-.41.48,0a2.78,2.78,0,0,0,2.57-1.93h.44a.23.23,0,0,0,.22-.23v-.23l4.06-.1a.28.28,0,0,0,.24.11l13-.42h0l9.85-.31h0l9.88-.32h.11l4.86-.16h.12l4.33-.14,2.64-.08h0c.13,0,1.59,0,1.71-1.33C286,46.21,285.87,46.14,285.75,46.14Z" transform="translate(-9.04 -2.83)"></path>
  <path class="cls-4" d="M227.22,39.73l-.34-.56-.22.1.35.56Zm.61,3.42-.17-.27-.18.14.16.27Zm.93-.71-.16-.27-.19.14.17.27Zm23.63,6.2h0l-.76,0-.47.25.77,0Zm4.79-2.8-4.47,0a.53.53,0,0,1-.25.24h2.39l1-.11a.15.15,0,0,1,.16.12h.86Zm-28.24,9.89,0-.22v-.1l1.79-3.29.16.06H231a.48.48,0,0,0,.4-.24l.14-.27h.36a3,3,0,0,0,2.72-1.93h.29a.46.46,0,0,0,.45-.46l3.72-.09a.63.63,0,0,0,.35.1l9.19-.29.5-.25-9.7.31a.28.28,0,0,1-.24-.11l-4.06.1v.23a.23.23,0,0,1-.22.23h-.44a2.78,2.78,0,0,1-2.57,1.93l-.48,0-.22.41a.22.22,0,0,1-.3.08l-.2-.11-2,3.57a.19.19,0,0,1,0,.13v.28Zm-2.24,1.15.19-.35-.29,0-.19.36Zm2.19-.36,0-.33-.23,0,0,.33ZM227,62.7l.56-1-.37.17-.56,1Zm-1.67-3.29.4-.76-.11-.29-.4.76Zm1.75-3.27.56-1.06a.31.31,0,0,1,.22-.16l2-3.56-.21-.11a.24.24,0,0,1-.08-.31l.21-.39a2.76,2.76,0,0,1-.12-3.58l-.25-.4a.23.23,0,0,1,.08-.31l.2-.12-1.47-2.41-.2.14,1.34,2.19a.5.5,0,0,0-.2.29.45.45,0,0,0,.05.34l.16.26a3.07,3.07,0,0,0-.55,1.81,3,3,0,0,0,.68,1.82l-.14.25a.46.46,0,0,0,.18.62l-1.79,3.27a.62.62,0,0,0-.26.25l-.66,1.23Zm22.46-10.32-6.14,0a1.63,1.63,0,0,0-.73.17l-3.58,1.75-.09.07-3.74.09a.47.47,0,0,0-.47-.45h-.3a3,3,0,0,0-2.8-1.75h0l-.41,0-.14-.24a.46.46,0,0,0-.39-.22l-.19,0-.05,0L229.1,43l-.17.17,1.52,2.49.2-.12a.23.23,0,0,1,.31.07l.23.38a3.07,3.07,0,0,1,.53-.06,2.75,2.75,0,0,1,2.63,1.75h.47a.22.22,0,0,1,.23.21v.24l4.06-.1a.28.28,0,0,1,.1-.09l3.58-1.75a1.49,1.49,0,0,1,.63-.14h6.25Zm-24.79-5-.63-.43-.24.12.08.05.54.37Z" transform="translate(-9.04 -2.83)"></path>
</svg>
