<?xml version="1.0" encoding="UTF-8"?>
<svg xmlns="http://www.w3.org/2000/svg" id="Ebene_1" data-name="Ebene 1" viewBox="0 0 597.97 172.87">
  <defs>
    <style>.cls-1{fill:#bbbbbc;}.cls-2{fill:#222221;}.cls-3{fill:#ec6608;}.cls-4{fill:#fff;}</style>
  </defs>
  <title>HeliSevenGroup_logo</title>
  <g id="GROUP_Pfade" data-name="GROUP Pfade">
    <path class="cls-1" d="M29.74,165.61v-2.15H41.51c0,.49,0,1.16,0,1.65C41,173.22,32.87,176.26,25,176.26c-10.48,0-17.86-4.66-17.86-13.21,0-8.86,7.92-12.67,17.5-12.67,4.74,0,10.16.9,14.41,3.23V156c-3.31-2.06-8.73-3.31-14.23-3.31-7.75,0-14.86,2.59-14.86,10.38,0,7.3,6.4,10.88,15,10.88,6.71,0,13.52-2.06,13.87-8.32Z" transform="translate(-6.37 -3.74)"></path>
    <path class="cls-1" d="M173.24,175.81,166,165.87H153.32v9.94h-2.68v-25h16.07c5,0,9.26,2.33,9.26,7.52,0,4.48-3.13,6.63-7.07,7.26l7.43,10.2ZM153.32,153v10.65h13c4,0,6.85-1.34,6.85-5.33S170.33,153,166.3,153Z" transform="translate(-6.37 -3.74)"></path>
    <path class="cls-1" d="M301.39,176.26c-10.11,0-17.77-4.75-17.77-12.94s7.66-12.94,17.77-12.94,17.82,4.75,17.82,12.94S311.55,176.26,301.39,176.26Zm0-23.55c-8.37,0-14.95,3.54-14.95,10.61S293.07,174,301.39,174s15-3.58,15-10.65S309.72,152.71,301.39,152.71Z" transform="translate(-6.37 -3.74)"></path>
    <path class="cls-1" d="M453.27,150.83H456v12.4c0,9.72-6.71,13.39-13.92,13.39s-13.92-3.67-13.92-13.39v-12.4h2.69v12.4c0,8.37,5.64,11.06,11.23,11.06s11.19-2.69,11.19-11.06Z" transform="translate(-6.37 -3.74)"></path>
    <path class="cls-1" d="M570,165.38v10.43h-2.68v-25h16.16c5.19,0,8.95,2.55,8.95,7.25s-3.76,7.3-8.95,7.3Zm0-12.31v10.07H583c3.89,0,6.44-1.61,6.44-5.06s-2.55-5-6.44-5Z" transform="translate(-6.37 -3.74)"></path>
  </g>
  <rect class="cls-1" y="136.3" width="586.12" height="1.88"></rect>
  <g id="HELI_schwarz_Pfade" data-name="HELI schwarz Pfade">
    <path class="cls-2" d="M57.82,108.2H33.11l-4.75,22.21h-22L18.22,74.76h22L36.07,94.17H60.78l4.13-19.41h22L75,130.41h-22Z" transform="translate(-6.37 -3.74)"></path>
    <path class="cls-2" d="M97.65,74.76H156.8l-2.88,13.56H116.74l-1.63,7.49h34.52l-2.88,13.56H112.22l-1.56,7.48h37.18L145,130.41H85.8Z" transform="translate(-6.37 -3.74)"></path>
    <path class="cls-2" d="M164.06,74.76h22l-8.65,40.69h34.06l-3.19,15h-56Z" transform="translate(-6.37 -3.74)"></path>
    <path class="cls-2" d="M226.33,74.76h22l-11.85,55.65h-22Z" transform="translate(-6.37 -3.74)"></path>
  </g>
  <g id="SEVEN_Pfade" data-name="SEVEN Pfade">
    <path class="cls-3" d="M263.8,106.79c-10.37-1.63-13.48-7.87-11.85-15.66,3-14.42,18-18.32,36.09-18.32,24.78,0,33.59,6.47,31.88,18.24H294.35c.55-2.26-.54-3.66-2.41-4.44a15.35,15.35,0,0,0-6.55-1.17c-6.55,0-9.2,1.64-9.66,4-.32,1.55.15,2.57,2.25,2.88l25.41,3.9c10.76,1.63,16.53,6.78,14.5,16.21-2.88,13.56-15.28,20-40,20-16.92,0-34.92-2.34-31.49-18.71h26.5c-.31,1.87.08,3.12,1.48,4s3.82,1.17,7.25,1.17c6.86,0,9.12-1.87,9.66-4.52.31-1.64-.31-3.28-3.19-3.74Z" transform="translate(-6.37 -3.74)"></path>
    <path class="cls-3" d="M331.25,74.76H390.4l-2.88,13.56H350.34l-1.64,7.49h34.53l-2.88,13.56H345.82l-1.56,7.48h37.18l-2.89,13.56H319.4Z" transform="translate(-6.37 -3.74)"></path>
    <path class="cls-3" d="M394.07,74.76h24.16l4.6,35.7H423l19.88-35.7H467l-36.79,55.65H407.16Z" transform="translate(-6.37 -3.74)"></path>
    <path class="cls-3" d="M471.21,74.76h59.15l-2.88,13.56H490.3l-1.63,7.49h34.52l-2.88,13.56H485.78l-1.56,7.48H521.4l-2.88,13.56H459.36Z" transform="translate(-6.37 -3.74)"></path>
    <path class="cls-3" d="M535.67,74.76h25.09l15.75,30.87h.23l6.55-30.87h21l-11.84,55.65H568.4L551.64,99.24h-.15l-6.63,31.17h-21Z" transform="translate(-6.37 -3.74)"></path>
  </g>
  <path class="cls-3" d="M244.4,33.35a84.29,84.29,0,0,0-10.78,4.82l-1.16.69-.68-1.48,2.5-1.15,7.39-3.41a.33.33,0,0,0,.16-.43.32.32,0,0,0-.43-.15l-6.83,3.14-4.2,1.94-16.79,7.73a.33.33,0,0,0-.16.43.33.33,0,0,0,.43.16l1.73-.8a43.21,43.21,0,0,0,2.47,4.77l-2,1.71-.28.24a35,35,0,0,1-3.33,2.66A29.33,29.33,0,0,1,209.42,56L185.86,67.91l-4.21-9.15,0,0a.7.7,0,0,0-.92-.29l-.3.14-4.27,2a.72.72,0,0,0-.35.89.08.08,0,0,1,0,.05l4.32,9.36L165.18,78.4s-4.18,2.2-4,2.59,4.58-1.35,4.58-1.35l4.68-2,.54,1.18a.16.16,0,0,0,0,.15h0L164,82.21c-.07,0-.68.43-.62.55l.12.26c.05.12.75-.09.82-.12l6.92-3.19h0a.17.17,0,0,0,.22.07l.67-.31a.17.17,0,0,0,.09-.21h0l6.92-3.18c.07,0,.68-.43.62-.55l-.12-.27c-.06-.11-.75.09-.82.12l-6.92,3.19h0a.14.14,0,0,0-.12-.08l-.53-1.15,9.93-4.13,4.31,9.36a.71.71,0,0,0,.95.35L191,80.83a.73.73,0,0,0,.35-1l-4.22-9.15L212.1,60.36a23.83,23.83,0,0,1,5.68-1.57c1.48-.22,2.88-.42,4.21-.63h0a41.73,41.73,0,0,0,2,5l-1.73.79a.33.33,0,0,0-.16.43.32.32,0,0,0,.43.16l12.72-5.86,3.19-1.47,11.91-5.48a.32.32,0,0,0-.27-.59l-9.9,4.56-.67-1.45a79.38,79.38,0,0,0,11.95-5.53c12.25-6.71,9.08-12.49,8.7-13.31S257.47,28.4,244.4,33.35ZM216.17,44.57l13.89-6.4,1.11-.51.71,1.54-1.72,1a107.64,107.64,0,0,0-11.61,9h0A42.3,42.3,0,0,1,216.17,44.57ZM239.61,56l-1.64.76-3.14,1.44L224.6,62.87a41.94,41.94,0,0,1-2-4.81c4.05-.64,7.39-1.24,10.4-2l2.36-.6c1.2-.33,2.37-.68,3.51-1.07Z" transform="translate(-6.37 -3.74)"></path>
  <path class="cls-4" d="M229.7,40.91c-1.14,1-2.34,2.19-3.5,3.37-2.83,1.91-6.19,4.45-9.13,6.8l.64-.75A118.59,118.59,0,0,1,229.7,40.91Z" transform="translate(-6.37 -3.74)"></path>
  <path class="cls-4" d="M242.31,52.7a14.83,14.83,0,0,1-4,1.51.44.44,0,0,1-.39-.28l0-.28a.23.23,0,0,1,.15-.23A30,30,0,0,0,241.87,52a.22.22,0,0,1,.28.07l.23.31A.23.23,0,0,1,242.31,52.7Z" transform="translate(-6.37 -3.74)"></path>
  <path class="cls-4" d="M231.56,39.82a14.46,14.46,0,0,1,3.75-2.07.42.42,0,0,1,.43.21l.06.28a.22.22,0,0,1-.11.25,30.44,30.44,0,0,0-3.6,2,.21.21,0,0,1-.28,0l-.27-.28A.21.21,0,0,1,231.56,39.82Z" transform="translate(-6.37 -3.74)"></path>
  <path class="cls-4" d="M246.75,35.68c-1-1.28-.55-1.65,1.74-2.49a7.66,7.66,0,0,1,8.94,2.4.23.23,0,0,1-.09.35L250,39.32s-.83.53-1.14-.54A8.43,8.43,0,0,0,246.75,35.68Z" transform="translate(-6.37 -3.74)"></path>
  <path class="cls-4" d="M236.48,37.27c2.29-1.61,8.36-3.69,10.33-4.34a.14.14,0,0,1,.14.24l-1.37,1.26a.35.35,0,0,1-.13.08c-2.56.85-7.53,3-8.4,3.41a.25.25,0,0,1-.25,0l-.32-.23A.25.25,0,0,1,236.48,37.27Z" transform="translate(-6.37 -3.74)"></path>
  <path class="cls-4" d="M247.55,39.44a.5.5,0,0,1-.25.65L245,41.15a.5.5,0,0,1-.67-.24l-1.73-3.76a.5.5,0,0,1,.19-.63,9.67,9.67,0,0,1,2-.9.5.5,0,0,1,.56.17A17.1,17.1,0,0,1,247.55,39.44Z" transform="translate(-6.37 -3.74)"></path>
  <path class="cls-4" d="M250.21,46.41A.49.49,0,0,1,250,47a9.25,9.25,0,0,1-2,.92.49.49,0,0,1-.6-.27l-1.73-3.75a.5.5,0,0,1,.24-.67l2.31-1.06a.51.51,0,0,1,.66.23A16.83,16.83,0,0,1,250.21,46.41Z" transform="translate(-6.37 -3.74)"></path>
  <path class="cls-4" d="M253.36,47.15c-1.78,1.07-7.31,4.33-10,5a.25.25,0,0,1-.3-.26l0-.39a.24.24,0,0,1,.15-.2c.86-.42,5.75-2.78,8.06-4.17a.29.29,0,0,1,.13,0l1.86-.22A.15.15,0,0,1,253.36,47.15Z" transform="translate(-6.37 -3.74)"></path>
  <path class="cls-4" d="M251.23,45.4a8.47,8.47,0,0,0-1-3.62c-.61-.94.33-1.22.33-1.22l7.33-3.38a.24.24,0,0,1,.33.17,7.67,7.67,0,0,1-4,8.35C252.13,46.89,251.57,47,251.23,45.4Z" transform="translate(-6.37 -3.74)"></path>
  <path class="cls-4" d="M260.2,39A8.3,8.3,0,0,1,257.52,44c-.43.37-.67.18-.67.18,2.09-1.56,2.23-4.41,2.56-5.1a.72.72,0,0,1,.45-.44A.28.28,0,0,1,260.2,39Z" transform="translate(-6.37 -3.74)"></path>
  <path class="cls-4" d="M257.48,33.49a.71.71,0,0,1-.63.06c-.74-.19-3-1.94-5.54-1.36,0,0,0-.32.57-.4A8.28,8.28,0,0,1,257.47,33,.28.28,0,0,1,257.48,33.49Z" transform="translate(-6.37 -3.74)"></path>
  <path class="cls-4" d="M232.93,55.81h0c-3.35.79-7.09,1.44-11.7,2.14h-1c3.7-.71,7.82-1.61,11.11-2.52.4,0,.8,0,1.19-.09l2.07-.19,1.57-.19-1.23.34-2,.51" transform="translate(-6.37 -3.74)"></path>
  <path class="cls-3" d="M283.23,47.07,271,47h-.05l-9.67,0h-4.92l-4.65,0H240.87a1.41,1.41,0,0,0-.62.14l-3.59,1.75-.1.09-4.06.1v-.23a.23.23,0,0,0-.23-.22h-.47a2.75,2.75,0,0,0-2.63-1.75,3,3,0,0,0-.53.07l-.24-.39a.21.21,0,0,0-.3-.07l-.2.12-2.12-3.47a.27.27,0,0,0,0-.27l-1.7-2.74,0,0,0-.06-2.51-4,0-.06,0-.06-2.51-4.05h0l0-.05,0-.06-2.51-4.05h0l0-.06,0-.05-2.54-4.1,0-.06v0l-2.57-4.14,0,0L208.45,15l0-.06,0,0-2.57-4.14,0,0,0,0L203.48,7h0l-1.39-2.24v0a1.56,1.56,0,0,0-2-.82.16.16,0,0,0,0,.24l8.49,14.79,0,.06h0l2.39,4.16,0,0,0,0,2.36,4.11h0l.05.08v0l2.32,4h0v0l4.76,8.28,0,0,0,.06h0l.55,1a1.57,1.57,0,0,0,.44.48l3.31,2.22a.22.22,0,0,0,.13,0l2.11,3.47-.2.13a.22.22,0,0,0-.07.3l.24.4a2.78,2.78,0,0,0-.6,1.79,2.73,2.73,0,0,0,.73,1.79l-.22.4a.22.22,0,0,0,.09.3l.21.11-1.95,3.57a.27.27,0,0,0-.22.16L219,67.49l0,.06v0l-4.62,8.61,0,.06h0l-4.66,8.68,0,.07v0l-2.3,4.3,0,.05,0,.06-2.05,3.82-1.24,2.32v0a1.57,1.57,0,0,0,.29,2.15.17.17,0,0,0,.23-.08l13.49-23.24h0l4.76-8.19v0l0,0,2.34-4,0,0v0l.59-1a1.4,1.4,0,0,0,.19-.62l.27-4a.59.59,0,0,0,0-.13l1.94-3.56.21.11a.22.22,0,0,0,.3-.09l.22-.41.48,0a2.74,2.74,0,0,0,2.56-1.93h.45a.22.22,0,0,0,.22-.23V50l4.07-.1a.26.26,0,0,0,.24.11l13-.41h0l9.85-.32h0l9.89-.32h.11l4.86-.16h.12l4.34-.14,2.63-.08h0c.13,0,1.59,0,1.72-1.33A.17.17,0,0,0,283.23,47.07Z" transform="translate(-6.37 -3.74)"></path>
  <path class="cls-4" d="M224.67,40.66l-.35-.56-.21.1.34.56Zm.61,3.42-.17-.27-.19.14.17.27Zm.93-.71L226,43.1l-.18.14.16.27Zm23.64,6.21h0l-.76,0-.47.25.77,0Zm4.79-2.81h-4.47a.62.62,0,0,1-.25.23h2.39l1-.12a.15.15,0,0,1,.16.12h.86Zm-28.25,9.89,0-.21,0-.11,1.8-3.28.15,0h.06a.45.45,0,0,0,.4-.24l.15-.27h.35A3,3,0,0,0,232,50.68h.29a.47.47,0,0,0,.45-.47l3.72-.09a.56.56,0,0,0,.35.11l9.2-.3.5-.25-9.71.31a.26.26,0,0,1-.24-.11l-4.07.1v.23a.22.22,0,0,1-.22.23h-.45a2.74,2.74,0,0,1-2.56,1.93l-.48,0-.22.41a.22.22,0,0,1-.3.09l-.21-.11-1.94,3.56a.59.59,0,0,1,0,.13l0,.29Zm-2.25,1.16.2-.36-.3,0-.19.36Zm2.2-.37,0-.33-.24,0,0,.33Zm-1.88,6.19.57-1-.37.17-.57,1Zm-1.67-3.3.41-.75-.11-.3-.41.76Zm1.75-3.27.57-1a.27.27,0,0,1,.22-.16l1.95-3.57-.21-.11a.22.22,0,0,1-.09-.3l.22-.4a2.73,2.73,0,0,1-.73-1.79,2.78,2.78,0,0,1,.6-1.79l-.24-.4a.22.22,0,0,1,.07-.3l.2-.13-1.47-2.41-.19.14,1.34,2.2a.41.41,0,0,0-.2.28.45.45,0,0,0,0,.34l.16.27a3,3,0,0,0-.55,1.8,2.93,2.93,0,0,0,.67,1.82l-.14.26a.45.45,0,0,0,.19.61l-1.79,3.28a.5.5,0,0,0-.27.25l-.66,1.23ZM247,46.75l-6.14,0a1.63,1.63,0,0,0-.73.17l-3.58,1.75-.09.07-3.74.09a.47.47,0,0,0-.47-.45H232a3,3,0,0,0-2.8-1.74h0a2.73,2.73,0,0,0-.41,0l-.15-.24a.47.47,0,0,0-.39-.22l-.18,0-.06,0-1.42-2.34-.17.17,1.52,2.49.2-.12a.21.21,0,0,1,.3.07l.24.39a3,3,0,0,1,.53-.07,2.75,2.75,0,0,1,2.63,1.75h.47a.23.23,0,0,1,.23.22v.23l4.06-.1.1-.09,3.59-1.75a1.42,1.42,0,0,1,.63-.14h6.24Zm-24.79-5-.63-.43-.25.12.08.05.55.37Z" transform="translate(-6.37 -3.74)"></path>
</svg>
